<svg width="24" height="24" viewBox="0 0 24 24" fill="none" xmlns="http://www.w3.org/2000/svg">
<path fill-rule="evenodd" clip-rule="evenodd" d="M12.75 13.1892L14.9697 10.9696C15.2626 10.6767 15.7374 10.6767 16.0303 10.9696C16.3232 11.2625 16.3232 11.7373 16.0303 12.0302L13.2374 14.8231C12.554 15.5065 11.446 15.5065 10.7626 14.8231L7.96967 12.0302C7.67678 11.7373 7.67678 11.2625 7.96967 10.9696C8.26256 10.6767 8.73744 10.6767 9.03033 10.9696L11.25 13.1892L11.25 5.5C11.25 5.08579 11.5858 4.75 12 4.75C12.4142 4.75 12.75 5.08579 12.75 5.5L12.75 13.1892ZM5 14.75C5.41421 14.75 5.75 15.0858 5.75 15.5V17.5C5.75 17.6381 5.86193 17.75 6 17.75H18C18.1381 17.75 18.25 17.6381 18.25 17.5V15.5C18.25 15.0858 18.5858 14.75 19 14.75C19.4142 14.75 19.75 15.0858 19.75 15.5V17.5C19.75 18.4665 18.9665 19.25 18 19.25H6C5.0335 19.25 4.25 18.4665 4.25 17.5V15.5C4.25 15.0858 4.58579 14.75 5 14.75Z" fill="#121212"/>
</svg>
