<svg width="18" height="14" viewBox="0 0 18 14" fill="none" xmlns="http://www.w3.org/2000/svg">
<path fill-rule="evenodd" clip-rule="evenodd" d="M17.0046 2.14034L14.2495 3.577C14.2432 3.52258 14.2384 3.4666 14.232 3.41219C14.0621 1.98019 12.8871 0.860719 11.4325 0.702127C10.2019 0.566857 8.95217 0.5 7.70087 0.5H7.2515C6.0018 0.5 4.75049 0.566857 3.52144 0.702127C2.06689 0.860719 0.891822 1.98019 0.720325 3.41063C0.426558 5.8688 0.426558 8.35185 0.720325 10.81C0.891822 12.2405 2.06689 13.3615 3.52144 13.5201C4.75049 13.6538 6.0018 13.7222 7.2515 13.7222H7.70087C8.95057 13.7222 10.2019 13.6554 11.4309 13.5201C12.8855 13.3615 14.0605 12.2405 14.232 10.81C14.2384 10.7541 14.2432 10.6997 14.2495 10.6437L17.003 12.0803C17.2285 12.197 17.5 12.0383 17.5 11.788V2.43109C17.5 2.18232 17.2285 2.02217 17.0046 2.14034ZM11.6755 7.79991C11.5786 8.33941 11.053 8.70013 10.502 8.60373L8.50753 8.25855L7.98035 11.1879L6.98312 11.0153C6.43213 10.9204 6.06373 10.4058 6.16218 9.86625L6.51471 7.91341L3.52302 7.39721L3.69929 6.42079C3.79615 5.88124 4.32175 5.52052 4.87276 5.61692L6.86723 5.96053L7.39441 3.03125L8.39164 3.20384C8.94263 3.29868 9.31103 3.81333 9.21257 4.35285L8.86166 6.30571L11.8533 6.82192L11.6755 7.79991Z" fill="#FAFAFA"/>
</svg>
