<svg width="746" height="200" viewBox="0 0 746 200" fill="none" xmlns="http://www.w3.org/2000/svg">
<path d="M0 1.65724H22.3709V65.0748H93.4089V1.65724H115.78V146.735H93.4089V83.317H22.3709V146.735H0V1.65724ZM183.714 36.8892C214.366 36.8892 236.117 58.2371 236.117 90.1547C236.117 93.8866 235.909 97.4098 235.289 101.142H152.854C154.51 118.96 167.146 129.738 183.714 129.738C197.387 129.738 204.84 123.11 209.189 114.608H233.216C227.002 133.262 210.017 148.392 183.714 148.392C152.645 148.392 129.864 126.424 129.864 92.6405C129.864 58.6546 151.609 36.8892 183.714 36.8892ZM212.71 82.8995C212.299 66.3209 199.245 55.5425 182.469 55.5425C167.557 55.7513 155.338 65.9034 153.062 82.8995H212.71ZM299.911 36.8892C313.995 36.8892 328.907 43.7269 337.188 53.8853V1.65724H359.558V146.526H337.188V130.365C330.354 140.106 317.307 148.392 299.703 148.392C271.327 148.392 248.747 125.387 248.747 92.0206C248.747 58.857 271.327 36.8892 299.911 36.8892ZM304.462 128.91C321.239 128.91 337.187 115.646 337.187 92.4318C337.187 69.4266 321.239 56.1624 304.462 56.1624C287.894 56.1624 271.737 68.8067 271.737 92.0206C271.737 115.437 287.894 128.91 304.462 128.91ZM395.185 38.9639L425.836 126.835L456.286 38.9639H479.896L438.884 146.735H412.17L371.366 38.9639H395.185ZM504.751 0C512.001 0 517.798 5.5979 517.798 12.8467C517.798 19.8931 512.001 25.6997 504.751 25.6997C497.5 25.6997 491.906 20.1018 491.906 12.8467C491.906 5.38916 497.5 0 504.751 0ZM493.562 38.9639H515.933V146.735H493.562V38.9639ZM534.574 161.865H556.737C560.049 173.054 571.857 180.727 587.388 180.727C604.582 180.727 617.629 170.157 617.629 148.601V130.776C610.796 139.897 597.749 148.601 580.138 148.601C551.97 148.601 529.397 125.804 529.397 92.4318C529.189 59.0658 551.768 37.0979 580.138 37.0979C597.749 37.0979 610.796 45.1817 617.421 54.5052V38.7552H640V148.601C640 177.823 621.15 200 587.388 200C558.601 200 537.267 185.907 534.574 161.865ZM584.904 128.91C601.681 128.91 617.421 115.854 617.421 92.6405C617.629 69.4266 601.681 56.3712 584.904 56.3712C568.128 56.3712 552.179 68.8067 552.179 92.2294C552.179 115.437 568.128 128.91 584.904 128.91Z" fill="#121212"/>
<path d="M711.508 79.5559H688.508V60.0059H681.608V79.5559V86.4559V106.006H688.508V86.4559H711.508V106.006H718.408V86.4559V79.5559V60.0059H711.508V79.5559Z" fill="#121212"/>
<path d="M700 37C674.595 37 654 57.5949 654 83C654 108.405 674.595 129 700 129C725.405 129 746 108.405 746 83C746 57.5949 725.405 37 700 37ZM700 122.483C678.229 122.483 660.517 104.771 660.517 83C660.517 61.2288 678.229 43.5166 700 43.5166C721.771 43.5166 739.483 61.2289 739.483 83C739.483 104.771 721.771 122.483 700 122.483Z" fill="#121212"/>
</svg>
