<svg width="24" height="24" viewBox="0 0 24 24" fill="none" xmlns="http://www.w3.org/2000/svg">
<path fill-rule="evenodd" clip-rule="evenodd" d="M3.25 12C3.25 11.5858 3.58579 11.25 4 11.25H20C20.4142 11.25 20.75 11.5858 20.75 12C20.75 12.4142 20.4142 12.75 20 12.75H4C3.58579 12.75 3.25 12.4142 3.25 12Z" fill="#121212"/>
<path fill-rule="evenodd" clip-rule="evenodd" d="M10.4425 2.49828C10.1654 2.80617 10.1904 3.28038 10.4983 3.55748L17.1948 9.5843C17.9826 10.2934 18.5138 10.7738 18.8579 11.1828C19.1882 11.5754 19.2603 11.8046 19.2603 12C19.2603 12.1954 19.1882 12.4246 18.8579 12.8172C18.5138 13.2262 17.9826 13.7066 17.1948 14.4157L10.4983 20.4425C10.1904 20.7196 10.1654 21.1938 10.4425 21.5017C10.7196 21.8096 11.1938 21.8346 11.5017 21.5575L18.2392 15.4937C18.9756 14.8311 19.5864 14.2814 20.0058 13.7828C20.4468 13.2586 20.7603 12.6953 20.7603 12C20.7603 11.3047 20.4468 10.7415 20.0058 10.2172C19.5864 9.71863 18.9756 9.16895 18.2392 8.50628L11.5017 2.44254C11.1938 2.16544 10.7196 2.1904 10.4425 2.49828Z" fill="#121212"/>
</svg>
