<svg width="103" height="40" viewBox="0 0 103 40" fill="none" xmlns="http://www.w3.org/2000/svg">
<g clip-path="url(#clip0_3423_26511)">
<path d="M7.49548 29.952C7.82987 29.952 8.10309 29.691 8.10309 29.3526V4.97904C8.10309 4.63242 7.91143 4.36328 7.53626 4.36328H1.91693C1.554 4.36736 1.30933 4.64466 1.30933 4.97904V29.3444C1.30933 29.6992 1.54177 29.952 1.90062 29.952H7.49548Z" fill="#FAFAFA"/>
<path d="M63.701 27.8927C61.401 27.8356 60.8791 26.6041 60.8791 24.0636V4.96276C60.8831 4.66916 60.6426 4.36739 60.3204 4.36739H54.8764C54.4319 4.36739 54.1832 4.5876 54.1832 4.96684V24.5896C54.1628 29.0753 58.7178 30.0132 64.7164 30.0132L87.7727 30.0214C99.3988 30.0214 103.403 24.4673 102.372 19.688C101.65 16.3441 99.3866 13.9096 92.4297 10.8635C84.6083 7.43804 84.433 2.46302 92.1116 2.46302C95.6512 2.46302 98.4772 2.46302 98.4772 2.46302C99.1827 2.46302 99.7454 1.99814 99.7454 1.29266C99.7454 0.587189 99.1827 0.012207 98.4772 0.012207C98.4772 0.012207 95.7206 0.0244407 92.2176 0.0244407C79.7475 0.0611417 74.2545 10.0112 89.2041 16.8253C93.7387 18.8928 96.0305 21.3029 94.3218 24.1451C92.6173 26.9915 88.1275 27.9253 74.279 27.9131L63.701 27.8927Z" fill="#FAFAFA"/>
<path d="M38.0347 14.3337C38.1815 14.4031 38.3528 14.452 38.5608 14.4601C39.1072 14.4765 39.5599 14.1176 39.6251 13.5222C39.6618 13.1878 39.4946 12.8779 39.2826 12.6536C37.839 10.892 35.5839 6.85488 35.4983 0.436284V0.350649C35.4983 0.134521 35.2659 0.00402832 35.0049 0.00402832H29.1939C28.9329 0.00402832 28.7331 0.134521 28.7331 0.350649C28.3783 9.27715 34.7561 12.7148 38.0347 14.3378V14.3337Z" fill="#FAFAFA"/>
<path d="M65.6788 25.3074C69.1287 24.9567 72.3258 20.4791 72.3258 14.1258C72.3258 8.82862 70.0911 4.25323 67.3426 2.87898C66.5923 2.50382 65.8705 2.45488 63.7173 2.45488L55.4392 2.46304C53.8244 2.46304 52.8335 3.02579 52.389 3.89438L42.3737 24.5366C40.8485 27.9172 37.4965 29.2792 33.7408 30.0132C31.5346 30.4455 25.9561 31.4038 20.0758 29.3322C15.2027 27.6114 10.5335 22.4692 10.2766 19.3904C9.78319 15.0148 14.9172 12.3601 16.895 11.2468C18.8728 10.1335 20.1736 8.84901 20.1736 6.91609C20.1736 4.82822 18.0205 2.46304 13.6653 2.46304H1.71712C1.01165 2.46304 0.46521 1.96554 0.46521 1.26006C0.46521 0.554589 1.04427 0.0285415 1.74974 0.0285415L12.1117 0.0203857C20.1655 0.0203857 27.6647 1.17443 27.6688 7.35243C27.6688 14.5703 18.4772 15.235 18.3835 19.6921C18.2815 24.5856 24.0599 28.2434 28.3376 28.2434C32.6153 28.2434 34.4136 26.4818 36.4811 22.7628L44.955 4.67733C46.3007 1.59445 49.1022 0.0244636 51.973 0.0244636H66.9552C73.28 0.0244636 78.9156 4.02079 79.042 13.5549C79.1685 23.089 74.3769 26.2697 66.9593 26.804C66.5433 26.8325 66.1192 26.8488 65.6788 26.8407C65.2384 26.8366 64.8184 26.5919 64.8102 26.0903C64.8021 25.6499 65.2302 25.3522 65.6788 25.3074Z" fill="#FAFAFA"/>
<path d="M41.8721 36.3217V37.3331C41.8721 37.8836 41.8313 38.3321 41.7498 38.6747C41.6682 39.0172 41.5214 39.2905 41.3175 39.4862C41.1095 39.686 40.8322 39.8165 40.4856 39.8899C40.1431 39.9592 39.197 39.9959 39.197 39.9959H3.34828C3.34828 39.9959 2.7733 39.9878 2.5327 39.9715C2.29211 39.9551 2.07598 39.9184 1.8884 39.8695C1.70081 39.8165 1.53362 39.7431 1.3909 39.6493C1.24817 39.5555 1.12175 39.4291 1.01165 39.2741C0.86077 39.0539 0.750667 38.7726 0.681342 38.4259C0.612018 38.0793 0.575317 37.643 0.575317 37.1169V35.759C0.575317 35.1432 0.62833 34.6417 0.738433 34.2543C0.848536 33.8709 1.01573 33.5733 1.24409 33.3653C1.47245 33.1573 1.75791 33.0187 2.10045 32.9453C2.44299 32.8759 3.31974 32.8392 3.31974 32.8392H39.2011C39.2011 32.8392 39.878 32.8596 40.1879 32.8922C40.5142 32.9289 40.8037 33.0268 41.0484 33.1899C41.293 33.353 41.4888 33.6018 41.6315 33.9403C41.7742 34.2787 41.8517 34.7477 41.8558 35.3553L41.8639 36.3258L41.8721 36.3217Z" fill="#FAFAFA"/>
<path d="M44.8123 33.1614H50.5458C52.1321 33.1614 52.9069 33.5936 52.9069 34.8659C52.9069 35.9792 52.5032 36.1953 51.9486 36.3544V36.3829C52.8172 36.4889 53.1434 36.9579 53.1434 37.9366C53.1434 39.3638 52.2993 39.6575 51.1615 39.6575H44.8163V33.1614H44.8123ZM46.8023 35.7386H50.3296C50.6966 35.7386 50.9128 35.604 50.9128 35.237C50.9128 34.87 50.6966 34.7273 50.3296 34.7273H46.8023V35.7427V35.7386ZM46.8023 38.0997H50.3745C50.8068 38.0997 51.0922 38.0018 51.0922 37.6226C51.0922 37.1822 50.8068 37.0843 50.3745 37.0843H46.8023V38.0997Z" fill="#FAFAFA"/>
<path d="M54.6237 33.1614H56.6137V39.6575H54.6237V33.1614Z" fill="#FAFAFA"/>
<path d="M58.3386 33.1614H60.3286V37.9896H64.8062V39.6575H58.3386V33.1614Z" fill="#FAFAFA"/>
<path d="M65.7767 35.4409C65.7767 33.5406 66.8451 33.092 68.6394 33.092H71.6367C73.8958 33.092 74.2098 33.9076 74.2098 35.1718V35.3797H72.2524C72.2524 34.7354 71.8854 34.6539 71.2493 34.6539H69.088C68.0848 34.6539 67.8238 34.8945 67.8238 36.0077V36.8152C67.8238 37.9284 68.0848 38.169 69.088 38.169H71.2126C71.7345 38.169 72.2524 38.0875 72.2524 37.4595V37.2719H69.7771V35.9262H74.2465V37.7735C74.2465 39.6411 73.276 39.7308 71.0331 39.7308H68.6394C66.8451 39.7308 65.7767 39.2823 65.7767 37.382V35.445V35.4409Z" fill="#FAFAFA"/>
<path d="M75.6248 33.1614H77.6148V37.9896H82.0923V39.6575H75.6248V33.1614Z" fill="#FAFAFA"/>
<path d="M86.5372 33.1614H89.1307L92.7029 39.6575H90.4846L89.8647 38.5075H85.8276L85.2445 39.6575H83.0179L86.5372 33.1614ZM86.5739 37.1088H89.1225L87.8299 34.6702L86.5739 37.1088Z" fill="#FAFAFA"/>
<path d="M93.3799 37.5328H95.3699C95.3781 38.222 95.6554 38.2791 96.2304 38.2791H98.673C99.0931 38.2791 99.5253 38.2342 99.5253 37.7326C99.5253 37.1658 99.2929 37.1332 96.7238 37.1332C93.7266 37.1332 93.3881 36.7743 93.3881 35.1758C93.3881 34.0014 93.4941 33.0961 96.0061 33.0961H98.7872C101.083 33.0961 101.299 33.8749 101.299 35.0168V35.2247H99.3092C99.3092 34.7476 99.2562 34.5519 98.3386 34.5519H96.1325C95.6839 34.5519 95.3781 34.7028 95.3781 35.0535C95.3781 35.6203 95.6187 35.6366 97.7555 35.6284C100.851 35.6203 101.568 35.8079 101.568 37.7C101.568 39.4494 100.977 39.7349 98.3305 39.7349H95.9164C94.1017 39.7349 93.3759 39.3923 93.3759 37.9855V37.5369L93.3799 37.5328Z" fill="#FAFAFA"/>
</g>
<defs>
<clipPath id="clip0_3423_26511">
<rect width="102.07" height="40" fill="white" transform="translate(0.46521)"/>
</clipPath>
</defs>
</svg>
