<svg width="80" height="31" viewBox="0 0 80 31" fill="none" xmlns="http://www.w3.org/2000/svg">
<path d="M65.6788 25.3074C69.1287 24.9567 72.3258 20.4791 72.3258 14.1258C72.3258 8.82862 70.0911 4.25323 67.3426 2.87898C66.5923 2.50382 65.8705 2.45488 63.7173 2.45488L55.4392 2.46304C53.8244 2.46304 52.8335 3.02579 52.389 3.89438L42.3737 24.5366C40.8485 27.9172 37.4965 29.2792 33.7408 30.0132C31.5346 30.4455 25.9561 31.4038 20.0758 29.3322C15.2027 27.6114 10.5335 22.4692 10.2766 19.3904C9.78319 15.0148 14.9172 12.3601 16.895 11.2468C18.8728 10.1335 20.1736 8.84901 20.1736 6.91609C20.1736 4.82822 18.0205 2.46304 13.6653 2.46304H1.71712C1.01165 2.46304 0.46521 1.96554 0.46521 1.26006C0.46521 0.554589 1.04427 0.0285415 1.74974 0.0285415L12.1117 0.0203857C20.1655 0.0203857 27.6647 1.17443 27.6688 7.35243C27.6688 14.5703 18.4772 15.235 18.3835 19.6921C18.2815 24.5856 24.0599 28.2434 28.3376 28.2434C32.6153 28.2434 34.4136 26.4818 36.4811 22.7628L44.955 4.67733C46.3007 1.59445 49.1022 0.0244636 51.973 0.0244636H66.9552C73.28 0.0244636 78.9156 4.02079 79.042 13.5549C79.1685 23.089 74.3769 26.2697 66.9593 26.804C66.5433 26.8325 66.1192 26.8488 65.6788 26.8407C65.2384 26.8366 64.8184 26.5919 64.8102 26.0903C64.8021 25.6499 65.2302 25.3522 65.6788 25.3074Z" fill="#FAFAFA"/>
</svg>
