<svg width="24" height="24" viewBox="0 0 24 24" fill="none" xmlns="http://www.w3.org/2000/svg">
<path fill-rule="evenodd" clip-rule="evenodd" d="M12 4.25H12.6894L11.4697 3.03033C11.1768 2.73744 11.1768 2.26256 11.4697 1.96967C11.7626 1.67678 12.2375 1.67678 12.5303 1.96967L14.6768 4.11612C15.1649 4.60427 15.1649 5.39573 14.6768 5.88388L12.5303 8.03033C12.2375 8.32322 11.7626 8.32322 11.4697 8.03033C11.1768 7.73744 11.1768 7.26256 11.4697 6.96967L12.6894 5.75H12C8.54822 5.75 5.75 8.54822 5.75 12C5.75 13.1396 6.05434 14.2059 6.58568 15.1245C6.79309 15.483 6.67057 15.9418 6.31202 16.1492C5.95347 16.3566 5.49468 16.2341 5.28727 15.8755C4.62742 14.7349 4.25 13.4104 4.25 12C4.25 7.71979 7.71979 4.25 12 4.25ZM18.25 12C18.25 15.4518 15.4518 18.25 12 18.25H11.3106L12.5303 17.0303C12.8232 16.7374 12.8232 16.2626 12.5303 15.9697C12.2374 15.6768 11.7625 15.6768 11.4697 15.9697L9.32321 18.1161C8.83505 18.6043 8.83505 19.3957 9.32321 19.8839L11.4697 22.0303C11.7625 22.3232 12.2374 22.3232 12.5303 22.0303C12.8232 21.7374 12.8232 21.2626 12.5303 20.9697L11.3106 19.75H12C16.2802 19.75 19.75 16.2802 19.75 12C19.75 10.5896 19.3726 9.26514 18.7127 8.12446C18.5053 7.76591 18.0465 7.64339 17.688 7.8508C17.3294 8.0582 17.2069 8.517 17.4143 8.87554C17.9457 9.79407 18.25 10.8604 18.25 12Z" fill="#121212"/>
</svg>
