<svg width="16" height="22" viewBox="0 0 16 22" fill="none" xmlns="http://www.w3.org/2000/svg">
<path fill-rule="evenodd" clip-rule="evenodd" d="M6.88879 0.75C5.37001 0.75 4.13879 1.98122 4.13879 3.5V4.20459H3C1.48122 4.20459 0.25 5.43581 0.25 6.95459V18.5C0.25 20.0188 1.48122 21.25 3 21.25H9.11111C10.6299 21.25 11.8611 20.0188 11.8611 18.5V17.7955H12.9999C14.5187 17.7955 15.7499 16.5642 15.7499 15.0455V3.5C15.7499 1.98122 14.5187 0.75 12.9999 0.75H6.88879ZM11.8611 16.2955H12.9999C13.6903 16.2955 14.2499 15.7358 14.2499 15.0455V3.5C14.2499 2.80964 13.6903 2.25 12.9999 2.25H6.88879C6.19844 2.25 5.63879 2.80964 5.63879 3.5V4.20459H9.11111C10.6299 4.20459 11.8611 5.43581 11.8611 6.95459V16.2955ZM1.75 6.95459C1.75 6.26424 2.30965 5.70459 3 5.70459H9.11111C9.80147 5.70459 10.3611 6.26423 10.3611 6.95459V18.5C10.3611 19.1904 9.80147 19.75 9.11111 19.75H3C2.30964 19.75 1.75 19.1904 1.75 18.5V6.95459Z" fill="#121212"/>
</svg>
