<svg width="20" height="20" viewBox="0 0 20 20" fill="none" xmlns="http://www.w3.org/2000/svg">
<path d="M8.65364 2.80566C9.25465 1.73145 10.7453 1.73145 11.3464 2.80565L12.8445 5.48341C13.0647 5.87691 13.4336 6.15595 13.8611 6.25232L16.7704 6.90817C17.9375 7.17127 18.3981 8.64718 17.6025 9.57417L15.6191 11.885C15.3277 12.2245 15.1868 12.676 15.2308 13.1291L15.5307 16.2122C15.651 17.449 14.445 18.3612 13.3522 17.8599L10.6283 16.6103C10.228 16.4266 9.772 16.4266 9.37171 16.6103L6.64775 17.8599C5.55501 18.3612 4.34901 17.449 4.4693 16.2122L4.76916 13.1291C4.81322 12.676 4.67231 12.2245 4.38085 11.885L2.3975 9.57418C1.60186 8.64718 2.06251 7.17127 3.22959 6.90817L6.13887 6.25232C6.56639 6.15595 6.93531 5.87691 7.15547 5.48341L8.65364 2.80566Z" fill="#121212"/>
</svg>
