<svg width="24" height="24" viewBox="0 0 24 24" fill="none" xmlns="http://www.w3.org/2000/svg">
<path fill-rule="evenodd" clip-rule="evenodd" d="M14.2451 2.86517C13.1176 1.37828 10.8824 1.37828 9.75492 2.86517L9.22553 3.56335C8.93786 3.94272 8.4679 4.13739 7.99624 4.07254L7.12821 3.95319C5.2796 3.69902 3.69902 5.2796 3.95319 7.12821L4.07254 7.99624C4.13739 8.4679 3.94272 8.93786 3.56335 9.22552L2.86517 9.75492C1.37828 10.8824 1.37828 13.1176 2.86517 14.2451L3.56335 14.7745C3.94272 15.0621 4.13739 15.5321 4.07254 16.0038L3.95319 16.8718C3.69902 18.7204 5.2796 20.301 7.12821 20.0468L7.99624 19.9275C8.4679 19.8626 8.93786 20.0573 9.22552 20.4366L9.75492 21.1348C10.8824 22.6217 13.1176 22.6217 14.2451 21.1348L14.7745 20.4366C15.0621 20.0573 15.5321 19.8626 16.0038 19.9275L16.8718 20.0468C18.7204 20.301 20.301 18.7204 20.0468 16.8718L19.9275 16.0038C19.8626 15.5321 20.0573 15.0621 20.4366 14.7745L21.1348 14.2451C22.6217 13.1176 22.6217 10.8824 21.1348 9.75492L20.4366 9.22553C20.0573 8.93786 19.8626 8.4679 19.9275 7.99624L20.0468 7.12821C20.301 5.2796 18.7204 3.69902 16.8718 3.95319L16.0038 4.07254C15.5321 4.13739 15.0621 3.94272 14.7745 3.56335L14.2451 2.86517ZM10.9502 3.77147C11.4774 3.07618 12.5226 3.07618 13.0498 3.77147L13.5792 4.46965C14.1944 5.28095 15.1994 5.69724 16.2081 5.55856L17.0761 5.43921C17.9405 5.32035 18.6796 6.05945 18.5608 6.92389L18.4414 7.79192C18.3028 8.80058 18.719 9.8056 19.5303 10.4208L20.2285 10.9502C20.9238 11.4774 20.9238 12.5226 20.2285 13.0498L19.5303 13.5792C18.719 14.1944 18.3028 15.1994 18.4414 16.2081L18.5608 17.0761C18.6796 17.9405 17.9405 18.6796 17.0761 18.5608L16.2081 18.4414C15.1994 18.3028 14.1944 18.719 13.5792 19.5303L13.0498 20.2285C12.5226 20.9238 11.4774 20.9238 10.9502 20.2285L10.4208 19.5303C9.8056 18.719 8.80058 18.3028 7.79192 18.4414L6.92389 18.5608C6.05945 18.6796 5.32035 17.9405 5.43921 17.0761L5.55856 16.2081C5.69724 15.1994 5.28095 14.1944 4.46965 13.5792L3.77147 13.0498C3.07618 12.5226 3.07618 11.4774 3.77147 10.9502L4.46965 10.4208C5.28095 9.8056 5.69724 8.80058 5.55856 7.79192L5.43921 6.92389C5.32035 6.05945 6.05945 5.32035 6.92389 5.43921L7.79192 5.55856C8.80059 5.69724 9.8056 5.28095 10.4208 4.46965L10.9502 3.77147ZM14 12C14 13.1046 13.1046 14 12 14C10.8954 14 10 13.1046 10 12C10 10.8954 10.8954 10 12 10C13.1046 10 14 10.8954 14 12ZM15.5 12C15.5 13.933 13.933 15.5 12 15.5C10.067 15.5 8.5 13.933 8.5 12C8.5 10.067 10.067 8.5 12 8.5C13.933 8.5 15.5 10.067 15.5 12Z" fill="#121212"/>
<path d="M22.7552 7.2552C21.0955 8.91493 18.4045 8.91493 16.7448 7.2552C15.0851 5.59547 15.0851 2.90452 16.7448 1.2448C18.4045 -0.414932 21.0955 -0.414932 22.7552 1.2448C24.4149 2.90452 24.4149 5.59547 22.7552 7.2552Z" fill="#FF513A"/>
</svg>
