<svg width="24" height="24" viewBox="0 0 24 24" fill="none" xmlns="http://www.w3.org/2000/svg">
<path d="M10.2051 4.00488C10.8545 2.35834 13.1846 2.35835 13.834 4.00488L15.0381 7.05664C15.3888 7.94592 16.0931 8.65025 16.9824 9.00098L20.0342 10.2051C21.6807 10.8545 21.6807 13.1846 20.0342 13.834L16.9824 15.0381C16.0931 15.3888 15.3888 16.0931 15.0381 16.9824L13.834 20.0342C13.1846 21.6807 10.8545 21.6807 10.2051 20.0342L9.00098 16.9824C8.65025 16.0931 7.94592 15.3888 7.05664 15.0381L4.00488 13.834C2.35834 13.1846 2.35835 10.8545 4.00488 10.2051L7.05664 9.00098C7.94592 8.65025 8.65025 7.94592 9.00098 7.05664L10.2051 4.00488Z" stroke="#121212" stroke-width="1.5"/>
</svg>
