<svg width="40" height="40" viewBox="0 0 40 40" fill="none" xmlns="http://www.w3.org/2000/svg">
<path fill-rule="evenodd" clip-rule="evenodd" d="M36 20C36 28.8366 28.8366 36 20 36C11.1635 36 4.00001 28.8366 4.00001 20C4.00001 11.1634 11.1635 4 20 4C28.8366 4 36 11.1634 36 20ZM20 17.75C20.6904 17.75 21.25 18.3096 21.25 19V27C21.25 27.6904 20.6904 28.25 20 28.25C19.3096 28.25 18.75 27.6904 18.75 27V19C18.75 18.3096 19.3096 17.75 20 17.75ZM20 15.5C20.9665 15.5 21.75 14.7165 21.75 13.75C21.75 12.7835 20.9665 12 20 12C19.0335 12 18.25 12.7835 18.25 13.75C18.25 14.7165 19.0335 15.5 20 15.5Z" fill="#51BFFB"/>
</svg>
