<svg width="24" height="24" viewBox="0 0 24 24" fill="none" xmlns="http://www.w3.org/2000/svg">
<path fill-rule="evenodd" clip-rule="evenodd" d="M13.6746 3.83285C14.8084 3.96818 15.8703 4.31011 16.5629 5.13666C17.2573 5.96521 17.6554 6.99419 17.8399 7.95755L19.9635 15.9812C20.1759 16.9597 19.4326 17.8404 18.477 17.7425H5.62904C4.56723 17.7425 3.82396 16.8619 4.03632 15.9812L6.15995 7.95755C6.34555 7.04531 6.74746 6.00019 7.44968 5.15126C8.13626 4.32124 9.19342 3.974 10.3245 3.8355C10.5464 3.19089 11.2349 2.75 12 2.75C12.7641 2.75 13.4518 3.18968 13.6746 3.83285ZM13.75 19.7167C13.75 20.5961 12.9318 21.25 12 21.25C11.0682 21.25 10.25 20.5961 10.25 19.7167C10.25 19.4263 10.511 19.25 10.7556 19.25H13.2444C13.489 19.25 13.75 19.4263 13.75 19.7167Z" fill="#121212"/>
</svg>
