<svg width="24" height="24" viewBox="0 0 24 24" fill="none" xmlns="http://www.w3.org/2000/svg">
<path fill-rule="evenodd" clip-rule="evenodd" d="M11.9989 2.25C12.4131 2.24995 12.7489 2.58569 12.749 2.99991L12.751 19.9999C12.7511 20.4141 12.4153 20.7499 12.0011 20.75C11.5869 20.75 11.2511 20.4143 11.251 20.0001L11.249 3.00009C11.2489 2.58588 11.5847 2.25005 11.9989 2.25Z" fill="#121212"/>
<path fill-rule="evenodd" clip-rule="evenodd" d="M21.5017 10.4425C21.1938 10.1654 20.7196 10.1904 20.4425 10.4983L14.4157 17.1948C13.7066 17.9826 13.2262 18.5138 12.8172 18.8579C12.4246 19.1882 12.1954 19.2603 12 19.2603C11.8046 19.2603 11.5754 19.1882 11.1828 18.8579C10.7738 18.5138 10.2934 17.9826 9.58429 17.1948L3.55746 10.4983C3.28037 10.1904 2.80615 10.1654 2.49827 10.4425C2.19039 10.7196 2.16543 11.1938 2.44252 11.5017L8.50626 18.2392C9.16893 18.9756 9.71862 19.5864 10.2172 20.0058C10.7414 20.4468 11.3047 20.7603 12 20.7603C12.6953 20.7603 13.2585 20.4468 13.7828 20.0058C14.2814 19.5864 14.8311 18.9756 15.4937 18.2392L21.5575 11.5017C21.8346 11.1938 21.8096 10.7196 21.5017 10.4425Z" fill="#121212"/>
</svg>
