<svg width="20" height="20" viewBox="0 0 20 20" fill="none" xmlns="http://www.w3.org/2000/svg">
<path fill-rule="evenodd" clip-rule="evenodd" d="M18 10C18 14.4183 14.4183 18 10 18C5.58172 18 2 14.4183 2 10C2 5.58172 5.58172 2 10 2C14.4183 2 18 5.58172 18 10ZM10 8.75C10.4142 8.75 10.75 9.08579 10.75 9.5V13.5C10.75 13.9142 10.4142 14.25 10 14.25C9.58579 14.25 9.25 13.9142 9.25 13.5V9.5C9.25 9.08579 9.58579 8.75 10 8.75ZM10 7.5C10.5523 7.5 11 7.05228 11 6.5C11 5.94772 10.5523 5.5 10 5.5C9.44771 5.5 9 5.94772 9 6.5C9 7.05228 9.44771 7.5 10 7.5Z" fill="#121212"/>
</svg>
