<svg width="24" height="24" viewBox="0 0 24 24" fill="none" xmlns="http://www.w3.org/2000/svg">
<path d="M16.2011 0C16.2523 0 16.3035 0 16.3576 0C16.4832 1.55149 15.891 2.71075 15.1713 3.55026C14.4651 4.38396 13.4981 5.19255 11.9341 5.06986C11.8297 3.5406 12.4229 2.46731 13.1416 1.62974C13.8082 0.849163 15.0303 0.154569 16.2011 0Z" fill="#121212"/>
<path d="M20.9358 16.1486C20.9358 16.164 20.9358 16.1776 20.9358 16.1921C20.4962 17.5233 19.8693 18.6642 19.1042 19.723C18.4057 20.6842 17.5498 21.9778 16.0215 21.9778C14.7009 21.9778 13.8237 21.1286 12.4702 21.1054C11.0386 21.0822 10.2512 21.8155 8.94221 22C8.79247 22 8.64274 22 8.49589 22C7.53467 21.8609 6.75892 21.0996 6.19378 20.4137C4.52733 18.3869 3.23958 15.7689 3 12.4186C3 12.0902 3 11.7627 3 11.4342C3.10144 9.03648 4.2665 7.08698 5.81509 6.14217C6.63237 5.63982 7.75589 5.21186 9.00694 5.40314C9.5431 5.48622 10.0909 5.66977 10.571 5.85139C11.026 6.02625 11.595 6.33635 12.1341 6.31993C12.4992 6.3093 12.8625 6.11899 13.2305 5.98471C14.3087 5.59539 15.3655 5.14907 16.7586 5.3587C18.4327 5.61181 19.621 6.35567 20.3552 7.50335C18.939 8.40468 17.8193 9.76295 18.0106 12.0825C18.1806 14.1894 19.4056 15.4221 20.9358 16.1486Z" fill="#121212"/>
</svg>
