<svg width="24" height="24" viewBox="0 0 24 24" fill="none" xmlns="http://www.w3.org/2000/svg">
<path fill-rule="evenodd" clip-rule="evenodd" d="M12.4979 21.7457C12.0837 21.7457 11.7479 21.4099 11.7479 20.9957L11.7479 4.00002C11.7479 3.5858 12.0836 3.25002 12.4979 3.25002C12.9121 3.25002 13.2479 3.5858 13.2479 4.00002L13.2479 20.9957C13.2479 21.4099 12.9121 21.7457 12.4979 21.7457Z" fill="#121212"/>
<path fill-rule="evenodd" clip-rule="evenodd" d="M22.0017 13.5575C21.6938 13.8346 21.2196 13.8096 20.9425 13.5017L14.9157 6.80525C14.2066 6.01737 13.7262 5.48617 13.3172 5.14207C12.9246 4.81182 12.6954 4.73969 12.5 4.73969C12.3046 4.73969 12.0754 4.81182 11.6828 5.14207C11.2738 5.48617 10.7934 6.01737 10.0843 6.80525L4.05746 13.5017C3.78037 13.8096 3.30615 13.8346 2.99827 13.5575C2.69039 13.2804 2.66543 12.8062 2.94252 12.4983L9.00626 5.76078C9.66893 5.02444 10.2186 4.41364 10.7172 3.99422C11.2414 3.55319 11.8047 3.23969 12.5 3.23969C13.1953 3.23969 13.7585 3.55319 14.2828 3.99422C14.7814 4.41364 15.3311 5.02443 15.9937 5.76077L22.0575 12.4983C22.3346 12.8062 22.3096 13.2804 22.0017 13.5575Z" fill="#121212"/>
</svg>
