<svg width="24" height="24" viewBox="0 0 24 24" fill="none" xmlns="http://www.w3.org/2000/svg">
<path fill-rule="evenodd" clip-rule="evenodd" d="M10.4612 2.26672C11.0454 2.05131 11.5074 1.88095 12 1.88095C12.4926 1.88095 12.9546 2.05131 13.5388 2.26672L17.4275 3.69683C18.0283 3.91775 18.5366 4.10464 18.936 4.30443C19.3607 4.51688 19.728 4.77449 20.0053 5.17188C20.2826 5.56927 20.3976 6.00297 20.4504 6.47488C20.5 6.91866 20.5 7.46021 20.5 8.10036V12C20.5 14.2349 19.4397 16.1602 18.1471 17.6803C16.852 19.2031 15.2714 20.3824 14.0996 21.1432L14.0167 21.1971C13.3584 21.6254 12.8171 21.9776 12 21.9776C11.1829 21.9776 10.6416 21.6254 9.98326 21.1971L9.90043 21.1432C8.72864 20.3824 7.14798 19.2031 5.85295 17.6803C4.56026 16.1602 3.5 14.2349 3.5 12V8.10031V8.10029C3.49998 7.46017 3.49996 6.91865 3.54963 6.47488C3.60245 6.00297 3.71745 5.56927 3.99472 5.17188C4.27198 4.77449 4.63934 4.51687 5.06402 4.30443C5.46339 4.10464 5.97167 3.91775 6.57248 3.69683L10.4612 2.26672ZM15.5303 10.3875C15.8232 10.0946 15.8232 9.61971 15.5303 9.32682C15.2374 9.03392 14.7626 9.03392 14.4697 9.32682L11.1768 12.6197C11.0791 12.7173 10.9209 12.7173 10.8232 12.6197L9.53033 11.3268C9.23744 11.0339 8.76256 11.0339 8.46967 11.3268C8.17678 11.6197 8.17678 12.0946 8.46967 12.3875L9.76256 13.6804C10.446 14.3638 11.554 14.3638 12.2374 13.6804L15.5303 10.3875Z" fill="black" fill-opacity="0.927"/>
</svg>
