<svg width="24" height="24" viewBox="0 0 24 24" fill="none" xmlns="http://www.w3.org/2000/svg">
<path fill-rule="evenodd" clip-rule="evenodd" d="M12.0002 1.25C12.4145 1.25 12.7502 1.58579 12.7502 2L12.7502 12C12.7502 12.4142 12.4145 12.75 12.0002 12.75C11.586 12.75 11.2502 12.4142 11.2502 12L11.2502 2C11.2502 1.58579 11.586 1.25 12.0002 1.25Z" fill="#121212"/>
<path fill-rule="evenodd" clip-rule="evenodd" d="M8.67188 3.60175C8.85622 3.97269 8.70495 4.42283 8.33402 4.60717C5.61572 5.95805 3.75024 8.76186 3.75024 12C3.75024 16.5564 7.44389 20.25 12.0002 20.25C16.5566 20.25 20.2502 16.5564 20.2502 12C20.2502 8.76186 18.3848 5.95805 15.6665 4.60717C15.2955 4.42283 15.1443 3.97269 15.3286 3.60175C15.5129 3.23082 15.9631 3.07956 16.334 3.26389C19.5426 4.85842 21.7502 8.17071 21.7502 12C21.7502 17.3848 17.385 21.75 12.0002 21.75C6.61547 21.75 2.25024 17.3848 2.25024 12C2.25024 8.17071 4.4579 4.85842 7.66647 3.26389C8.0374 3.07956 8.48754 3.23082 8.67188 3.60175Z" fill="#121212"/>
</svg>
