<svg width="16" height="16" viewBox="0 0 16 16" fill="none" xmlns="http://www.w3.org/2000/svg">
<path fill-rule="evenodd" clip-rule="evenodd" d="M8 2.5C6.91221 2.5 5.84884 2.82257 4.94437 3.42692C4.0399 4.03126 3.33495 4.89025 2.91867 5.89524C2.50238 6.90023 2.39347 8.0061 2.60568 9.073C2.8179 10.1399 3.34173 11.1199 4.11092 11.8891C4.8801 12.6583 5.86011 13.1821 6.92701 13.3943C7.9939 13.6065 9.09977 13.4976 10.1048 13.0813C11.1098 12.6651 11.9687 11.9601 12.5731 11.0556C13.1774 10.1512 13.5 9.0878 13.5 8C13.5 7.58579 13.8358 7.25 14.25 7.25C14.6642 7.25 15 7.58579 15 8C15 9.38447 14.5895 10.7378 13.8203 11.889C13.0511 13.0401 11.9579 13.9373 10.6788 14.4672C9.3997 14.997 7.99224 15.1356 6.63437 14.8655C5.2765 14.5954 4.02922 13.9287 3.05026 12.9497C2.07129 11.9708 1.4046 10.7235 1.13451 9.36563C0.86441 8.00777 1.00303 6.6003 1.53285 5.32122C2.06266 4.04213 2.95987 2.94888 4.11101 2.17971C5.26216 1.41054 6.61553 1 8 1C8.41422 1 8.75 1.33579 8.75 1.75C8.75 2.16421 8.41422 2.5 8 2.5Z" fill="#121212"/>
</svg>
