<svg width="40" height="40" viewBox="0 0 40 40" fill="none" xmlns="http://www.w3.org/2000/svg">
<circle cx="20" cy="20" r="16" fill="#0061FF"/>
<path fill-rule="evenodd" clip-rule="evenodd" d="M28.0046 15.1403L25.2495 16.577C25.2432 16.5226 25.2384 16.4666 25.232 16.4122C25.0621 14.9802 23.8871 13.8607 22.4325 13.7021C21.2019 13.5669 19.9522 13.5 18.7009 13.5H18.2515C17.0018 13.5 15.7505 13.5669 14.5214 13.7021C13.0669 13.8607 11.8918 14.9802 11.7203 16.4106C11.4266 18.8688 11.4266 21.3519 11.7203 23.81C11.8918 25.2405 13.0669 26.3615 14.5214 26.5201C15.7505 26.6538 17.0018 26.7222 18.2515 26.7222H18.7009C19.9506 26.7222 21.2019 26.6554 22.4309 26.5201C23.8855 26.3615 25.0605 25.2405 25.232 23.81C25.2384 23.7541 25.2432 23.6997 25.2495 23.6437L28.003 25.0803C28.2285 25.197 28.5 25.0383 28.5 24.788V15.4311C28.5 15.1823 28.2285 15.0222 28.0046 15.1403ZM22.6755 20.7999C22.5786 21.3394 22.053 21.7001 21.502 21.6037L19.5075 21.2586L18.9804 24.1879L17.9831 24.0153C17.4321 23.9204 17.0637 23.4058 17.1622 22.8663L17.5147 20.9134L14.523 20.3972L14.6993 19.4208C14.7962 18.8812 15.3218 18.5205 15.8728 18.6169L17.8672 18.9605L18.3944 16.0313L19.3916 16.2038C19.9426 16.2987 20.311 16.8133 20.2126 17.3529L19.8617 19.3057L22.8533 19.8219L22.6755 20.7999Z" fill="#FAFAFA"/>
</svg>
