<svg width="32" height="32" viewBox="0 0 32 32" fill="none" xmlns="http://www.w3.org/2000/svg">
<path d="M32 16C32 24.8366 24.8366 32 16 32C7.16344 32 0 24.8366 0 16C0 7.16344 7.16344 0 16 0C24.8366 0 32 7.16344 32 16Z" fill="#0061FF"/>
<path fill-rule="evenodd" clip-rule="evenodd" d="M24.4754 10.7368L21.5583 12.258C21.5516 12.2004 21.5465 12.1411 21.5398 12.0835C21.3599 10.5673 20.1157 9.38194 18.5756 9.21402C17.2726 9.07079 15.9494 9 14.6244 9H14.1486C12.8254 9 11.5005 9.07079 10.1992 9.21402C8.65906 9.38194 7.41487 10.5673 7.23329 12.0818C6.92224 14.6846 6.92224 17.3137 7.23329 19.9165C7.41487 21.4311 8.65906 22.6181 10.1992 22.786C11.5005 22.9275 12.8254 23 14.1486 23H14.6244C15.9477 23 17.2726 22.9292 18.5739 22.786C20.114 22.6181 21.3582 21.4311 21.5398 19.9165C21.5465 19.8573 21.5516 19.7996 21.5583 19.7404L24.4737 21.2615C24.7125 21.385 25 21.2171 25 20.952V11.0447C25 10.7813 24.7125 10.6117 24.4754 10.7368ZM18.8328 16.7293C18.7303 17.3006 18.1738 17.6825 17.5904 17.5804L15.4786 17.2149L14.9204 20.3166L13.8645 20.1338C13.2811 20.0334 12.891 19.4885 12.9953 18.9172L13.3685 16.8495L10.2008 16.3029L10.3875 15.2691C10.49 14.6978 11.0466 14.3158 11.63 14.4179L13.7418 14.7817L14.3 11.6802L15.3559 11.8629C15.9393 11.9633 16.3293 12.5082 16.2251 13.0795L15.8535 15.1472L19.0212 15.6938L18.8328 16.7293Z" fill="#FAFAFA"/>
</svg>
