<svg width="20" height="18" viewBox="0 0 20 18" fill="none" xmlns="http://www.w3.org/2000/svg">
<path fill-rule="evenodd" clip-rule="evenodd" d="M9.6701 0.506132C9.94287 0.817859 9.91128 1.29168 9.59955 1.56444L3.89704 6.55414C3.07897 7.26995 2.52647 7.75572 2.16848 8.17036C2.1449 8.19767 2.12258 8.22421 2.10147 8.25001L19 8.25001C19.4142 8.25001 19.75 8.58579 19.75 9.00001C19.75 9.41422 19.4142 9.75001 19 9.75001L2.10147 9.75001C2.12258 9.77581 2.1449 9.80235 2.16848 9.82966C2.52647 10.2443 3.07897 10.7301 3.89704 11.4459L9.59955 16.4356C9.91128 16.7083 9.94287 17.1822 9.6701 17.4939C9.39734 17.8056 8.92352 17.8372 8.61179 17.5644L2.86716 12.5379C2.10199 11.8684 1.46821 11.3139 1.0331 10.8099C0.57612 10.2806 0.25 9.70927 0.25 9.00001C0.25 8.29075 0.576119 7.71938 1.0331 7.19009C1.4682 6.68614 2.10198 6.13163 2.86713 5.46215L8.61179 0.435578C8.92352 0.162816 9.39734 0.194404 9.6701 0.506132Z" fill="#121212"/>
</svg>
