<svg width="24" height="24" viewBox="0 0 24 24" fill="none" xmlns="http://www.w3.org/2000/svg">
<path fill-rule="evenodd" clip-rule="evenodd" d="M3.75 12C3.75 7.44365 7.44365 3.75 12 3.75C16.5563 3.75 20.25 7.44365 20.25 12C20.25 16.5563 16.5563 20.25 12 20.25C7.44365 20.25 3.75 16.5563 3.75 12ZM12 2.25C6.61522 2.25 2.25 6.61522 2.25 12C2.25 17.3848 6.61522 21.75 12 21.75C17.3848 21.75 21.75 17.3848 21.75 12C21.75 6.61522 17.3848 2.25 12 2.25ZM6 12C6 11.0572 6 10.5858 6.29289 10.2929C6.58579 10 7.05719 10 8 10H16C16.9428 10 17.4142 10 17.7071 10.2929C18 10.5858 18 11.0572 18 12C18 12.9428 18 13.4142 17.7071 13.7071C17.4142 14 16.9428 14 16 14H8C7.05719 14 6.58579 14 6.29289 13.7071C6 13.4142 6 12.9428 6 12Z" fill="#121212"/>
</svg>
