<svg width="24" height="24" viewBox="0 0 24 24" fill="none" xmlns="http://www.w3.org/2000/svg">
<path fill-rule="evenodd" clip-rule="evenodd" d="M12 3C13.3807 3 14.5 4.11929 14.5 5.5V11.5C14.5 12.8807 13.3807 14 12 14C10.6193 14 9.5 12.8807 9.5 11.5V5.5C9.5 4.11929 10.6193 3 12 3ZM6 10.75C6.41421 10.75 6.75 11.0858 6.75 11.5C6.75 14.3995 9.10051 16.75 12 16.75C14.8995 16.75 17.25 14.3995 17.25 11.5C17.25 11.0858 17.5858 10.75 18 10.75C18.4142 10.75 18.75 11.0858 18.75 11.5C18.75 14.9744 16.125 17.8357 12.75 18.2088V20.5C12.75 20.9142 12.4142 21.25 12 21.25C11.5858 21.25 11.25 20.9142 11.25 20.5V18.2088C7.87504 17.8357 5.25 14.9744 5.25 11.5C5.25 11.0858 5.58579 10.75 6 10.75Z" fill="#121212"/>
</svg>
