<svg width="24" height="24" viewBox="0 0 24 24" fill="none" xmlns="http://www.w3.org/2000/svg">
<path fill-rule="evenodd" clip-rule="evenodd" d="M12 3.75C7.44365 3.75 3.75 7.44365 3.75 12C3.75 16.5563 7.44365 20.25 12 20.25C16.5563 20.25 20.25 16.5563 20.25 12C20.25 7.44365 16.5563 3.75 12 3.75ZM2.25 12C2.25 6.61522 6.61522 2.25 12 2.25C17.3848 2.25 21.75 6.61522 21.75 12C21.75 17.3848 17.3848 21.75 12 21.75C6.61522 21.75 2.25 17.3848 2.25 12Z" fill="#121212"/>
<path fill-rule="evenodd" clip-rule="evenodd" d="M11.9818 2.25L12.016 2.25C12.3113 2.24997 12.5446 2.24994 12.9054 2.34998C13.0898 2.40111 13.4011 2.53323 13.566 2.63033C13.8886 2.82029 14.0497 2.98702 14.2538 3.1984L14.2644 3.20933C16.2474 5.26204 17.5326 8.34194 17.7188 11.25H21V12.75H17.7155C17.5259 15.5375 16.3402 18.5433 14.5083 20.6183L14.489 20.6402C14.2131 20.9527 13.9922 21.2031 13.5383 21.4394C13.4669 21.4765 13.3321 21.5373 13.257 21.5663C12.7794 21.7502 12.4457 21.7501 12.0291 21.75H11.9688C11.532 21.7501 11.1816 21.7502 10.686 21.5502C10.6312 21.5281 10.5317 21.4831 10.479 21.4565C10.0015 21.2163 9.77002 20.9527 9.48149 20.6243C9.47461 20.6164 9.4677 20.6086 9.46076 20.6007C7.63776 18.5264 6.45811 15.5298 6.26904 12.75H3V11.25H6.26569C6.45141 8.34948 7.7304 5.27828 9.70434 3.22573L9.71645 3.21314C9.93331 2.98759 10.1049 2.80911 10.4481 2.61283C10.5961 2.52818 10.8755 2.40926 11.0391 2.36125C11.4185 2.24993 11.6675 2.24996 11.9818 2.25ZM7.77293 12.75C7.96184 15.1832 9.01154 17.8174 10.5875 19.6104C10.8826 19.9462 10.9483 20.0135 11.1532 20.1166C11.1538 20.1169 11.1584 20.1191 11.1677 20.1235L11.2 20.1384L11.2326 20.1529C11.2385 20.1554 11.2425 20.1571 11.2448 20.1581C11.2466 20.1589 11.2474 20.1592 11.2473 20.1592C11.2482 20.1595 11.2491 20.1599 11.25 20.1603V12.75H7.77293ZM11.25 11.25H7.76915C7.95482 8.71625 9.08995 6.02856 10.7855 4.26549C10.9976 4.04492 11.0435 4.00033 11.1928 3.91492C11.1919 3.91544 11.1951 3.91359 11.2035 3.90929C11.2115 3.90521 11.222 3.90003 11.235 3.8939C11.2398 3.8916 11.2448 3.88925 11.25 3.88684V11.25ZM12.75 12.75V20.1529C12.76 20.1485 12.7709 20.1437 12.7822 20.1386C12.7982 20.1314 12.8134 20.1244 12.826 20.1184C12.8385 20.1124 12.8447 20.1093 12.8456 20.1089C13.0408 20.0073 13.1032 19.9434 13.3838 19.6255C14.967 17.8323 16.0222 15.1902 16.2116 12.75H12.75ZM16.2154 11.25H12.75V3.89527C12.7526 3.89649 12.7551 3.8977 12.7576 3.89889C12.772 3.90578 12.7837 3.91163 12.7926 3.91628C12.8012 3.92073 12.805 3.92294 12.805 3.92294C12.9459 4.00588 12.9881 4.04713 13.1856 4.25153C14.8884 6.01421 16.0292 8.70936 16.2154 11.25Z" fill="#121212"/>
<path fill-rule="evenodd" clip-rule="evenodd" d="M19.9168 16.75H4.0019V15.25H19.9168V16.75Z" fill="#121212"/>
<path fill-rule="evenodd" clip-rule="evenodd" d="M19.9168 8.75H4.0019V7.25H19.9168V8.75Z" fill="#121212"/>
</svg>
