<svg width="24" height="24" viewBox="0 0 24 24" fill="none" xmlns="http://www.w3.org/2000/svg">
<path fill-rule="evenodd" clip-rule="evenodd" d="M7.5 3.75C6.80964 3.75 6.25 4.30964 6.25 5V18.3159C6.25 19.3076 7.34933 19.9044 8.18092 19.3642L10.502 17.8565C11.413 17.2647 12.587 17.2647 13.498 17.8565L15.8191 19.3642C16.6507 19.9044 17.75 19.3076 17.75 18.3159V5C17.75 4.30964 17.1904 3.75 16.5 3.75H7.5ZM4.75 5C4.75 3.48122 5.98122 2.25 7.5 2.25H16.5C18.0188 2.25 19.25 3.48122 19.25 5V18.3159C19.25 20.4975 16.8315 21.8105 15.002 20.6221L12.6809 19.1144C12.2668 18.8454 11.7332 18.8454 11.3191 19.1144L8.99802 20.6221C7.16853 21.8105 4.75 20.4975 4.75 18.3159V5Z" fill="#121212"/>
</svg>
