<svg width="24" height="24" viewBox="0 0 24 24" fill="none" xmlns="http://www.w3.org/2000/svg">
<path fill-rule="evenodd" clip-rule="evenodd" d="M6.948 21.75L17.052 21.75C17.9505 21.75 18.6997 21.7501 19.2945 21.6701C19.9223 21.5857 20.4891 21.4 20.9445 20.9445C21.4 20.4891 21.5857 19.9223 21.6701 19.2945C21.7501 18.6997 21.75 17.9505 21.75 17.052L21.75 10.301C21.75 9.8153 21.75 9.4013 21.7183 9.05583C21.6846 8.68759 21.6115 8.34498 21.4363 8.01038C21.2611 7.67579 21.0212 7.42051 20.7378 7.18297C20.4719 6.96011 20.1316 6.72425 19.7325 6.44756L14.6729 2.9403C14.1501 2.57784 13.7077 2.27115 13.317 2.06014C12.9014 1.83575 12.4819 1.68354 12 1.68354C11.5181 1.68354 11.0986 1.83575 10.683 2.06014C10.2923 2.27114 9.84992 2.57783 9.3271 2.94028L4.26752 6.44759C3.86836 6.72426 3.5281 6.96011 3.26223 7.18297C2.97883 7.42051 2.73891 7.67579 2.56372 8.01038C2.38854 8.34498 2.31543 8.6876 2.28166 9.05583C2.24997 9.4013 2.24999 9.81531 2.25 10.301L2.25 17.052C2.24997 17.9505 2.24995 18.6997 2.32991 19.2945C2.41432 19.9223 2.59999 20.4891 3.05546 20.9445C3.51093 21.4 4.07773 21.5857 4.70552 21.6701C5.3003 21.7501 6.04952 21.75 6.948 21.75ZM4.90539 20.1835C4.44393 20.1214 4.24644 20.0142 4.11612 19.8839C3.9858 19.7536 3.87858 19.5561 3.81654 19.0946C3.7516 18.6116 3.75 17.964 3.75 17L3.75 10.3331C3.75 9.8066 3.75073 9.46173 3.77539 9.19283C3.79866 8.93911 3.83962 8.80733 3.8926 8.70614C3.94558 8.60495 4.03054 8.49621 4.22581 8.33254C4.43275 8.15908 4.71578 7.962 5.14846 7.66207L10.1485 4.19607C10.7134 3.80445 11.0873 3.5466 11.3958 3.38C11.6877 3.22235 11.8565 3.18354 12 3.18354C12.1435 3.18354 12.3123 3.22235 12.6042 3.38C12.9127 3.5466 13.2866 3.80445 13.8515 4.19607L18.8515 7.66207C19.2842 7.96201 19.5673 8.15908 19.7742 8.33254C19.9695 8.49621 20.0544 8.60495 20.1074 8.70614C20.1604 8.80733 20.2013 8.93911 20.2246 9.19283C20.2493 9.46173 20.25 9.8066 20.25 10.3331L20.25 17C20.25 17.964 20.2484 18.6116 20.1835 19.0946C20.1214 19.5561 20.0142 19.7536 19.8839 19.8839C19.7536 20.0142 19.5561 20.1214 19.0946 20.1835C18.6116 20.2484 17.964 20.25 17 20.25L7 20.25C6.03599 20.25 5.38843 20.2484 4.90539 20.1835Z" fill="#121212"/>
<path fill-rule="evenodd" clip-rule="evenodd" d="M11.9553 14.25C11.9701 14.25 11.985 14.25 12 14.25C12.015 14.25 12.0299 14.25 12.0448 14.25C12.4776 14.25 12.8744 14.2499 13.1972 14.2933C13.5527 14.3411 13.9284 14.4535 14.2374 14.7626C14.5465 15.0716 14.6589 15.4473 14.7067 15.8028C14.7501 16.1256 14.7501 16.5224 14.75 16.9553C14.75 16.9701 14.75 16.9851 14.75 17V21C14.75 21.4142 14.4142 21.75 14 21.75C13.5858 21.75 13.25 21.4142 13.25 21V17C13.25 16.5074 13.2484 16.2134 13.2201 16.0027C13.2071 15.9061 13.1918 15.8578 13.1828 15.836C13.1808 15.8309 13.1792 15.8276 13.1781 15.8257L13.1768 15.8232L13.1743 15.8219C13.1724 15.8209 13.1691 15.8192 13.164 15.8172C13.1423 15.8082 13.0939 15.7929 12.9973 15.7799C12.7866 15.7516 12.4926 15.75 12 15.75C11.5074 15.75 11.2134 15.7516 11.0027 15.7799C10.9061 15.7929 10.8578 15.8082 10.836 15.8172C10.8309 15.8192 10.8276 15.8209 10.8257 15.8219L10.8232 15.8232L10.8219 15.8257C10.8209 15.8276 10.8192 15.8309 10.8172 15.836C10.8082 15.8578 10.7929 15.9061 10.7799 16.0027C10.7516 16.2134 10.75 16.5074 10.75 17V21C10.75 21.4142 10.4142 21.75 10 21.75C9.58579 21.75 9.25001 21.4142 9.25001 21V17C9.25001 16.985 9.25001 16.9701 9.25 16.9553C9.24995 16.5224 9.24991 16.1256 9.29331 15.8028C9.3411 15.4473 9.45355 15.0716 9.76257 14.7626C10.0716 14.4535 10.4473 14.3411 10.8028 14.2933C11.1256 14.2499 11.5224 14.25 11.9553 14.25Z" fill="#121212"/>
</svg>
