<svg width="16" height="16" viewBox="0 0 16 16" fill="none" xmlns="http://www.w3.org/2000/svg">
<path d="M3 3C3 2.44772 3.44772 2 4 2C4.55228 2 5 2.44772 5 3V13C5 13.5523 4.55228 14 4 14C3.44772 14 3 13.5523 3 13V3Z" fill="#121212"/>
<path d="M7 9C7 8.44772 7.44772 8 8 8C8.55228 8 9 8.44772 9 9V13C9 13.5523 8.55228 14 8 14C7.44772 14 7 13.5523 7 13V9Z" fill="#121212"/>
<path d="M12 4C11.4477 4 11 4.44772 11 5V13C11 13.5523 11.4477 14 12 14C12.5523 14 13 13.5523 13 13V5C13 4.44772 12.5523 4 12 4Z" fill="#121212"/>
</svg>
