<svg width="24" height="24" viewBox="0 0 24 24" fill="none" xmlns="http://www.w3.org/2000/svg">
<path fill-rule="evenodd" clip-rule="evenodd" d="M17.0633 8.79487C18.811 8.79487 20.2278 10.2299 20.2278 12C20.2278 13.7701 18.811 15.2051 17.0633 15.2051C16.1296 15.2051 15.2911 14.7967 14.7107 14.1437L10.6815 8.74517C10.668 8.72706 10.6538 8.70949 10.639 8.69247C9.73572 7.65593 8.4113 7 6.93671 7C4.21024 7 2 9.23858 2 12C2 14.7614 4.21024 17 6.93671 17C8.11426 17 9.19766 16.5813 10.0462 15.8837C10.4261 15.5713 10.4841 15.0061 10.1757 14.6213C9.8673 14.2365 9.30927 14.1778 8.92932 14.4901C8.38503 14.9376 7.69291 15.2051 6.93671 15.2051C5.18897 15.2051 3.77215 13.7701 3.77215 12C3.77215 10.2299 5.18897 8.79487 6.93671 8.79487C7.87043 8.79487 8.70888 9.20334 9.28935 9.85633L13.3185 15.2548C13.332 15.2729 13.3462 15.2905 13.361 15.3075C14.2643 16.3441 15.5887 17 17.0633 17C19.7898 17 22 14.7614 22 12C22 9.23858 19.7898 7 17.0633 7C15.8566 7 14.749 7.43964 13.8915 8.16838C13.5167 8.48698 13.4678 9.05304 13.7823 9.43272C14.0969 9.8124 14.6558 9.86191 15.0307 9.54332C15.5809 9.07569 16.2886 8.79487 17.0633 8.79487Z" fill="black" fill-opacity="0.927"/>
</svg>
