<svg width="10" height="7" viewBox="0 0 10 7" fill="none" xmlns="http://www.w3.org/2000/svg">
<path fill-rule="evenodd" clip-rule="evenodd" d="M9.0345 0.750023C9.105 0.750023 9.1775 0.750023 9.25 0.749023V3.00002C9.25 4.88552 9.25 5.82852 8.664 6.41402C8.0785 7.00002 7.1355 7.00002 5.25 7.00002H4.75C2.8645 7.00002 1.9215 7.00002 1.336 6.41402C0.75 5.82852 0.75 4.88552 0.75 3.00002V0.749023C0.8225 0.750023 0.895 0.750023 0.9655 0.750023H9.0345ZM3.5 2.50002C3.5 2.26702 3.5 2.15052 3.538 2.05852C3.58875 1.93606 3.68604 1.83877 3.8085 1.78802C3.9005 1.75002 4.017 1.75002 4.25 1.75002H5.75C5.983 1.75002 6.0995 1.75002 6.1915 1.78802C6.31377 1.83888 6.41087 1.93616 6.4615 2.05852C6.5 2.15052 6.5 2.26702 6.5 2.50002C6.5 2.73302 6.5 2.84952 6.462 2.94152C6.41115 3.06379 6.31386 3.1609 6.1915 3.21152C6.0995 3.25002 5.983 3.25002 5.75 3.25002H4.25C4.017 3.25002 3.9005 3.25002 3.8085 3.21202C3.68623 3.16117 3.58913 3.06389 3.5385 2.94152C3.5 2.84952 3.5 2.73302 3.5 2.50002Z" fill="#707070"/>
</svg>
