<svg width="24" height="24" viewBox="0 0 24 24" fill="none" xmlns="http://www.w3.org/2000/svg">
<path fill-rule="evenodd" clip-rule="evenodd" d="M11.9697 7.53018L9.75 5.31051V12.9999C9.75 13.4141 9.41421 13.7499 9 13.7499C8.58579 13.7499 8.25 13.4141 8.25 12.9999V5.31051L6.03033 7.53018C5.73744 7.82307 5.26256 7.82307 4.96967 7.53018C4.67678 7.23729 4.67678 6.76241 4.96967 6.46952L7.76256 3.67663C8.44598 2.99321 9.55402 2.99321 10.2374 3.67663L13.0303 6.46952C13.3232 6.76241 13.3232 7.23729 13.0303 7.53018C12.7374 7.82307 12.2626 7.82307 11.9697 7.53018ZM15.75 18.6892L17.9697 16.4696C18.2626 16.1767 18.7374 16.1767 19.0303 16.4696C19.3232 16.7625 19.3232 17.2373 19.0303 17.5302L16.2374 20.3231C15.554 21.0065 14.446 21.0065 13.7626 20.3231L10.9697 17.5302C10.6768 17.2373 10.6768 16.7625 10.9697 16.4696C11.2626 16.1767 11.7374 16.1767 12.0303 16.4696L14.25 18.6892L14.25 10.9999C14.25 10.5857 14.5858 10.2499 15 10.2499C15.4142 10.2499 15.75 10.5857 15.75 10.9999L15.75 18.6892Z" fill="#121212"/>
</svg>
