<svg width="24" height="24" viewBox="0 0 24 24" fill="none" xmlns="http://www.w3.org/2000/svg">
<path fill-rule="evenodd" clip-rule="evenodd" d="M7.5 3.75C6.80964 3.75 6.25 4.30964 6.25 5V19C6.25 19.6904 6.80964 20.25 7.5 20.25H16.5C17.1904 20.25 17.75 19.6904 17.75 19V5C17.75 4.30964 17.1904 3.75 16.5 3.75H7.5ZM4.75 5C4.75 3.48122 5.98122 2.25 7.5 2.25H16.5C18.0188 2.25 19.25 3.48122 19.25 5V19C19.25 20.5188 18.0188 21.75 16.5 21.75H7.5C5.98122 21.75 4.75 20.5188 4.75 19V5ZM15.75 10.5C15.75 10.0858 15.4142 9.75 15 9.75H9C8.58579 9.75 8.25 10.0858 8.25 10.5C8.25 10.9142 8.58579 11.25 9 11.25H15C15.4142 11.25 15.75 10.9142 15.75 10.5ZM15 7.25C15.4142 7.25 15.75 7.58579 15.75 8C15.75 8.41421 15.4142 8.75 15 8.75H9C8.58579 8.75 8.25 8.41421 8.25 8C8.25 7.58579 8.58579 7.25 9 7.25H15ZM15.75 13C15.75 12.5858 15.4142 12.25 15 12.25H9C8.58579 12.25 8.25 12.5858 8.25 13C8.25 13.4142 8.58579 13.75 9 13.75H15C15.4142 13.75 15.75 13.4142 15.75 13ZM11.5 14.75C11.9142 14.75 12.25 15.0858 12.25 15.5C12.25 15.9142 11.9142 16.25 11.5 16.25H9C8.58579 16.25 8.25 15.9142 8.25 15.5C8.25 15.0858 8.58579 14.75 9 14.75H11.5Z" fill="#121212"/>
</svg>
