<svg width="16" height="20" viewBox="0 0 16 20" fill="none" xmlns="http://www.w3.org/2000/svg">
<path fill-rule="evenodd" clip-rule="evenodd" d="M3.5 1.75C2.80964 1.75 2.25 2.30964 2.25 3V17C2.25 17.6904 2.80964 18.25 3.5 18.25H12.5C13.1904 18.25 13.75 17.6904 13.75 17V3C13.75 2.30964 13.1904 1.75 12.5 1.75H3.5ZM0.75 3C0.75 1.48122 1.98122 0.25 3.5 0.25H12.5C14.0188 0.25 15.25 1.48122 15.25 3V17C15.25 18.5188 14.0188 19.75 12.5 19.75H3.5C1.98122 19.75 0.75 18.5188 0.75 17V3ZM11.75 8.5C11.75 8.08579 11.4142 7.75 11 7.75H5C4.58579 7.75 4.25 8.08579 4.25 8.5C4.25 8.91421 4.58579 9.25 5 9.25H11C11.4142 9.25 11.75 8.91421 11.75 8.5ZM11 5.25C11.4142 5.25 11.75 5.58579 11.75 6C11.75 6.41421 11.4142 6.75 11 6.75H5C4.58579 6.75 4.25 6.41421 4.25 6C4.25 5.58579 4.58579 5.25 5 5.25H11ZM11.75 11C11.75 10.5858 11.4142 10.25 11 10.25H5C4.58579 10.25 4.25 10.5858 4.25 11C4.25 11.4142 4.58579 11.75 5 11.75H11C11.4142 11.75 11.75 11.4142 11.75 11ZM7.5 12.75C7.91421 12.75 8.25 13.0858 8.25 13.5C8.25 13.9142 7.91421 14.25 7.5 14.25H5C4.58579 14.25 4.25 13.9142 4.25 13.5C4.25 13.0858 4.58579 12.75 5 12.75H7.5Z" fill="#121212"/>
</svg>
