<svg width="24" height="24" viewBox="0 0 24 24" fill="none" xmlns="http://www.w3.org/2000/svg">
<path d="M10.3171 3.00707C11.0683 1.66431 12.9317 1.66431 13.6829 3.00707L15.5557 6.35426C15.8309 6.84614 16.292 7.19493 16.8264 7.31541L20.463 8.13521C21.9219 8.46408 22.4977 10.309 21.5031 11.4677L19.0239 14.3562C18.6596 14.7807 18.4835 15.345 18.5385 15.9114L18.9134 19.7652C19.0637 21.3112 17.5562 22.4515 16.1903 21.8248L12.7854 20.2628C12.285 20.0333 11.715 20.0333 11.2146 20.2628L7.80969 21.8248C6.44377 22.4514 4.93627 21.3112 5.08663 19.7652L5.46145 15.9114C5.51653 15.345 5.34039 14.7807 4.97607 14.3562L2.49688 11.4677C1.50233 10.309 2.07814 8.46409 3.53699 8.13521L7.17358 7.31541C7.70799 7.19493 8.16914 6.84614 8.44434 6.35427L10.3171 3.00707Z" fill="#121212"/>
</svg>
