<svg width="24" height="24" viewBox="0 0 24 24" fill="none" xmlns="http://www.w3.org/2000/svg">
<path fill-rule="evenodd" clip-rule="evenodd" d="M13.5575 2.49828C13.8346 2.80617 13.8096 3.28038 13.5017 3.55748L6.80525 9.5843C6.01737 10.2934 5.48617 10.7738 5.14207 11.1828C4.81182 11.5754 4.73969 11.8046 4.73969 12C4.73969 12.1954 4.81182 12.4246 5.14207 12.8172C5.48617 13.2262 6.01737 13.7066 6.80525 14.4157L13.5017 20.4425C13.8096 20.7196 13.8346 21.1938 13.5575 21.5017C13.2804 21.8096 12.8062 21.8346 12.4983 21.5575L5.76078 15.4937C5.02444 14.8311 4.41364 14.2814 3.99422 13.7828C3.55319 13.2586 3.23969 12.6953 3.23969 12C3.23969 11.3047 3.55319 10.7415 3.99422 10.2172C4.41363 9.71863 5.02443 9.16895 5.76077 8.50628L12.4983 2.44254C12.8062 2.16544 13.2804 2.1904 13.5575 2.49828Z" fill="#121212"/>
<path fill-rule="evenodd" clip-rule="evenodd" d="M21 12.75L4 12.75V11.25L21 11.25C21.4142 11.25 21.75 11.5858 21.75 12C21.75 12.4142 21.4142 12.75 21 12.75Z" fill="#121212"/>
</svg>
