<svg width="20" height="20" viewBox="0 0 20 20" fill="none" xmlns="http://www.w3.org/2000/svg">
<path d="M7.99023 3.36779C8.70949 1.54407 11.2905 1.54407 12.0098 3.36779L12.9729 5.80993C13.1925 6.36672 13.6333 6.80747 14.1901 7.02706L16.6322 7.99023C18.4559 8.70949 18.4559 11.2905 16.6322 12.0098L14.1901 12.9729C13.6333 13.1925 13.1925 13.6333 12.9729 14.1901L12.0098 16.6322C11.2905 18.4559 8.70949 18.4559 7.99023 16.6322L7.02706 14.1901C6.80747 13.6333 6.36672 13.1925 5.80993 12.9729L3.36779 12.0098C1.54407 11.2905 1.54407 8.70949 3.36779 7.99023L5.80993 7.02706C6.36672 6.80747 6.80747 6.36672 7.02706 5.80993L7.99023 3.36779Z" fill="#121212"/>
</svg>
