<svg width="151" height="40" viewBox="0 0 151 40" fill="none" xmlns="http://www.w3.org/2000/svg">
<mask id="mask0_3289_7126" style="mask-type:luminance" maskUnits="userSpaceOnUse" x="0" y="-1" width="151" height="41">
<path d="M0.299927 39.9999H150.7V-0.00012207H0.299927V39.9999Z" fill="white"/>
</mask>
<g mask="url(#mask0_3289_7126)">
<path fill-rule="evenodd" clip-rule="evenodd" d="M16.2002 39.69C15.7704 39.4755 15.508 39.4281 15.1023 39.4281C14.8391 39.4281 14.4809 39.4514 14.051 39.4755C13.9319 39.4755 13.8128 39.4996 13.6696 39.4996L13.0481 39.5703L12.4517 39.6426L11.807 39.7132C11.0189 39.8088 10.2076 39.8562 9.44375 39.8562C3.80935 39.8562 0.299927 36.9028 0.299927 32.1856C0.299927 27.1582 4.12007 24.0851 10.3267 24.0851C11.4971 24.0851 13.3588 24.2763 15.3405 24.5623C15.6271 24.6097 15.9611 24.657 16.0802 24.657C16.3668 24.657 16.4868 24.6329 16.8683 24.5141L15.4122 28.3261C14.1943 27.2779 12.5475 26.7775 10.3267 26.7775C6.79399 26.7775 4.5732 28.8498 4.5732 32.1856C4.5732 35.3775 6.53074 37.1647 10.0169 37.1647C12.0702 37.1647 14.0036 36.6401 16.1286 35.4964L16.2002 39.69Z" fill="white"/>
<path fill-rule="evenodd" clip-rule="evenodd" d="M27.8739 36.5454H23.1708L22.9317 36.9976C22.7177 37.4033 22.5977 37.8081 22.5977 38.237C22.5977 38.8322 22.7885 39.1422 23.3141 39.6659H17.2257C17.8705 38.9037 18.0137 38.6659 18.5152 37.7366L24.8902 25.086C25.0326 24.8242 25.0567 24.7527 25.0567 24.6097C25.0567 24.515 25.0093 24.4193 24.9135 24.2764H27.8739V26.6105L24.532 33.6627H27.8739V36.5454ZM32.5054 39.6659C32.9827 39.2137 33.1501 38.9037 33.1501 38.38C33.1501 38.0458 33.0552 37.6651 32.8878 37.3318L32.5054 36.5454H27.8739V33.6627H31.2168L27.9697 26.3969L27.8739 26.6105V24.2764H31.2884C31.0968 24.4193 31.0493 24.515 31.0493 24.6571C31.0493 24.7768 31.0968 24.9198 31.1926 25.1101L36.8028 36.9976C37.2568 37.927 37.615 38.4747 38.4738 39.6659H32.5054Z" fill="white"/>
<path fill-rule="evenodd" clip-rule="evenodd" d="M48.7641 34.1631C48.096 33.7816 47.3313 33.5671 46.4958 33.5671H44.729V36.7358C44.729 38.3559 45.1114 39.0949 46.2334 39.6659H39.3096C40.4325 39.0466 40.7898 38.3318 40.7898 36.7358V27.2306C40.7898 25.5623 40.36 24.7527 39.2379 24.2764H48.5733H48.7641V26.8249H44.729V31.0185H48.7641V34.1631ZM51.6055 39.6659C52.0586 39.3085 52.1777 39.0949 52.1777 38.7133C52.1777 38.3085 51.7962 37.4507 51.2714 36.6169C50.5784 35.5446 49.7429 34.6868 48.7641 34.1631V31.0185H49.7429C51.7004 31.0185 52.8225 30.2554 52.8225 28.9213C52.8225 27.9446 52.226 27.2306 51.1756 26.9679C50.8649 26.8964 49.9819 26.8249 49.313 26.8249H48.7641V24.2764C51.7962 24.2996 53.563 24.5141 54.6134 25.0386C56.0937 25.7294 56.9058 27.0394 56.9058 28.731C56.9058 30.9944 55.2582 32.5663 52.4884 32.9952C53.2523 33.3294 53.563 33.4956 53.9687 33.8531C54.3743 34.2346 54.5659 34.8056 55.2107 35.6876C55.3773 35.9494 55.2107 35.7117 55.7596 36.4981L56.022 36.9029L56.3086 37.3077C57.3348 38.8322 57.5981 39.0949 58.5052 39.6659H51.6055Z" fill="white"/>
<path fill-rule="evenodd" clip-rule="evenodd" d="M76.8164 30.5652C76.4108 30.9226 76.3158 31.1138 76.3158 31.7331V39.2134C75.8377 39.0231 75.4562 38.9516 75.0263 38.9516C74.644 38.9516 74.4058 38.9989 73.1163 39.309C71.1587 39.7612 69.3919 39.9998 67.9117 39.9998C62.0865 39.9998 58.4338 36.9026 58.4338 32.2568C58.4338 27.2303 62.3256 23.9427 68.5323 23.9427C69.3436 23.9427 70.394 24.0134 71.4694 24.1563L72.1617 24.2287L72.8772 24.2993L73.5461 24.3949C73.9759 24.4423 74.4532 24.4905 74.7156 24.4905C75.0496 24.4905 75.2654 24.4664 75.7418 24.3717L74.5482 28.1588C73.4028 27.2535 71.0154 26.6343 68.6997 26.6343C64.8796 26.6343 62.7071 28.7789 62.7071 32.2326C62.7071 35.5211 64.4972 37.3074 68.1266 37.3074C71.3253 37.3074 72.5432 36.2833 72.5432 33.9483V33.1146H68.7472C67.84 33.1146 67.5293 33.2102 66.6938 33.6865L67.4102 31.5186C67.6484 30.6849 67.84 30.5652 68.7472 30.5652H76.8164Z" fill="white"/>
<path fill-rule="evenodd" clip-rule="evenodd" d="M78.4639 39.6659C79.5626 39.1422 79.9199 38.3791 79.9199 36.7117V27.278C79.9199 25.6338 79.5859 24.9189 78.5355 24.2755H85.1487C84.0508 24.7759 83.6684 25.5864 83.6684 27.278V37.045H88.7064C90.6873 37.045 92.3108 36.5928 93.6003 35.6635L92.669 38.4747C92.5499 38.8795 92.5266 39.0225 92.5266 39.1181C92.5266 39.2611 92.5974 39.4041 92.8364 39.6659H78.4639Z" fill="white"/>
<path fill-rule="evenodd" clip-rule="evenodd" d="M115.684 35.4254C118.43 36.8311 120.077 37.26 122.727 37.26C125.138 37.26 126.355 36.5934 126.355 35.2351C126.355 34.5444 125.95 33.9957 125.233 33.7339C124.78 33.5668 124.279 33.4479 123.73 33.4006L123.133 33.3291L122.56 33.2576L121.963 33.162C117.785 32.6616 115.876 31.2801 115.876 28.7548C115.876 25.7764 118.74 23.9427 123.371 23.9427C124.087 23.9427 124.804 23.9901 125.544 24.0616L126.141 24.109C127.812 24.3234 127.454 24.2761 127.692 24.2993C128.098 24.3475 128.29 24.3717 128.361 24.3949C128.6 24.419 128.79 24.4423 128.91 24.4423C129.149 24.4423 129.293 24.3949 129.627 24.2519L128.672 28.0873C128.552 27.8254 128.385 27.7307 127.907 27.5636C126.475 27.0399 124.565 26.6825 123.228 26.6825C121.032 26.6825 119.766 27.2777 119.766 28.3017C119.766 28.8977 120.125 29.2552 120.913 29.517C121.151 29.5885 121.294 29.6126 121.963 29.7073C122.369 29.7788 122.799 29.8271 123.204 29.8744C125.639 30.2319 127.215 30.6367 128.241 31.1845C129.627 31.9476 130.415 33.2335 130.415 34.8536C130.415 37.9034 127.383 39.9998 122.918 39.9998C121.867 39.9998 119.337 39.8568 118.191 39.7138C117.928 39.6897 117.666 39.6664 117.547 39.6664C117.212 39.6664 117.068 39.7138 116.687 39.9042L115.684 35.4254Z" fill="white"/>
<path fill-rule="evenodd" clip-rule="evenodd" d="M131.513 35.4254C134.234 36.8311 135.905 37.26 138.532 37.26C140.967 37.26 142.16 36.5934 142.16 35.2351C142.16 34.5444 141.779 33.9957 141.063 33.7339C140.585 33.5668 140.084 33.4479 139.559 33.4006L138.962 33.3291L138.364 33.2576L137.768 33.162C133.59 32.6616 131.704 31.2801 131.704 28.7548C131.704 25.7764 134.568 23.9427 139.177 23.9427C139.893 23.9427 140.609 23.9901 141.348 24.0616L141.97 24.109C143.617 24.3234 143.283 24.2761 143.497 24.2993C143.927 24.3475 144.118 24.3717 144.166 24.3949C144.405 24.419 144.619 24.4423 144.739 24.4423C144.954 24.4423 145.097 24.3949 145.456 24.2519L144.5 28.0873C144.357 27.8254 144.19 27.7307 143.712 27.5636C142.304 27.0399 140.394 26.6825 139.057 26.6825C136.861 26.6825 135.571 27.2777 135.571 28.3017C135.571 28.8977 135.954 29.2552 136.741 29.517C136.957 29.5885 137.1 29.6126 137.768 29.7073C138.198 29.7788 138.604 29.8271 139.033 29.8744C141.445 30.2319 143.044 30.6367 144.07 31.1845C145.456 31.9476 146.244 33.2335 146.244 34.8536C146.244 37.9034 143.211 39.9998 138.747 39.9998C137.672 39.9998 135.166 39.8568 134.02 39.7138C133.757 39.6897 133.471 39.6664 133.351 39.6664C133.041 39.6664 132.873 39.7138 132.515 39.9042L131.513 35.4254Z" fill="white"/>
<path fill-rule="evenodd" clip-rule="evenodd" d="M104.702 36.4976H99.9985L99.7602 36.9498C99.5453 37.3554 99.4495 37.7844 99.4495 38.2133C99.4495 38.7843 99.6161 39.1185 100.142 39.618H94.0542C94.7222 38.8558 94.8655 38.6422 95.3428 37.712L101.718 25.0623C101.861 24.7763 101.884 24.7289 101.884 24.586C101.884 24.4662 101.837 24.3715 101.741 24.2518H104.702V26.5626L101.359 33.6149H104.702V36.4976ZM109.333 39.618C109.835 39.1659 109.978 38.8558 109.978 38.3321C109.978 37.998 109.882 37.6414 109.74 37.3072L109.333 36.4976H104.702V33.6149H108.069L104.797 26.349L104.702 26.5626V24.2518H108.139C107.949 24.3715 107.901 24.4662 107.901 24.6333C107.901 24.7522 107.949 24.8719 108.044 25.0855L113.63 36.9498C114.109 37.8791 114.443 38.4269 115.326 39.618H109.333Z" fill="white"/>
<path fill-rule="evenodd" clip-rule="evenodd" d="M148.678 21.1551H147.962V23.2515H148.225V22.3695H148.416C148.512 22.3695 148.607 22.3695 148.678 22.3937V22.1077H148.512H148.225V21.3696H148.631H148.678V21.1551ZM148.678 24.2515C148.153 24.2515 147.676 24.0611 147.294 23.6563C146.888 23.2756 146.697 22.8226 146.697 22.2989C146.697 21.7503 146.888 21.274 147.294 20.8924C147.676 20.4876 148.153 20.2973 148.678 20.2973V20.5359C148.201 20.5359 147.795 20.7021 147.437 21.0354C147.102 21.3928 146.936 21.7977 146.936 22.2989C146.936 22.7744 147.102 23.18 147.437 23.5133C147.795 23.8467 148.201 24.0137 148.678 24.0137V24.2515ZM148.678 22.3937C148.75 22.3937 148.774 22.4178 148.822 22.441C148.893 22.4893 149.013 22.6555 149.18 22.9414L149.395 23.2515H149.729L149.514 22.8941C149.466 22.8226 149.419 22.7511 149.347 22.6314C149.251 22.5366 149.204 22.4652 149.18 22.441C149.131 22.4178 149.085 22.3695 148.989 22.3222C149.18 22.2989 149.323 22.2507 149.419 22.1559C149.562 22.0362 149.634 21.8933 149.634 21.727C149.634 21.5599 149.562 21.417 149.442 21.3214C149.299 21.2025 149.085 21.1551 148.774 21.1551H148.678V21.3696C148.965 21.3928 149.156 21.417 149.227 21.4884C149.299 21.5599 149.347 21.6547 149.347 21.7503C149.347 21.8218 149.323 21.8933 149.276 21.9406C149.227 22.013 149.156 22.0603 149.085 22.0836C149.013 22.1077 148.893 22.1077 148.678 22.1077V22.3937ZM150.684 22.2989C150.684 22.8226 150.493 23.2756 150.087 23.6563C149.705 24.0611 149.251 24.2515 148.702 24.2515H148.678V24.0137C149.18 24.0137 149.585 23.8467 149.944 23.5133C150.278 23.18 150.445 22.7744 150.445 22.2989C150.445 21.7977 150.278 21.3928 149.944 21.0354C149.585 20.7021 149.18 20.5359 148.678 20.5359V20.2973H148.702C149.251 20.2973 149.705 20.4876 150.087 20.8924C150.493 21.274 150.684 21.7503 150.684 22.2989Z" fill="white"/>
<path d="M148.225 21.3695V22.1076H148.512C148.798 22.1076 148.989 22.1076 149.085 22.0843C149.157 22.0602 149.227 22.0128 149.276 21.9414C149.323 21.8931 149.347 21.8216 149.347 21.7502C149.347 21.6554 149.3 21.5598 149.227 21.4883C149.157 21.4168 148.942 21.3695 148.631 21.3695H148.225ZM147.963 21.155H148.774C149.085 21.155 149.3 21.2024 149.443 21.3221C149.562 21.4168 149.634 21.5598 149.634 21.7269C149.634 21.8931 149.562 22.0361 149.419 22.1558C149.323 22.2514 149.18 22.2988 148.989 22.322C149.085 22.3703 149.132 22.4177 149.18 22.4409C149.204 22.465 149.252 22.5365 149.347 22.6321C149.419 22.751 149.466 22.8225 149.515 22.8939L149.729 23.2514H149.395L149.18 22.9422C149.013 22.6562 148.893 22.4891 148.822 22.4409C148.726 22.3944 148.608 22.3703 148.416 22.3703H148.225V23.2514H147.963V21.155ZM150.445 22.2988C150.445 21.7984 150.279 21.3927 149.944 21.0361C149.586 20.702 149.18 20.5357 148.678 20.5357C148.201 20.5357 147.796 20.702 147.437 21.0361C147.103 21.3927 146.936 21.7984 146.936 22.2988C146.936 22.7751 147.103 23.1799 147.437 23.5132C147.796 23.8474 148.201 24.0136 148.678 24.0136C149.18 24.0136 149.586 23.8474 149.944 23.5132C150.279 23.1799 150.445 22.7751 150.445 22.2988ZM150.684 22.2988C150.684 22.8225 150.494 23.2755 150.087 23.6562C149.706 24.061 149.252 24.2522 148.703 24.2522C148.154 24.2522 147.676 24.061 147.294 23.6562C146.888 23.2755 146.698 22.8225 146.698 22.2988C146.698 21.7502 146.888 21.2739 147.294 20.8932C147.676 20.4884 148.154 20.2972 148.703 20.2972C149.252 20.2972 149.706 20.4884 150.087 20.8932C150.494 21.2739 150.684 21.7502 150.684 22.2988Z" fill="white"/>
<path d="M148.225 21.3695V22.1076H148.512C148.798 22.1076 148.989 22.1076 149.085 22.0843C149.157 22.0602 149.227 22.0128 149.276 21.9414C149.323 21.8931 149.347 21.8216 149.347 21.7502C149.347 21.6554 149.3 21.5598 149.227 21.4883C149.157 21.4168 148.942 21.3695 148.631 21.3695H148.225ZM147.963 21.155H148.774C149.085 21.155 149.3 21.2024 149.443 21.3221C149.562 21.4168 149.634 21.5598 149.634 21.7269C149.634 21.8931 149.562 22.0361 149.419 22.1558C149.323 22.2514 149.18 22.2988 148.989 22.322C149.085 22.3703 149.132 22.4177 149.18 22.4409C149.204 22.465 149.252 22.5365 149.347 22.6321C149.419 22.751 149.466 22.8225 149.515 22.8939L149.729 23.2514H149.395L149.18 22.9422C149.013 22.6562 148.893 22.4891 148.822 22.4409C148.726 22.3944 148.608 22.3703 148.416 22.3703H148.225V23.2514H147.963V21.155ZM150.445 22.2988C150.445 21.7984 150.279 21.3927 149.944 21.0361C149.586 20.702 149.18 20.5357 148.678 20.5357C148.201 20.5357 147.796 20.702 147.437 21.0361C147.103 21.3927 146.936 21.7984 146.936 22.2988C146.936 22.7751 147.103 23.1799 147.437 23.5132C147.796 23.8474 148.201 24.0136 148.678 24.0136C149.18 24.0136 149.586 23.8474 149.944 23.5132C150.279 23.1799 150.445 22.7751 150.445 22.2988ZM150.684 22.2988C150.684 22.8225 150.494 23.2755 150.087 23.6562C149.706 24.061 149.252 24.2522 148.703 24.2522C148.154 24.2522 147.676 24.061 147.294 23.6562C146.888 23.2755 146.698 22.8225 146.698 22.2988C146.698 21.7502 146.888 21.2739 147.294 20.8932C147.676 20.4884 148.154 20.2972 148.703 20.2972C149.252 20.2972 149.706 20.4884 150.087 20.8932C150.494 21.2739 150.684 21.7502 150.684 22.2988Z" stroke="white" stroke-width="0.048" stroke-miterlimit="3.864"/>
<path d="M51.1283 -3.8147e-05H65.5009V16.1526H51.1283V-3.8147e-05Z" fill="white"/>
<path d="M50.6031 -0.0004673L25.7023 16.1763H50.6031V-0.0004673Z" fill="white"/>
<path d="M95.8447 16.1522L120.698 -0.000396729H95.8447V16.1522Z" fill="white"/>
<path d="M80.9475 -3.8147e-05H95.2959V16.1526H80.9475V-3.8147e-05Z" fill="white"/>
<path d="M66.0502 -3.8147e-05H80.3986V16.1526H66.0502V-3.8147e-05Z" fill="white"/>
</g>
</svg>
