<svg width="24" height="24" viewBox="0 0 24 24" fill="none" xmlns="http://www.w3.org/2000/svg">
<path fill-rule="evenodd" clip-rule="evenodd" d="M17.1282 8.57895C18.9692 8.57895 20.4615 10.1106 20.4615 12C20.4615 13.8894 18.9692 15.4211 17.1282 15.4211C16.1427 15.4211 15.2578 14.9831 14.6464 14.2839L10.5624 8.73886C10.5506 8.72293 10.5383 8.70747 10.5254 8.6925C9.63388 7.65578 8.32698 7 6.87179 7C4.18118 7 2 9.23858 2 12C2 14.7614 4.18118 17 6.87179 17C8.03396 17 9.10294 16.5814 9.94035 15.8837C10.2702 15.6089 10.3205 15.1117 10.0528 14.7732C9.78504 14.4347 9.3006 14.383 8.97075 14.6578C8.39747 15.1354 7.66818 15.4211 6.87179 15.4211C5.03084 15.4211 3.53846 13.8894 3.53846 12C3.53846 10.1106 5.03084 8.57895 6.87179 8.57895C7.85733 8.57895 8.74225 9.01693 9.35359 9.71611L13.4376 15.2611C13.4494 15.2771 13.4617 15.2925 13.4746 15.3075C14.3661 16.3442 15.673 17 17.1282 17C19.8188 17 22 14.7614 22 12C22 9.23858 19.8188 7 17.1282 7C15.9373 7 14.8444 7.43956 13.9982 8.16835C13.6728 8.44861 13.6303 8.94658 13.9034 9.28058C14.1765 9.61458 14.6617 9.65814 14.9871 9.37787C15.5666 8.8788 16.3123 8.57895 17.1282 8.57895Z" fill="#121212" fill-opacity="0.595"/>
</svg>
