<svg width="40" height="40" viewBox="0 0 40 40" fill="none" xmlns="http://www.w3.org/2000/svg">
<circle cx="20" cy="20" r="16" fill="#707070"/>
<circle cx="31" cy="9" r="5" fill="#FF513A"/>
<path fill-rule="evenodd" clip-rule="evenodd" d="M13.5 13.5C12.3954 13.5 11.5 14.3954 11.5 15.5V24.5C11.5 25.6046 12.3954 26.5 13.5 26.5H26.5C27.6046 26.5 28.5 25.6046 28.5 24.5V15.5C28.5 14.3954 27.6046 13.5 26.5 13.5H13.5ZM20.5505 21.1371C20.2165 21.3572 19.7835 21.3572 19.4495 21.1371L13.8217 17.4264C13.6209 17.294 13.5 17.0695 13.5 16.829C13.5 16.2591 14.1337 15.9178 14.6095 16.2315L19.4495 19.4228C19.7835 19.643 20.2165 19.643 20.5505 19.4228L25.3905 16.2315C25.8663 15.9178 26.5 16.2591 26.5 16.829C26.5 17.0695 26.3791 17.294 26.1783 17.4264L20.5505 21.1371Z" fill="#FAFAFA"/>
</svg>
