<svg width="24" height="24" viewBox="0 0 24 24" fill="none" xmlns="http://www.w3.org/2000/svg">
<path fill-rule="evenodd" clip-rule="evenodd" d="M12 2.25C6.61522 2.25 2.25 6.61522 2.25 12C2.25 17.3848 6.61522 21.75 12 21.75C17.3848 21.75 21.75 17.3848 21.75 12C21.75 6.61522 17.3848 2.25 12 2.25ZM13 7.78729C13 8.33958 12.5523 8.78729 12 8.78729C11.4477 8.78729 11 8.33958 11 7.78729C11 7.23501 11.4477 6.78729 12 6.78729C12.5523 6.78729 13 7.23501 13 7.78729ZM12.7755 11.1244C12.7755 10.7102 12.4397 10.3744 12.0255 10.3744C11.6113 10.3744 11.2755 10.7102 11.2755 11.1244V16.2527C11.2755 16.6669 11.6113 17.0027 12.0255 17.0027C12.4397 17.0027 12.7755 16.6669 12.7755 16.2527V11.1244Z" fill="#121212"/>
</svg>
