<svg width="80" height="80" viewBox="0 0 80 80" fill="none" xmlns="http://www.w3.org/2000/svg">
<path d="M28.1863 37.2993H51.815V18.2275H57.2159V61.7718H51.815V42.7001H28.1863V61.7718H22.6167V18.2275H28.1863V37.2993Z" fill="#FAFAFA"/>
<path fill-rule="evenodd" clip-rule="evenodd" d="M0 40C0 17.8903 17.8903 0 40 0C62.1097 0 80 17.8903 80 40C80 62.1097 62.1097 80 40 80C17.8903 80 0 62.1097 0 40ZM5.40086 40C5.40086 59.0717 20.9283 74.5992 40 74.5992C59.0718 74.5992 74.5992 59.0717 74.5992 40C74.5992 20.9283 59.0718 5.40084 40 5.40084C20.9283 5.40084 5.40086 20.9283 5.40086 40Z" fill="#FAFAFA"/>
</svg>
