<svg width="24" height="24" viewBox="0 0 24 24" fill="none" xmlns="http://www.w3.org/2000/svg">
<rect y="4" width="24" height="16" rx="2" fill="#FF513A"/>
<rect x="0.25" y="4.25" width="23.5" height="15.5" rx="1.75" stroke="#121212" stroke-opacity="0.07" stroke-width="0.5"/>
<mask id="path-3-inside-1_3056_12287" fill="white">
<path d="M0 10.5H24V14.5H0V10.5Z"/>
</mask>
<path d="M0 10.5H24V14.5H0V10.5Z" fill="#FAFAFA"/>
<path d="M23.5 10.5V14.5H24.5V10.5H23.5ZM0.5 14.5V10.5H-0.5V14.5H0.5Z" fill="#121212" fill-opacity="0.07" mask="url(#path-3-inside-1_3056_12287)"/>
<mask id="path-5-inside-2_3056_12287" fill="white">
<path d="M8 4H12V20H8V4Z"/>
</mask>
<path d="M8 4H12V20H8V4Z" fill="#FAFAFA"/>
<path d="M8 4.5H12V3.5H8V4.5ZM12 19.5H8V20.5H12V19.5Z" fill="#121212" fill-opacity="0.07" mask="url(#path-5-inside-2_3056_12287)"/>
<mask id="path-7-inside-3_3056_12287" fill="white">
<path d="M9 4H11V20H9V4Z"/>
</mask>
<path d="M9 4H11V20H9V4Z" fill="#30577E"/>
<path d="M9 4.5H11V3.5H9V4.5ZM11 19.5H9V20.5H11V19.5Z" fill="#121212" fill-opacity="0.07" mask="url(#path-7-inside-3_3056_12287)"/>
<mask id="path-9-inside-4_3056_12287" fill="white">
<path d="M0 11.5H24V13.5H0V11.5Z"/>
</mask>
<path d="M0 11.5H24V13.5H0V11.5Z" fill="#30577E"/>
<path d="M23.5 11.5V13.5H24.5V11.5H23.5ZM0.5 13.5V11.5H-0.5V13.5H0.5Z" fill="#121212" fill-opacity="0.07" mask="url(#path-9-inside-4_3056_12287)"/>
</svg>
