<svg width="24" height="24" viewBox="0 0 24 24" fill="none" xmlns="http://www.w3.org/2000/svg">
<path fill-rule="evenodd" clip-rule="evenodd" d="M21.75 8C21.75 6.48122 20.5188 5.25 19 5.25H5C3.48122 5.25 2.25 6.48122 2.25 8V16C2.25 17.5188 3.48122 18.75 5 18.75L19 18.75C20.5188 18.75 21.75 17.5188 21.75 16V8ZM19 6.75C19.6904 6.75 20.25 7.30964 20.25 8V16C20.25 16.6904 19.6904 17.25 19 17.25L5 17.25C4.30964 17.25 3.75 16.6904 3.75 16L3.75 8C3.75 7.30964 4.30964 6.75 5 6.75L19 6.75ZM7.5 11.5C8.32843 11.5 9 10.8284 9 10C9 9.17157 8.32843 8.5 7.5 8.5C6.67157 8.5 6 9.17157 6 10C6 10.8284 6.67157 11.5 7.5 11.5ZM5.85299 12.9801C6.3065 12.6683 6.89058 12.5 7.5 12.5C8.10942 12.5 8.6935 12.6683 9.14701 12.9801C9.59091 13.2853 10 13.8029 10 14.5C10 14.9209 9.75372 15.1886 9.57304 15.3128C9.38275 15.4436 9.1623 15.5 8.95455 15.5H6.04545C5.8377 15.5 5.61725 15.4436 5.42696 15.3128C5.24629 15.1886 5 14.9209 5 14.5C5 13.8029 5.40909 13.2853 5.85299 12.9801ZM12 8.75C11.5858 8.75 11.25 9.08579 11.25 9.5C11.25 9.91421 11.5858 10.25 12 10.25H18C18.4142 10.25 18.75 9.91421 18.75 9.5C18.75 9.08579 18.4142 8.75 18 8.75H12ZM11.25 12C11.25 11.5858 11.5858 11.25 12 11.25H18C18.4142 11.25 18.75 11.5858 18.75 12C18.75 12.4142 18.4142 12.75 18 12.75H12C11.5858 12.75 11.25 12.4142 11.25 12ZM15.5 13.75C15.0858 13.75 14.75 14.0858 14.75 14.5C14.75 14.9142 15.0858 15.25 15.5 15.25H18C18.4142 15.25 18.75 14.9142 18.75 14.5C18.75 14.0858 18.4142 13.75 18 13.75H15.5Z" fill="#121212"/>
</svg>
