<svg width="24" height="24" viewBox="0 0 24 24" fill="none" xmlns="http://www.w3.org/2000/svg">
<path fill-rule="evenodd" clip-rule="evenodd" d="M1.25 15.052V8.948C1.24997 8.04952 1.24995 7.3003 1.32991 6.70552C1.41432 6.07772 1.59999 5.51092 2.05546 5.05545C2.51093 4.59998 3.07773 4.41431 3.70552 4.32991C4.3003 4.24994 5.04953 4.24997 5.94801 4.25H18.0515C18.95 4.24997 19.6992 4.24994 20.294 4.32991C20.9218 4.41431 21.4886 4.59998 21.9441 5.05545C22.3995 5.51092 22.5852 6.07772 22.6696 6.70552C22.7496 7.3003 22.7495 8.04952 22.7495 8.948V15.052C22.7495 15.9505 22.7496 16.6997 22.6696 17.2945C22.5852 17.9223 22.3995 18.4891 21.9441 18.9445C21.4886 19.4 20.9218 19.5857 20.294 19.6701C19.6992 19.7501 18.95 19.75 18.0515 19.75H5.948C5.04952 19.75 4.3003 19.7501 3.70552 19.6701C3.07773 19.5857 2.51093 19.4 2.05546 18.9445C1.59999 18.4891 1.41432 17.9223 1.32991 17.2945C1.24995 16.6997 1.24997 15.9505 1.25 15.052ZM2.81654 17.0946C2.87858 17.5561 2.9858 17.7536 3.11612 17.8839C3.24644 18.0142 3.44393 18.1214 3.90539 18.1835C4.38843 18.2484 5.03599 18.25 6 18.25H17.9995C18.9635 18.25 19.6111 18.2484 20.0941 18.1835C20.5556 18.1214 20.7531 18.0142 20.8834 17.8839C21.0137 17.7536 21.1209 17.5561 21.183 17.0946C21.2479 16.6116 21.2495 15.964 21.2495 15V9C21.2495 8.03599 21.2479 7.38843 21.183 6.90539C21.1209 6.44393 21.0137 6.24643 20.8834 6.11611C20.7531 5.9858 20.5556 5.87858 20.0941 5.81653C19.6111 5.75159 18.9635 5.75 17.9995 5.75H6C5.03599 5.75 4.38843 5.75159 3.90539 5.81653C3.44393 5.87858 3.24644 5.9858 3.11612 6.11611C2.9858 6.24643 2.87858 6.44393 2.81654 6.90539C2.7516 7.38843 2.75 8.03599 2.75 9V15C2.75 15.964 2.7516 16.6116 2.81654 17.0946Z" fill="#121212"/>
<path fill-rule="evenodd" clip-rule="evenodd" d="M21.6875 9.75H2V8.25H21.6875V9.75Z" fill="#121212"/>
<path fill-rule="evenodd" clip-rule="evenodd" d="M6.71863 3.25C7.13284 3.25 7.46863 3.58579 7.46863 4V6C7.46863 6.41421 7.13284 6.75 6.71863 6.75C6.30441 6.75 5.96863 6.41421 5.96863 6V4C5.96863 3.58579 6.30441 3.25 6.71863 3.25Z" fill="#121212"/>
<path fill-rule="evenodd" clip-rule="evenodd" d="M18 3.25C18.4142 3.25 18.75 3.58579 18.75 4V6C18.75 6.41421 18.4142 6.75 18 6.75C17.5858 6.75 17.25 6.41421 17.25 6V4C17.25 3.58579 17.5858 3.25 18 3.25Z" fill="#121212"/>
<path d="M17 12.5C17 12.0341 17 11.8011 17.0761 11.6173C17.1776 11.3723 17.3723 11.1776 17.6173 11.0761C17.8011 11 18.0341 11 18.5 11C18.9659 11 19.1989 11 19.3827 11.0761C19.6277 11.1776 19.8224 11.3723 19.9239 11.6173C20 11.8011 20 12.0341 20 12.5C20 12.9659 20 13.1989 19.9239 13.3827C19.8224 13.6277 19.6277 13.8224 19.3827 13.9239C19.1989 14 18.9659 14 18.5 14C18.0341 14 17.8011 14 17.6173 13.9239C17.3723 13.8224 17.1776 13.6277 17.0761 13.3827C17 13.1989 17 12.9659 17 12.5Z" fill="#121212"/>
</svg>
