<svg width="24" height="24" viewBox="0 0 24 24" fill="none" xmlns="http://www.w3.org/2000/svg">
<path fill-rule="evenodd" clip-rule="evenodd" d="M4.75 5C4.75 3.48122 5.98122 2.25 7.5 2.25H16.5C18.0188 2.25 19.25 3.48122 19.25 5V18.8484C19.25 20.8642 17.153 22.195 15.3291 21.3367L14.7585 21.0682C14.4299 20.9136 14.0504 20.9095 13.7186 21.0569L13.1169 21.3243C12.4058 21.6404 11.5942 21.6404 10.8831 21.3243L10.2814 21.0569C9.94963 20.9095 9.57008 20.9136 9.24153 21.0682L8.67094 21.3367C6.84702 22.195 4.75 20.8642 4.75 18.8484V5ZM7.5 3.75C6.80964 3.75 6.25 4.30964 6.25 5V18.8484C6.25 19.7647 7.20319 20.3696 8.03225 19.9795L8.60283 19.7109C9.32565 19.3708 10.1607 19.3618 10.8907 19.6862L11.4923 19.9536C11.8155 20.0973 12.1845 20.0973 12.5077 19.9536L13.1093 19.6862C13.8393 19.3618 14.6744 19.3708 15.3972 19.7109L15.9678 19.9795C16.7968 20.3696 17.75 19.7647 17.75 18.8484V5C17.75 4.30964 17.1904 3.75 16.5 3.75H7.5ZM8.25 8.25C8.25 7.83579 8.58579 7.5 9 7.5H15C15.4142 7.5 15.75 7.83579 15.75 8.25C15.75 8.66421 15.4142 9 15 9H9C8.58579 9 8.25 8.66421 8.25 8.25ZM8.25 10.75C8.25 10.3358 8.58579 10 9 10H13C13.4142 10 13.75 10.3358 13.75 10.75C13.75 11.1642 13.4142 11.5 13 11.5H9C8.58579 11.5 8.25 11.1642 8.25 10.75ZM8.25 13.25C8.25 12.8358 8.58579 12.5 9 12.5H15C15.4142 12.5 15.75 12.8358 15.75 13.25C15.75 13.6642 15.4142 14 15 14H9C8.58579 14 8.25 13.6642 8.25 13.25ZM8.25 15.75C8.25 15.3358 8.58579 15 9 15H13C13.4142 15 13.75 15.3358 13.75 15.75C13.75 16.1642 13.4142 16.5 13 16.5H9C8.58579 16.5 8.25 16.1642 8.25 15.75Z" fill="#121212"/>
<path d="M22.7552 7.2552C21.0955 8.91493 18.4045 8.91493 16.7448 7.2552C15.0851 5.59547 15.0851 2.90452 16.7448 1.2448C18.4045 -0.414932 21.0955 -0.414932 22.7552 1.2448C24.4149 2.90452 24.4149 5.59547 22.7552 7.2552Z" fill="#FF513A"/>
</svg>
