<svg width="253" height="40" viewBox="0 0 253 40" fill="none" xmlns="http://www.w3.org/2000/svg">
<path d="M0 12.3147C0 5.82783 5.25861 0.569214 11.7454 0.569214C17.8408 0.569214 22.8518 5.21231 23.4343 11.1546H24.1275C24.71 5.21231 29.721 0.569214 35.8164 0.569214C42.3032 0.569214 47.5618 5.82783 47.5618 12.3147V31.7454C47.5618 35.9899 44.121 39.4307 39.8765 39.4307C36.0264 39.4307 32.8375 36.5995 32.2782 32.9054H31.3792C30.8199 36.5995 27.631 39.4307 23.7809 39.4307C19.9308 39.4307 16.7419 36.5995 16.1826 32.9054H15.2836C14.7243 36.5995 11.5354 39.4307 7.68529 39.4307C3.44082 39.4307 0 35.9899 0 31.7454V12.3147Z" fill="#FFEB46"/>
<path d="M115.145 11.8463C115.145 13.7368 113.986 14.4929 111.591 14.4929C109.071 14.4929 108.063 13.8124 108.063 11.8463C108.063 9.90546 109.298 9.19969 111.591 9.19969C113.885 9.19969 115.145 9.90546 115.145 11.8463Z" fill="#FFEB46"/>
<path d="M108.441 30.0954V15.5264C108.768 15.854 110.558 16.0305 111.566 16.0305C112.625 16.0305 114.313 15.854 114.666 15.5264V30.0954H108.441Z" fill="#FFEB46"/>
<path d="M82.4698 24.0712V30.0954H76.4205V15.476H81.5624L82.0917 18.6015C82.9739 16.4842 84.8139 15.0475 87.7125 15.0475C90.6867 15.0475 92.4259 16.3834 93.2324 18.6519C94.1146 16.4842 96.0554 15.0727 98.9288 15.0727C103.138 15.0727 105.003 17.7445 105.003 21.9287V30.0954H99.0044V23.7435C99.0044 21.5254 98.5507 20.0634 96.3579 20.0634C94.3667 20.0634 93.7617 21.6514 93.7617 23.9956V30.0954H87.7629V23.6427C87.7629 21.5506 87.41 20.0634 85.192 20.0634C83.0999 20.0634 82.4698 21.6262 82.4698 24.0712Z" fill="#FFEB46"/>
<path d="M118.209 30.0954H124.283V9.90181H118.209V30.0954Z" fill="#FFEB46"/>
<path d="M140.483 30.0954L136.475 24.0208L133.728 26.4909V30.0954H127.779V9.90181H133.728V21.0717L139.978 15.476H153.102L156.857 23.0629L157.084 23.8191L157.311 23.0881L161.092 15.476H172.108L174.553 23.3654L178.233 15.476H182.291L185.719 23.441L188.718 15.476H194.616L188.693 30.0954H183.526L180.149 22.2816L176.393 30.0954H171.05L166.597 16.9865L159.529 30.3979C156.832 35.5651 155.748 36.296 151.237 36.296H148.162V31.5069H150.556C152.421 31.5069 152.976 31.028 153.732 29.6165L153.908 29.2888L146.782 15.8677L141.062 21.0717L147.414 30.0954H140.483Z" fill="#FFEB46"/>
<path d="M199.34 14.4929C201.734 14.4929 202.894 13.7368 202.894 11.8463C202.894 9.90546 201.633 9.19969 199.34 9.19969C197.046 9.19969 195.811 9.90546 195.811 11.8463C195.811 13.8124 196.819 14.4929 199.34 14.4929Z" fill="#FFEB46"/>
<path d="M196.189 15.5264V30.0954H202.415V15.5264C202.062 15.854 200.373 16.0305 199.315 16.0305C198.306 16.0305 196.517 15.854 196.189 15.5264Z" fill="#FFEB46"/>
<path d="M211.897 30.0954H205.572V15.476H210.684L211.416 19.6853C211.996 16.7363 213.736 15.2491 217.063 15.2491H218.652V21.2733H216.103C212.675 21.2733 211.897 22.3068 211.897 25.4827V30.0954Z" fill="#FFEB46"/>
<path fill-rule="evenodd" clip-rule="evenodd" d="M239.485 25.4323H233.007C232.528 26.0876 231.725 26.4405 229.86 26.4405C227.365 26.4405 226.155 25.7095 225.777 24.2728H239.614V22.8361C239.614 18.2738 236.538 15.0475 229.934 15.0475C223.078 15.0475 219.853 18.5763 219.853 23.1638C219.853 27.3731 222.143 30.5743 229.478 30.5743C235.023 30.5743 238.25 29.0619 239.485 25.4323ZM229.86 19.2316C232.053 19.2316 233.208 19.8114 233.586 21.3237H225.876C226.355 19.9878 227.617 19.2316 229.86 19.2316Z" fill="#FFEB46"/>
<path d="M248.818 10.7334H244.541C246.331 14.8511 247.001 18.2235 247.001 21.8183C247.001 25.4131 246.331 28.7343 244.541 32.9031H248.818C251.526 29.134 252.547 25.6895 252.547 21.8183C252.547 17.95 251.529 14.4784 248.818 10.7334Z" fill="#FFEB46"/>
<path d="M70.8586 32.9031H66.5819C63.8704 29.1581 62.8528 25.6865 62.8528 21.8182C62.8528 17.947 63.8734 14.5025 66.5819 10.7334L70.8586 10.7334C69.0689 14.9022 68.3985 18.2235 68.3985 21.8182C68.3985 25.413 69.0689 28.7854 70.8586 32.9031Z" fill="#FFEB46"/>
</svg>
