<svg width="24" height="24" viewBox="0 0 24 24" fill="none" xmlns="http://www.w3.org/2000/svg">
<path d="M6 7.5C6 7.03406 6 6.80109 6.07612 6.61732C6.17761 6.37229 6.37229 6.17761 6.61732 6.07612C6.80109 6 7.03406 6 7.5 6C7.96594 6 8.19891 6 8.38268 6.07612C8.62771 6.17761 8.82239 6.37229 8.92388 6.61732C9 6.80109 9 7.03406 9 7.5C9 7.96594 9 8.19891 8.92388 8.38268C8.82239 8.62771 8.62771 8.82239 8.38268 8.92388C8.19891 9 7.96594 9 7.5 9C7.03406 9 6.80109 9 6.61732 8.92388C6.37229 8.82239 6.17761 8.62771 6.07612 8.38268C6 8.19891 6 7.96594 6 7.5Z" fill="#121212"/>
<path d="M10.5 7.5C10.5 7.03406 10.5 6.80109 10.5761 6.61732C10.6776 6.37229 10.8723 6.17761 11.1173 6.07612C11.3011 6 11.5341 6 12 6C12.4659 6 12.6989 6 12.8827 6.07612C13.1277 6.17761 13.3224 6.37229 13.4239 6.61732C13.5 6.80109 13.5 7.03406 13.5 7.5C13.5 7.96594 13.5 8.19891 13.4239 8.38268C13.3224 8.62771 13.1277 8.82239 12.8827 8.92388C12.6989 9 12.4659 9 12 9C11.5341 9 11.3011 9 11.1173 8.92388C10.8723 8.82239 10.6776 8.62771 10.5761 8.38268C10.5 8.19891 10.5 7.96594 10.5 7.5Z" fill="#121212"/>
<path d="M15 7.5C15 7.03406 15 6.80109 15.0761 6.61732C15.1776 6.37229 15.3723 6.17761 15.6173 6.07612C15.8011 6 16.0341 6 16.5 6C16.9659 6 17.1989 6 17.3827 6.07612C17.6277 6.17761 17.8224 6.37229 17.9239 6.61732C18 6.80109 18 7.03406 18 7.5C18 7.96594 18 8.19891 17.9239 8.38268C17.8224 8.62771 17.6277 8.82239 17.3827 8.92388C17.1989 9 16.9659 9 16.5 9C16.0341 9 15.8011 9 15.6173 8.92388C15.3723 8.82239 15.1776 8.62771 15.0761 8.38268C15 8.19891 15 7.96594 15 7.5Z" fill="#121212"/>
<path d="M6 12C6 11.5341 6 11.3011 6.07612 11.1173C6.17761 10.8723 6.37229 10.6776 6.61732 10.5761C6.80109 10.5 7.03406 10.5 7.5 10.5C7.96594 10.5 8.19891 10.5 8.38268 10.5761C8.62771 10.6776 8.82239 10.8723 8.92388 11.1173C9 11.3011 9 11.5341 9 12C9 12.4659 9 12.6989 8.92388 12.8827C8.82239 13.1277 8.62771 13.3224 8.38268 13.4239C8.19891 13.5 7.96594 13.5 7.5 13.5C7.03406 13.5 6.80109 13.5 6.61732 13.4239C6.37229 13.3224 6.17761 13.1277 6.07612 12.8827C6 12.6989 6 12.4659 6 12Z" fill="#121212"/>
<path d="M6 16.5C6 16.0341 6 15.8011 6.07612 15.6173C6.17761 15.3723 6.37229 15.1776 6.61732 15.0761C6.80109 15 7.03406 15 7.5 15C7.96594 15 8.19891 15 8.38268 15.0761C8.62771 15.1776 8.82239 15.3723 8.92388 15.6173C9 15.8011 9 16.0341 9 16.5C9 16.9659 9 17.1989 8.92388 17.3827C8.82239 17.6277 8.62771 17.8224 8.38268 17.9239C8.19891 18 7.96594 18 7.5 18C7.03406 18 6.80109 18 6.61732 17.9239C6.37229 17.8224 6.17761 17.6277 6.07612 17.3827C6 17.1989 6 16.9659 6 16.5Z" fill="#121212"/>
<path d="M10.5 12C10.5 11.5341 10.5 11.3011 10.5761 11.1173C10.6776 10.8723 10.8723 10.6776 11.1173 10.5761C11.3011 10.5 11.5341 10.5 12 10.5C12.4659 10.5 12.6989 10.5 12.8827 10.5761C13.1277 10.6776 13.3224 10.8723 13.4239 11.1173C13.5 11.3011 13.5 11.5341 13.5 12C13.5 12.4659 13.5 12.6989 13.4239 12.8827C13.3224 13.1277 13.1277 13.3224 12.8827 13.4239C12.6989 13.5 12.4659 13.5 12 13.5C11.5341 13.5 11.3011 13.5 11.1173 13.4239C10.8723 13.3224 10.6776 13.1277 10.5761 12.8827C10.5 12.6989 10.5 12.4659 10.5 12Z" fill="#121212"/>
<path d="M10.5 16.5C10.5 16.0341 10.5 15.8011 10.5761 15.6173C10.6776 15.3723 10.8723 15.1776 11.1173 15.0761C11.3011 15 11.5341 15 12 15C12.4659 15 12.6989 15 12.8827 15.0761C13.1277 15.1776 13.3224 15.3723 13.4239 15.6173C13.5 15.8011 13.5 16.0341 13.5 16.5C13.5 16.9659 13.5 17.1989 13.4239 17.3827C13.3224 17.6277 13.1277 17.8224 12.8827 17.9239C12.6989 18 12.4659 18 12 18C11.5341 18 11.3011 18 11.1173 17.9239C10.8723 17.8224 10.6776 17.6277 10.5761 17.3827C10.5 17.1989 10.5 16.9659 10.5 16.5Z" fill="#121212"/>
<path d="M15 12C15 11.5341 15 11.3011 15.0761 11.1173C15.1776 10.8723 15.3723 10.6776 15.6173 10.5761C15.8011 10.5 16.0341 10.5 16.5 10.5C16.9659 10.5 17.1989 10.5 17.3827 10.5761C17.6277 10.6776 17.8224 10.8723 17.9239 11.1173C18 11.3011 18 11.5341 18 12C18 12.4659 18 12.6989 17.9239 12.8827C17.8224 13.1277 17.6277 13.3224 17.3827 13.4239C17.1989 13.5 16.9659 13.5 16.5 13.5C16.0341 13.5 15.8011 13.5 15.6173 13.4239C15.3723 13.3224 15.1776 13.1277 15.0761 12.8827C15 12.6989 15 12.4659 15 12Z" fill="#121212"/>
<path d="M15 16.5C15 16.0341 15 15.8011 15.0761 15.6173C15.1776 15.3723 15.3723 15.1776 15.6173 15.0761C15.8011 15 16.0341 15 16.5 15C16.9659 15 17.1989 15 17.3827 15.0761C17.6277 15.1776 17.8224 15.3723 17.9239 15.6173C18 15.8011 18 16.0341 18 16.5C18 16.9659 18 17.1989 17.9239 17.3827C17.8224 17.6277 17.6277 17.8224 17.3827 17.9239C17.1989 18 16.9659 18 16.5 18C16.0341 18 15.8011 18 15.6173 17.9239C15.3723 17.8224 15.1776 17.6277 15.0761 17.3827C15 17.1989 15 16.9659 15 16.5Z" fill="#121212"/>
</svg>
