<svg width="16" height="16" viewBox="0 0 16 16" fill="none" xmlns="http://www.w3.org/2000/svg">
<path fill-rule="evenodd" clip-rule="evenodd" d="M12.0459 15.5125C12.3186 15.2007 12.287 14.7269 11.9753 14.4542L7.41566 10.4645C6.59759 9.74866 6.04508 9.26288 5.68709 8.84825C5.34302 8.44973 5.26862 8.21688 5.26862 8.0186C5.26862 7.82032 5.34302 7.58746 5.68709 7.18894C6.04508 6.77431 6.59759 6.28853 7.41566 5.57272L11.9753 1.58303C12.287 1.31027 12.3186 0.836444 12.0459 0.524717C11.7731 0.212989 11.2993 0.181402 10.9876 0.454163L6.38574 4.48075C5.62059 5.15022 4.98682 5.70473 4.55172 6.20867C4.09474 6.73797 3.76862 7.30934 3.76862 8.0186C3.76862 8.72785 4.09473 9.29922 4.55172 9.82852C4.98682 10.3325 5.62059 10.887 6.38575 11.5565L10.9876 15.583C11.2993 15.8558 11.7731 15.8242 12.0459 15.5125Z" fill="#121212"/>
</svg>
