<svg width="24" height="24" viewBox="0 0 24 24" fill="none" xmlns="http://www.w3.org/2000/svg">
<path fill-rule="evenodd" clip-rule="evenodd" d="M12 3.75C7.44365 3.75 3.75 7.44365 3.75 12C3.75 16.5563 7.44365 20.25 12 20.25C16.5563 20.25 20.25 16.5563 20.25 12C20.25 7.44365 16.5563 3.75 12 3.75ZM2.25 12C2.25 6.61522 6.61522 2.25 12 2.25C17.3848 2.25 21.75 6.61522 21.75 12C21.75 17.3848 17.3848 21.75 12 21.75C6.61522 21.75 2.25 17.3848 2.25 12Z" fill="#121212"/>
<path fill-rule="evenodd" clip-rule="evenodd" d="M15.3588 8.64123C15.6517 8.93412 15.6517 9.40899 15.3588 9.70189L13.0607 12L15.3588 14.2981C15.6517 14.591 15.6517 15.0658 15.3588 15.3587C15.0659 15.6516 14.591 15.6516 14.2981 15.3587L12 13.0606L9.7019 15.3587C9.40901 15.6516 8.93414 15.6516 8.64124 15.3587C8.34835 15.0658 8.34835 14.591 8.64124 14.2981L10.9393 12L8.64124 9.70189C8.34835 9.40899 8.34835 8.93412 8.64124 8.64123C8.93414 8.34833 9.40901 8.34833 9.7019 8.64123L12 10.9393L14.2981 8.64123C14.591 8.34833 15.0659 8.34833 15.3588 8.64123Z" fill="#121212"/>
</svg>
