<svg width="20" height="20" viewBox="0 0 20 20" fill="none" xmlns="http://www.w3.org/2000/svg">
<path fill-rule="evenodd" clip-rule="evenodd" d="M7.34627 4.06154C8.50291 1.97949 11.4971 1.97949 12.6537 4.06154L17.6136 12.9897C18.7377 15.0133 17.2746 17.5 14.9599 17.5H5.04012C2.72541 17.5 1.26227 15.0133 2.38639 12.9897L7.34627 4.06154ZM10 11.5C9.58579 11.5 9.25 11.1642 9.25 10.75L9.25 6.75C9.25 6.33579 9.58579 6 10 6C10.4142 6 10.75 6.33579 10.75 6.75V10.75C10.75 11.1642 10.4142 11.5 10 11.5ZM10 12.75C9.44772 12.75 9 13.1977 9 13.75C9 14.3023 9.44772 14.75 10 14.75C10.5523 14.75 11 14.3023 11 13.75C11 13.1977 10.5523 12.75 10 12.75Z" fill="#121212"/>
</svg>
