<svg width="24" height="24" viewBox="0 0 24 24" fill="none" xmlns="http://www.w3.org/2000/svg">
<path fill-rule="evenodd" clip-rule="evenodd" d="M1.24998 15.052V8.948C1.24995 8.04952 1.24993 7.3003 1.3299 6.70552C1.4143 6.07772 1.59997 5.51092 2.05544 5.05545C2.51091 4.59998 3.07771 4.41431 3.70551 4.32991C4.30029 4.24994 5.04951 4.24997 5.94799 4.25H18.0515C18.95 4.24997 19.6992 4.24994 20.294 4.32991C20.9218 4.41431 21.4886 4.59998 21.944 5.05545C22.3995 5.51092 22.5852 6.07772 22.6696 6.70552C22.7496 7.3003 22.7495 8.04952 22.7495 8.948V15.052C22.7495 15.9505 22.7496 16.6997 22.6696 17.2945C22.5852 17.9223 22.3995 18.4891 21.944 18.9445C21.4886 19.4 20.9218 19.5857 20.294 19.6701C19.6992 19.7501 18.95 19.75 18.0515 19.75H5.94799C5.04951 19.75 4.30029 19.7501 3.70551 19.6701C3.07771 19.5857 2.51091 19.4 2.05544 18.9445C1.59997 18.4891 1.4143 17.9223 1.3299 17.2945C1.24993 16.6997 1.24995 15.9505 1.24998 15.052ZM2.81652 17.0946C2.87856 17.5561 2.98578 17.7536 3.1161 17.8839C3.24642 18.0142 3.44392 18.1214 3.90538 18.1835C4.38841 18.2484 5.03597 18.25 5.99999 18.25H17.9995C18.9635 18.25 19.6111 18.2484 20.0941 18.1835C20.5556 18.1214 20.7531 18.0142 20.8834 17.8839C21.0137 17.7536 21.1209 17.5561 21.183 17.0946C21.2479 16.6116 21.2495 15.964 21.2495 15V9C21.2495 8.03599 21.2479 7.38843 21.183 6.90539C21.1209 6.44393 21.0137 6.24643 20.8834 6.11611C20.7531 5.9858 20.5556 5.87858 20.0941 5.81653C19.6111 5.75159 18.9635 5.75 17.9995 5.75H5.99998C5.03597 5.75 4.38841 5.75159 3.90538 5.81653C3.44392 5.87858 3.24642 5.9858 3.1161 6.11611C2.98578 6.24643 2.87856 6.44393 2.81652 6.90539C2.75158 7.38843 2.74998 8.03599 2.74998 9V15C2.74998 15.964 2.75158 16.6116 2.81652 17.0946Z" fill="#121212"/>
<path fill-rule="evenodd" clip-rule="evenodd" d="M5 14.75C5 14.0596 5.89543 13.5 7 13.5C8.10457 13.5 9 14.0596 9 14.75C9 14.8881 8.82091 15 8.6 15H5.4C5.17909 15 5 14.8881 5 14.75Z" fill="#121212"/>
<path fill-rule="evenodd" clip-rule="evenodd" d="M5.18829 13.2301C5.68715 12.9183 6.32964 12.75 7 12.75C7.67036 12.75 8.31285 12.9183 8.81171 13.2301C9.3 13.5353 9.75 14.0529 9.75 14.75C9.75 15.1709 9.47909 15.4386 9.28034 15.5628C9.07103 15.6936 8.82854 15.75 8.6 15.75H5.4C5.17147 15.75 4.92897 15.6936 4.71966 15.5628C4.52091 15.4386 4.25 15.1709 4.25 14.75C4.25 14.0529 4.7 13.5353 5.18829 13.2301Z" fill="#121212"/>
<path fill-rule="evenodd" clip-rule="evenodd" d="M12.2499 9C12.2499 8.58579 12.5857 8.25 12.9999 8.25H18.9999C19.4141 8.25 19.7499 8.58579 19.7499 9C19.7499 9.41421 19.4141 9.75 18.9999 9.75H12.9999C12.5857 9.75 12.2499 9.41421 12.2499 9Z" fill="#121212"/>
<path fill-rule="evenodd" clip-rule="evenodd" d="M12.2499 12C12.2499 11.5858 12.5857 11.25 12.9999 11.25H18.9999C19.4141 11.25 19.7499 11.5858 19.7499 12C19.7499 12.4142 19.4141 12.75 18.9999 12.75H12.9999C12.5857 12.75 12.2499 12.4142 12.2499 12Z" fill="#121212"/>
<path fill-rule="evenodd" clip-rule="evenodd" d="M16.2499 15C16.2499 14.5858 16.5857 14.25 16.9999 14.25H18.9999C19.4141 14.25 19.7499 14.5858 19.7499 15C19.7499 15.4142 19.4141 15.75 18.9999 15.75H16.9999C16.5857 15.75 16.2499 15.4142 16.2499 15Z" fill="#121212"/>
<path fill-rule="evenodd" clip-rule="evenodd" d="M12.2499 15C12.2499 14.5858 12.5857 14.25 12.9999 14.25H13.9999C14.4141 14.25 14.7499 14.5858 14.7499 15C14.7499 15.4142 14.4141 15.75 13.9999 15.75H12.9999C12.5857 15.75 12.2499 15.4142 12.2499 15Z" fill="#121212"/>
<path d="M8 10C8 10.5523 7.55228 11 7 11C6.44772 11 6 10.5523 6 10C6 9.44772 6.44772 9 7 9C7.55228 9 8 9.44772 8 10Z" fill="#121212"/>
<path fill-rule="evenodd" clip-rule="evenodd" d="M7 9.75C6.86193 9.75 6.75 9.86193 6.75 10C6.75 10.1381 6.86193 10.25 7 10.25C7.13807 10.25 7.25 10.1381 7.25 10C7.25 9.86193 7.13807 9.75 7 9.75ZM5.25 10C5.25 9.0335 6.0335 8.25 7 8.25C7.9665 8.25 8.75 9.0335 8.75 10C8.75 10.9665 7.9665 11.75 7 11.75C6.0335 11.75 5.25 10.9665 5.25 10Z" fill="#121212"/>
</svg>
