<svg width="24" height="24" viewBox="0 0 24 24" fill="none" xmlns="http://www.w3.org/2000/svg">
<path fill-rule="evenodd" clip-rule="evenodd" d="M4.25 17.052L4.25 5.94799C4.24997 5.04951 4.24995 4.30029 4.32991 3.70551C4.41432 3.07772 4.59999 2.51092 5.05546 2.05545C5.51093 1.59998 6.07773 1.41431 6.70552 1.3299C7.30031 1.24994 8.04953 1.24996 8.94801 1.24999L15.052 1.24999C15.9505 1.24996 16.6997 1.24994 17.2945 1.3299C17.9223 1.41431 18.4891 1.59998 18.9445 2.05545C19.4 2.51092 19.5857 3.07772 19.6701 3.70551C19.7501 4.30029 19.75 5.04951 19.75 5.948L19.75 17.052C19.75 17.9505 19.7501 18.6997 19.6701 19.2945C19.5857 19.9223 19.4 20.4891 18.9445 20.9445C18.4891 21.4 17.9223 21.5857 17.2945 21.6701C16.6997 21.7501 15.9505 21.75 15.052 21.75L8.948 21.75C8.04952 21.75 7.3003 21.7501 6.70552 21.6701C6.07773 21.5857 5.51093 21.4 5.05546 20.9445C4.59999 20.4891 4.41432 19.9223 4.32991 19.2945C4.24995 18.6997 4.24997 17.9505 4.25 17.052ZM5.81654 19.0946C5.87858 19.5561 5.9858 19.7536 6.11612 19.8839C6.24644 20.0142 6.44393 20.1214 6.90539 20.1835C7.38843 20.2484 8.03599 20.25 9 20.25L15 20.25C15.964 20.25 16.6116 20.2484 17.0946 20.1835C17.5561 20.1214 17.7536 20.0142 17.8839 19.8839C18.0142 19.7536 18.1214 19.5561 18.1835 19.0946C18.2484 18.6116 18.25 17.964 18.25 17L18.25 5.99999C18.25 5.03598 18.2484 4.38842 18.1835 3.90538C18.1214 3.44392 18.0142 3.24642 17.8839 3.11611C17.7536 2.98579 17.5561 2.87857 17.0946 2.81653C16.6116 2.75158 15.964 2.74999 15 2.74999L9 2.74999C8.03599 2.74999 7.38843 2.75158 6.90539 2.81653C6.44393 2.87857 6.24644 2.98579 6.11612 3.11611C5.9858 3.24642 5.87858 3.44392 5.81654 3.90538C5.7516 4.38842 5.75 5.03598 5.75 5.99999L5.75 17C5.75 17.964 5.7516 18.6116 5.81654 19.0946Z" fill="#121212"/>
<path fill-rule="evenodd" clip-rule="evenodd" d="M9.45526 4.25C9.47013 4.25001 9.48505 4.25001 9.50001 4.25001H14.5C14.515 4.25001 14.5299 4.25001 14.5448 4.25C14.9776 4.24995 15.3744 4.24991 15.6972 4.29331C16.0527 4.3411 16.4284 4.45355 16.7374 4.76257C17.0465 5.07159 17.1589 5.44732 17.2067 5.8028C17.2501 6.12561 17.2501 6.52245 17.25 6.95526C17.25 6.97014 17.25 6.98505 17.25 7.00001C17.25 7.01496 17.25 7.02988 17.25 7.04475C17.2501 7.47757 17.2501 7.8744 17.2067 8.19721C17.1589 8.55269 17.0465 8.92842 16.7374 9.23744C16.4284 9.54647 16.0527 9.65891 15.6972 9.70671C15.3744 9.75011 14.9776 9.75006 14.5448 9.75001C14.5299 9.75001 14.515 9.75001 14.5 9.75001H9.50001C9.48505 9.75001 9.47014 9.75001 9.45526 9.75001C9.02245 9.75006 8.62561 9.75011 8.3028 9.70671C7.94732 9.65891 7.57159 9.54647 7.26257 9.23744C6.95355 8.92842 6.8411 8.55269 6.79331 8.19721C6.74991 7.8744 6.74995 7.47757 6.75 7.04476C6.75001 7.02988 6.75001 7.01496 6.75001 7.00001C6.75001 6.98505 6.75001 6.97013 6.75 6.95526C6.74995 6.52244 6.74991 6.12561 6.79331 5.8028C6.8411 5.44732 6.95355 5.07159 7.26257 4.76257C7.57159 4.45355 7.94732 4.3411 8.3028 4.29331C8.62561 4.24991 9.02244 4.24995 9.45526 4.25ZM8.32324 5.82324L8.32568 5.82187C8.32761 5.82086 8.33093 5.81924 8.33597 5.81717C8.35775 5.80821 8.40611 5.79291 8.50267 5.77993C8.71339 5.7516 9.0074 5.75001 9.50001 5.75001H14.5C14.9926 5.75001 15.2866 5.7516 15.4973 5.77993C15.5939 5.79291 15.6423 5.80821 15.664 5.81717C15.6691 5.81924 15.6724 5.82086 15.6743 5.82187L15.6768 5.82324L15.6781 5.82568C15.6792 5.82761 15.6808 5.83093 15.6828 5.83597C15.6918 5.85775 15.7071 5.90611 15.7201 6.00267C15.7484 6.21339 15.75 6.5074 15.75 7.00001C15.75 7.49261 15.7484 7.78662 15.7201 7.99734C15.7071 8.0939 15.6918 8.14226 15.6828 8.16404C15.6808 8.16909 15.6792 8.1724 15.6781 8.17434L15.6768 8.17677L15.6743 8.17815C15.6724 8.17916 15.6691 8.18077 15.664 8.18285C15.6423 8.19181 15.5939 8.2071 15.4973 8.22008C15.2866 8.24841 14.9926 8.25001 14.5 8.25001H9.50001C9.0074 8.25001 8.71339 8.24841 8.50267 8.22008C8.40611 8.2071 8.35775 8.19181 8.33597 8.18285C8.33093 8.18077 8.32761 8.17916 8.32568 8.17815L8.32324 8.17677L8.32187 8.17434C8.32086 8.1724 8.31924 8.16909 8.31717 8.16404C8.30821 8.14226 8.29291 8.0939 8.27993 7.99734C8.2516 7.78662 8.25001 7.49261 8.25001 7.00001C8.25001 6.5074 8.2516 6.21339 8.27993 6.00267C8.29291 5.90611 8.30821 5.85775 8.31717 5.83597C8.31924 5.83093 8.32086 5.82761 8.32187 5.82568L8.32324 5.82324ZM8.32318 8.17673C8.32278 8.17633 8.32281 8.17633 8.32308 8.17666L8.32318 8.17673Z" fill="#121212"/>
<path fill-rule="evenodd" clip-rule="evenodd" d="M7.25 12C7.25 11.5858 7.58579 11.25 8 11.25H9C9.41421 11.25 9.75 11.5858 9.75 12C9.75 12.4142 9.41421 12.75 9 12.75H8C7.58579 12.75 7.25 12.4142 7.25 12Z" fill="#121212"/>
<path fill-rule="evenodd" clip-rule="evenodd" d="M10.75 12C10.75 11.5858 11.0858 11.25 11.5 11.25H12.5C12.9142 11.25 13.25 11.5858 13.25 12C13.25 12.4142 12.9142 12.75 12.5 12.75H11.5C11.0858 12.75 10.75 12.4142 10.75 12Z" fill="#121212"/>
<path fill-rule="evenodd" clip-rule="evenodd" d="M14.25 12C14.25 11.5858 14.5858 11.25 15 11.25H16C16.4142 11.25 16.75 11.5858 16.75 12C16.75 12.4142 16.4142 12.75 16 12.75H15C14.5858 12.75 14.25 12.4142 14.25 12Z" fill="#121212"/>
<path fill-rule="evenodd" clip-rule="evenodd" d="M7.25 15C7.25 14.5858 7.58579 14.25 8 14.25H9C9.41421 14.25 9.75 14.5858 9.75 15C9.75 15.4142 9.41421 15.75 9 15.75H8C7.58579 15.75 7.25 15.4142 7.25 15Z" fill="#121212"/>
<path fill-rule="evenodd" clip-rule="evenodd" d="M10.75 15C10.75 14.5858 11.0858 14.25 11.5 14.25H12.5C12.9142 14.25 13.25 14.5858 13.25 15C13.25 15.4142 12.9142 15.75 12.5 15.75H11.5C11.0858 15.75 10.75 15.4142 10.75 15Z" fill="#121212"/>
<path fill-rule="evenodd" clip-rule="evenodd" d="M10.75 18C10.75 17.5858 11.0858 17.25 11.5 17.25H12.5C12.9142 17.25 13.25 17.5858 13.25 18C13.25 18.4142 12.9142 18.75 12.5 18.75H11.5C11.0858 18.75 10.75 18.4142 10.75 18Z" fill="#121212"/>
<path fill-rule="evenodd" clip-rule="evenodd" d="M14.25 15C14.25 14.5858 14.5858 14.25 15 14.25H16C16.4142 14.25 16.75 14.5858 16.75 15C16.75 15.4142 16.4142 15.75 16 15.75H15C14.5858 15.75 14.25 15.4142 14.25 15Z" fill="#121212"/>
<path fill-rule="evenodd" clip-rule="evenodd" d="M14.25 18C14.25 17.5858 14.5858 17.25 15 17.25H16C16.4142 17.25 16.75 17.5858 16.75 18C16.75 18.4142 16.4142 18.75 16 18.75H15C14.5858 18.75 14.25 18.4142 14.25 18Z" fill="#121212"/>
<path fill-rule="evenodd" clip-rule="evenodd" d="M7.25 18C7.25 17.5858 7.58579 17.25 8 17.25H9C9.41421 17.25 9.75 17.5858 9.75 18C9.75 18.4142 9.41421 18.75 9 18.75H8C7.58579 18.75 7.25 18.4142 7.25 18Z" fill="#121212"/>
<path fill-rule="evenodd" clip-rule="evenodd" d="M10.75 18C10.75 17.5858 11.0858 17.25 11.5 17.25H16C16.4142 17.25 16.75 17.5858 16.75 18C16.75 18.4142 16.4142 18.75 16 18.75H11.5C11.0858 18.75 10.75 18.4142 10.75 18Z" fill="#121212"/>
</svg>
