<svg width="24" height="24" viewBox="0 0 24 24" fill="none" xmlns="http://www.w3.org/2000/svg">
<path fill-rule="evenodd" clip-rule="evenodd" d="M21.5017 7.44254C21.1938 7.16544 20.7196 7.1904 20.4425 7.49828L14.4157 14.1948C13.7066 14.9826 13.2262 15.5138 12.8172 15.8579C12.4246 16.1882 12.1954 16.2603 12 16.2603C11.8046 16.2603 11.5754 16.1882 11.1828 15.8579C10.7738 15.5138 10.2934 14.9826 9.58429 14.1948L3.55746 7.49828C3.28037 7.1904 2.80615 7.16544 2.49827 7.44254C2.19039 7.71963 2.16543 8.19385 2.44252 8.50173L8.50626 15.2392C9.16893 15.9756 9.71862 16.5864 10.2172 17.0058C10.7414 17.4468 11.3047 17.7603 12 17.7603C12.6953 17.7603 13.2585 17.4468 13.7828 17.0058C14.2814 16.5864 14.8311 15.9756 15.4937 15.2392L21.5575 8.50173C21.8346 8.19385 21.8096 7.71963 21.5017 7.44254Z" fill="#121212"/>
</svg>
