<svg width="40" height="40" viewBox="0 0 40 40" fill="none" xmlns="http://www.w3.org/2000/svg">
<path fill-rule="evenodd" clip-rule="evenodd" d="M14.6926 8.12308C17.0058 3.95898 22.9942 3.95897 25.3075 8.12307L35.2272 25.9795C37.4755 30.0265 34.5492 35 29.9198 35H10.0803C5.45083 35 2.52455 30.0265 4.7728 25.9795L14.6926 8.12308ZM20 12.75C20.6904 12.75 21.25 13.3096 21.25 14V22C21.25 22.6904 20.6904 23.25 20 23.25C19.3096 23.25 18.75 22.6904 18.75 22V14C18.75 13.3096 19.3096 12.75 20 12.75ZM20 29.5C20.9665 29.5 21.75 28.7165 21.75 27.75C21.75 26.7835 20.9665 26 20 26C19.0335 26 18.25 26.7835 18.25 27.75C18.25 28.7165 19.0335 29.5 20 29.5Z" fill="#FFBB00"/>
</svg>
