<svg width="24" height="24" viewBox="0 0 24 24" fill="none" xmlns="http://www.w3.org/2000/svg">
<path fill-rule="evenodd" clip-rule="evenodd" d="M10.5 7C10.5 6.44771 10.9477 6 11.5 6H12.5C13.0523 6 13.5 6.44772 13.5 7V17C13.5 17.5523 13.0523 18 12.5 18H11.5C10.9477 18 10.5 17.5523 10.5 17V7ZM5.5 13C5.5 12.4477 5.94772 12 6.5 12H7.5C8.05229 12 8.5 12.4477 8.5 13V17C8.5 17.5523 8.05228 18 7.5 18H6.5C5.94772 18 5.5 17.5523 5.5 17V13ZM16.5 10C15.9477 10 15.5 10.4477 15.5 11V17C15.5 17.5523 15.9477 18 16.5 18H17.5C18.0523 18 18.5 17.5523 18.5 17V11C18.5 10.4477 18.0523 10 17.5 10H16.5Z" fill="#121212"/>
</svg>
