<svg width="24" height="24" viewBox="0 0 24 24" fill="none" xmlns="http://www.w3.org/2000/svg">
<path fill-rule="evenodd" clip-rule="evenodd" d="M14 9.5C14 11.9853 11.9853 14 9.5 14C7.01472 14 5 11.9853 5 9.5C5 7.01472 7.01472 5 9.5 5C11.9853 5 14 7.01472 14 9.5ZM13.1792 14.2399C12.1632 15.0297 10.8865 15.5 9.5 15.5C6.18629 15.5 3.5 12.8137 3.5 9.5C3.5 6.18629 6.18629 3.5 9.5 3.5C12.8137 3.5 15.5 6.18629 15.5 9.5C15.5 10.8865 15.0297 12.1632 14.2399 13.1793L20.0303 18.9697C20.3232 19.2626 20.3232 19.7375 20.0303 20.0304C19.7374 20.3233 19.2626 20.3233 18.9697 20.0304L13.1792 14.2399Z" fill="#121212"/>
</svg>
