<svg width="16" height="16" viewBox="0 0 16 16" fill="none" xmlns="http://www.w3.org/2000/svg">
<g clip-path="url(#clip0_2363_10985)">
<path fill-rule="evenodd" clip-rule="evenodd" d="M3.90084 0.020038C3.97229 -0.0212135 4.06365 0.00326945 4.10491 0.0747222L4.91817 1.4834C5.62247 0.860815 6.56534 0.442849 7.61824 0.341301H8.61849C9.67091 0.442829 10.6133 0.860444 11.3175 1.4825L12.1303 0.0747185C12.1716 0.00326693 12.2629 -0.0212134 12.3344 0.0200401C12.4058 0.0612936 12.4303 0.152659 12.3891 0.224111L11.5403 1.69423C12.1944 2.3636 12.5933 3.22741 12.6065 4.17206H3.63023C3.64338 3.22785 4.04191 2.36444 4.69547 1.69523L3.84615 0.224107C3.8049 0.152654 3.82938 0.0612894 3.90084 0.020038ZM3.60066 4.597C3.59738 4.63474 3.59451 4.6729 3.59451 4.71148V11.1802C3.59451 11.8759 4.14517 12.4363 4.82875 12.4363H4.87609V14.9947C4.87609 15.5444 5.3217 15.9899 5.87131 15.9899C6.42098 15.9899 6.86659 15.5444 6.86659 14.9947V12.4363H9.36774V14.9949C9.36774 15.5446 9.81335 15.9901 10.363 15.9901C10.9126 15.9901 11.3582 15.5446 11.3582 14.9949V12.4363H11.407C12.0906 12.4363 12.6413 11.8758 12.6413 11.1802V4.71148C12.6413 4.6729 12.6399 4.6346 12.6367 4.597H3.60066ZM2.99051 6.16794C2.99051 5.61826 2.5449 5.17265 1.99529 5.17265C1.44554 5.17265 0.99993 5.61833 1 6.16801V10.4375C1 10.9871 1.44561 11.4327 1.99529 11.4327C2.5449 11.4327 2.99051 10.9871 2.99051 10.4375V6.16794ZM14.2405 5.17265C14.7901 5.17265 15.2357 5.61826 15.2357 6.16794V10.4375C15.2357 10.9871 14.7901 11.4327 14.2405 11.4327C13.6908 11.4327 13.2452 10.9871 13.2452 10.4375V6.16801C13.2452 5.61833 13.6908 5.17265 14.2405 5.17265ZM6.78029 2.39166C6.78113 2.6694 6.55126 2.89521 6.26681 2.89598C5.9825 2.89668 5.75131 2.6722 5.75047 2.39446V2.39166C5.7497 2.11385 5.97957 1.88811 6.26395 1.88734C6.54825 1.88658 6.77945 2.11099 6.78029 2.38887V2.39166ZM10.6239 2.39166C10.6247 2.6694 10.3949 2.89521 10.1104 2.89598C9.82612 2.89668 9.59493 2.6722 9.59409 2.39446V2.39166C9.59332 2.11385 9.82318 1.88811 10.1076 1.88734C10.3919 1.88658 10.6231 2.11099 10.6239 2.38887V2.39166Z" fill="#121212"/>
</g>
<defs>
<clipPath id="clip0_2363_10985">
<rect width="16" height="16" fill="white"/>
</clipPath>
</defs>
</svg>
