<svg width="24" height="24" viewBox="0 0 24 24" fill="none" xmlns="http://www.w3.org/2000/svg">
<path fill-rule="evenodd" clip-rule="evenodd" d="M12 3.38095C11.8083 3.38095 11.6118 3.44188 10.8783 3.71161L7.12829 5.09064C6.47917 5.32935 6.05056 5.48813 5.73512 5.64593C5.43657 5.79528 5.30739 5.91193 5.22487 6.0302C5.14235 6.14847 5.07745 6.30997 5.04032 6.64172C5.00109 6.99225 5 7.44931 5 8.14093V12C5 13.7451 5.82899 15.3367 6.99563 16.7085C8.15993 18.0776 9.60869 19.1654 10.7172 19.8851C11.4858 20.3841 11.6665 20.4776 12 20.4776C12.3335 20.4776 12.5142 20.3841 13.2828 19.8851C14.3913 19.1654 15.8401 18.0776 17.0044 16.7085C18.171 15.3367 19 13.7451 19 12V8.14093C19 7.44931 18.9989 6.99225 18.9597 6.64172C18.9226 6.30997 18.8577 6.14847 18.7751 6.0302C18.6926 5.91193 18.5634 5.79528 18.2649 5.64593C17.9494 5.48813 17.5208 5.32935 16.8717 5.09064L13.1217 3.71161C12.3882 3.44188 12.1917 3.38095 12 3.38095ZM10.4612 2.26672C11.0454 2.05131 11.5074 1.88095 12 1.88095C12.4926 1.88095 12.9546 2.05131 13.5388 2.26672C13.572 2.27894 13.6055 2.2913 13.6394 2.30379L17.4275 3.69683C18.0283 3.91775 18.5366 4.10464 18.936 4.30443C19.3607 4.51688 19.728 4.77449 20.0053 5.17188C20.2826 5.56927 20.3976 6.00297 20.4504 6.47488C20.5 6.91866 20.5 7.46021 20.5 8.10036V12C20.5 14.2349 19.4397 16.1602 18.1471 17.6803C16.852 19.2031 15.2714 20.3824 14.0996 21.1432C14.0717 21.1613 14.0441 21.1792 14.0167 21.1971C13.3584 21.6254 12.8171 21.9776 12 21.9776C11.1829 21.9776 10.6416 21.6254 9.98326 21.1971C9.95586 21.1792 9.92826 21.1613 9.90043 21.1432C8.72864 20.3824 7.14798 19.2031 5.85295 17.6803C4.56026 16.1602 3.5 14.2349 3.5 12L3.5 8.10034C3.49998 7.4602 3.49996 6.91866 3.54963 6.47488C3.60245 6.00297 3.71744 5.56927 3.99471 5.17188C4.27198 4.77449 4.63934 4.51688 5.06402 4.30443C5.46339 4.10464 5.97166 3.91775 6.57247 3.69683L10.3606 2.30379C10.3945 2.2913 10.428 2.27894 10.4612 2.26672Z" fill="#121212" fill-opacity="0.595"/>
<path fill-rule="evenodd" clip-rule="evenodd" d="M15.5303 9.32682C15.8232 9.61971 15.8232 10.0946 15.5303 10.3875L12.2374 13.6804C11.554 14.3638 10.446 14.3638 9.76256 13.6804L8.46967 12.3875C8.17678 12.0946 8.17678 11.6197 8.46967 11.3268C8.76256 11.0339 9.23744 11.0339 9.53033 11.3268L10.8232 12.6197C10.9209 12.7173 11.0791 12.7173 11.1768 12.6197L14.4697 9.32682C14.7626 9.03392 15.2374 9.03392 15.5303 9.32682Z" fill="#121212" fill-opacity="0.595"/>
</svg>
