<svg width="24" height="24" viewBox="0 0 24 24" fill="none" xmlns="http://www.w3.org/2000/svg">
<path fill-rule="evenodd" clip-rule="evenodd" d="M7.5 2.25C5.98122 2.25 4.75 3.48122 4.75 5V18.8484C4.75 20.8642 6.84702 22.195 8.67094 21.3367L9.24153 21.0682C9.57008 20.9136 9.94963 20.9095 10.2814 21.0569L10.8831 21.3243C11.5942 21.6404 12.4058 21.6404 13.1169 21.3243L13.7186 21.0569C14.0504 20.9095 14.4299 20.9136 14.7585 21.0682L15.3291 21.3367C17.153 22.195 19.25 20.8642 19.25 18.8484V5C19.25 3.48122 18.0188 2.25 16.5 2.25H7.5ZM15.75 8.25C15.75 7.83579 15.4142 7.5 15 7.5H9C8.58579 7.5 8.25 7.83579 8.25 8.25C8.25 8.66421 8.58579 9 9 9H15C15.4142 9 15.75 8.66421 15.75 8.25ZM13.75 10.75C13.75 10.3358 13.4142 10 13 10H9C8.58579 10 8.25 10.3358 8.25 10.75C8.25 11.1642 8.58579 11.5 9 11.5H13C13.4142 11.5 13.75 11.1642 13.75 10.75ZM15 12.5C15.4142 12.5 15.75 12.8358 15.75 13.25C15.75 13.6642 15.4142 14 15 14H9C8.58579 14 8.25 13.6642 8.25 13.25C8.25 12.8358 8.58579 12.5 9 12.5H15ZM13.75 15.75C13.75 15.3358 13.4142 15 13 15H9C8.58579 15 8.25 15.3358 8.25 15.75C8.25 16.1642 8.58579 16.5 9 16.5H13C13.4142 16.5 13.75 16.1642 13.75 15.75Z" fill="#121212"/>
</svg>
