<svg width="24" height="24" viewBox="0 0 24 24" fill="none" xmlns="http://www.w3.org/2000/svg">
<path fill-rule="evenodd" clip-rule="evenodd" d="M7 8.75C5.20507 8.75 3.75 10.2051 3.75 12C3.75 13.7949 5.20507 15.25 7 15.25H10C10.4142 15.25 10.75 15.5858 10.75 16C10.75 16.4142 10.4142 16.75 10 16.75H7C4.37665 16.75 2.25 14.6234 2.25 12C2.25 9.37665 4.37665 7.25 7 7.25H10C10.4142 7.25 10.75 7.58579 10.75 8C10.75 8.41421 10.4142 8.75 10 8.75H7ZM13.25 8C13.25 7.58579 13.5858 7.25 14 7.25H17C19.6234 7.25 21.75 9.37665 21.75 12C21.75 14.6234 19.6234 16.75 17 16.75H14C13.5858 16.75 13.25 16.4142 13.25 16C13.25 15.5858 13.5858 15.25 14 15.25H17C18.7949 15.25 20.25 13.7949 20.25 12C20.25 10.2051 18.7949 8.75 17 8.75H14C13.5858 8.75 13.25 8.41421 13.25 8ZM8.5 11.25C8.08579 11.25 7.75 11.5858 7.75 12C7.75 12.4142 8.08579 12.75 8.5 12.75H15.5C15.9142 12.75 16.25 12.4142 16.25 12C16.25 11.5858 15.9142 11.25 15.5 11.25H8.5Z" fill="#121212"/>
</svg>
