<svg width="24" height="24" viewBox="0 0 24 24" fill="none" xmlns="http://www.w3.org/2000/svg">
<path fill-rule="evenodd" clip-rule="evenodd" d="M1.24997 15.052V8.948C1.24994 8.04952 1.24992 7.3003 1.32988 6.70552C1.41429 6.07772 1.59996 5.51092 2.05543 5.05545C2.5109 4.59998 3.0777 4.41431 3.70549 4.32991C4.30027 4.24994 5.0495 4.24997 5.94798 4.25H18.0515C18.95 4.24997 19.6992 4.24994 20.294 4.32991C20.9218 4.41431 21.4886 4.59998 21.944 5.05545C22.3995 5.51092 22.5852 6.07772 22.6696 6.70552C22.7495 7.3003 22.7495 8.04952 22.7495 8.948V15.052C22.7495 15.9505 22.7495 16.6997 22.6696 17.2945C22.5852 17.9223 22.3995 18.4891 21.944 18.9445C21.4886 19.4 20.9218 19.5857 20.294 19.6701C19.6992 19.7501 18.95 19.75 18.0515 19.75H5.94797C5.04949 19.75 4.30027 19.7501 3.70549 19.6701C3.0777 19.5857 2.5109 19.4 2.05543 18.9445C1.59996 18.4891 1.41429 17.9223 1.32988 17.2945C1.24992 16.6997 1.24994 15.9505 1.24997 15.052ZM2.81651 17.0946C2.87855 17.5561 2.98577 17.7536 3.11609 17.8839C3.2464 18.0142 3.4439 18.1214 3.90536 18.1835C4.3884 18.2484 5.03596 18.25 5.99997 18.25H17.9995C18.9635 18.25 19.6111 18.2484 20.0941 18.1835C20.5556 18.1214 20.7531 18.0142 20.8834 17.8839C21.0137 17.7536 21.1209 17.5561 21.183 17.0946C21.2479 16.6116 21.2495 15.964 21.2495 15V9C21.2495 8.03599 21.2479 7.38843 21.183 6.90539C21.1209 6.44393 21.0137 6.24643 20.8834 6.11611C20.7531 5.9858 20.5556 5.87858 20.0941 5.81653C19.6111 5.75159 18.9635 5.75 17.9995 5.75H5.99997C5.03596 5.75 4.3884 5.75159 3.90536 5.81653C3.4439 5.87858 3.2464 5.9858 3.11609 6.11611C2.98577 6.24643 2.87855 6.44393 2.81651 6.90539C2.75156 7.38843 2.74997 8.03599 2.74997 9V15C2.74997 15.964 2.75156 16.6116 2.81651 17.0946Z" fill="#121212"/>
<path d="M2.00049 7.63763L22 7.63763V10.9094L2.00049 10.9094L2.00049 7.63763Z" fill="#121212"/>
</svg>
