<svg width="25" height="25" viewBox="0 0 25 25" fill="none" xmlns="http://www.w3.org/2000/svg">
<path d="M22 13C22 18.2467 17.7467 22.5 12.5 22.5C11.1182 22.5 9.80527 22.205 8.62082 21.6745C8.38245 21.5677 8.11343 21.5445 7.86467 21.6241L3.84833 22.9088C3.0741 23.1564 2.34356 22.4259 2.59121 21.6517L3.87588 17.6353C3.95545 17.3866 3.93227 17.1175 3.82551 16.8792C3.29502 15.6947 3 14.3818 3 13C3 7.75329 7.2533 3.5 12.5 3.5C17.7467 3.5 22 7.75329 22 13Z" fill="#121212"/>
<ellipse cx="19.5" cy="5" rx="5" ry="5" fill="#FF513A"/>
</svg>
