<svg width="24" height="24" viewBox="0 0 24 24" fill="none" xmlns="http://www.w3.org/2000/svg">
<circle cx="12" cy="12" r="12" fill="#59BFFA"/>
<circle cx="12" cy="12" r="11.75" stroke="#121212" stroke-opacity="0.07" stroke-width="0.5"/>
<path fill-rule="evenodd" clip-rule="evenodd" d="M6.3796 14.2983C6.61339 14.5029 6.96876 14.4792 7.17333 14.2454L10.1656 10.8257C10.7025 10.2121 11.0668 9.79774 11.3778 9.52925C11.6767 9.27119 11.8513 9.21539 12 9.21539C12.1487 9.21539 12.3234 9.27119 12.6222 9.52925C12.9332 9.79774 13.2976 10.2121 13.8344 10.8257L16.8267 14.2454C17.0313 14.4792 17.3866 14.5029 17.6204 14.2983C17.8542 14.0938 17.8779 13.7384 17.6733 13.5046L14.6534 10.0532C14.1513 9.47937 13.7354 9.00404 13.3574 8.67772C12.9605 8.33498 12.5319 8.09039 12 8.09039C11.4681 8.09039 11.0395 8.33498 10.6426 8.67772C10.2646 9.00404 9.84872 9.47937 9.34661 10.0532L6.32668 13.5046C6.12211 13.7384 6.1458 14.0938 6.3796 14.2983Z" fill="#FAFAFA"/>
</svg>
