<svg width="16" height="16" viewBox="0 0 16 16" fill="none" xmlns="http://www.w3.org/2000/svg">
<path fill-rule="evenodd" clip-rule="evenodd" d="M0.506124 12.0644C0.817852 12.3372 1.29167 12.3056 1.56444 11.9939L5.55413 7.43423C6.26994 6.61616 6.75572 6.06366 7.17035 5.70567C7.56886 5.3616 7.80172 5.28719 8 5.28719C8.19828 5.28719 8.43114 5.3616 8.82966 5.70567C9.24429 6.06366 9.73007 6.61616 10.4459 7.43423L14.4356 11.9939C14.7083 12.3056 15.1822 12.3372 15.4939 12.0644C15.8056 11.7917 15.8372 11.3179 15.5644 11.0061L11.5378 6.40431C10.8684 5.63916 10.3139 5.00539 9.80992 4.57029C9.28063 4.11331 8.70926 3.78719 8 3.78719C7.29075 3.78719 6.71938 4.11331 6.19008 4.57029C5.68613 5.00539 5.13162 5.63917 4.46214 6.40433L0.43557 11.0061C0.162809 11.3179 0.194397 11.7917 0.506124 12.0644Z" fill="#121212"/>
</svg>
