<svg width="24" height="24" viewBox="0 0 24 24" fill="none" xmlns="http://www.w3.org/2000/svg">
<path fill-rule="evenodd" clip-rule="evenodd" d="M7.25 15C7.25 14.5858 7.58579 14.25 8 14.25H16C16.4142 14.25 16.75 14.5858 16.75 15C16.75 15.4142 16.4142 15.75 16 15.75H8C7.58579 15.75 7.25 15.4142 7.25 15Z" fill="#121212"/>
<path fill-rule="evenodd" clip-rule="evenodd" d="M7.25 18C7.25 17.5858 7.58579 17.25 8 17.25H13C13.4142 17.25 13.75 17.5858 13.75 18C13.75 18.4142 13.4142 18.75 13 18.75H8C7.58579 18.75 7.25 18.4142 7.25 18Z" fill="#121212"/>
<path fill-rule="evenodd" clip-rule="evenodd" d="M4.25 17.052L4.25 5.94801C4.24997 5.04953 4.24995 4.30031 4.32991 3.70553C4.41432 3.07773 4.59999 2.51093 5.05546 2.05546C5.51093 1.59999 6.07773 1.41432 6.70552 1.32992C7.30031 1.24995 8.04953 1.24998 8.94801 1.25001L15.052 1.25001C15.9505 1.24998 16.6997 1.24995 17.2945 1.32992C17.9223 1.41432 18.4891 1.59999 18.9445 2.05546C19.4 2.51093 19.5857 3.07773 19.6701 3.70553C19.7501 4.30031 19.75 5.04953 19.75 5.94801L19.75 17.052C19.75 17.9505 19.7501 18.6997 19.6701 19.2945C19.5857 19.9223 19.4 20.4891 18.9445 20.9446C18.4891 21.4 17.9223 21.5857 17.2945 21.6701C16.6997 21.7501 15.9505 21.75 15.052 21.75L8.948 21.75C8.04952 21.75 7.3003 21.7501 6.70552 21.6701C6.07773 21.5857 5.51093 21.4 5.05546 20.9446C4.59999 20.4891 4.41432 19.9223 4.32991 19.2945C4.24995 18.6997 4.24997 17.9505 4.25 17.052ZM5.81654 19.0946C5.87858 19.5561 5.9858 19.7536 6.11612 19.8839C6.24644 20.0142 6.44393 20.1214 6.90539 20.1835C7.38843 20.2484 8.03599 20.25 9 20.25L15 20.25C15.964 20.25 16.6116 20.2484 17.0946 20.1835C17.5561 20.1214 17.7536 20.0142 17.8839 19.8839C18.0142 19.7536 18.1214 19.5561 18.1835 19.0946C18.2484 18.6116 18.25 17.964 18.25 17L18.25 6.00001C18.25 5.036 18.2484 4.38844 18.1835 3.9054C18.1214 3.44394 18.0142 3.24644 17.8839 3.11612C17.7536 2.98581 17.5561 2.87858 17.0946 2.81654C16.6116 2.7516 15.964 2.75001 15 2.75001L9 2.75001C8.03599 2.75001 7.38843 2.7516 6.90539 2.81654C6.44393 2.87858 6.24644 2.98581 6.11612 3.11612C5.9858 3.24644 5.87858 3.44394 5.81654 3.9054C5.7516 4.38844 5.75 5.036 5.75 6.00001L5.75 17C5.75 17.964 5.7516 18.6116 5.81654 19.0946Z" fill="#121212"/>
<path fill-rule="evenodd" clip-rule="evenodd" d="M8 5.25C8.41421 5.25 8.75 5.58579 8.75 6C8.75 5.58579 9.08579 5.25 9.5 5.25C9.91421 5.25 10.25 5.58579 10.25 6C10.25 5.58579 10.5858 5.25 11 5.25C11.4142 5.25 11.75 5.58579 11.75 6V7C11.75 7.41421 11.4142 7.75 11 7.75H8C7.58579 7.75 7.25 7.41421 7.25 7V6C7.25 5.58579 7.58579 5.25 8 5.25Z" fill="#121212"/>
<path fill-rule="evenodd" clip-rule="evenodd" d="M13 5.25C13.4142 5.25 13.75 5.58579 13.75 6C13.75 5.58579 14.0858 5.25 14.5 5.25C14.9142 5.25 15.25 5.58579 15.25 6C15.25 5.58579 15.5858 5.25 16 5.25C16.4142 5.25 16.75 5.58579 16.75 6V7C16.75 7.41421 16.4142 7.75 16 7.75H13C12.5858 7.75 12.25 7.41421 12.25 7V6C12.25 5.58579 12.5858 5.25 13 5.25Z" fill="#121212"/>
<path fill-rule="evenodd" clip-rule="evenodd" d="M10.5 9.25C10.9142 9.25 11.25 9.58579 11.25 10C11.25 9.58579 11.5858 9.25 12 9.25C12.4142 9.25 12.75 9.58579 12.75 10C12.75 9.58579 13.0858 9.25 13.5 9.25C13.9142 9.25 14.25 9.58579 14.25 10V11C14.25 11.4142 13.9142 11.75 13.5 11.75H10.5C10.0858 11.75 9.75 11.4142 9.75 11V10C9.75 9.58579 10.0858 9.25 10.5 9.25Z" fill="#121212"/>
</svg>
