<svg width="24" height="24" viewBox="0 0 24 24" fill="none" xmlns="http://www.w3.org/2000/svg">
<path fill-rule="evenodd" clip-rule="evenodd" d="M7.75 7C7.75 5.48122 8.98122 4.25 10.5 4.25C12.0188 4.25 13.25 5.48122 13.25 7V15C13.25 15.5523 12.8023 16 12.25 16C11.6977 16 11.25 15.5523 11.25 15V7C11.25 6.58579 10.9142 6.25 10.5 6.25C10.0858 6.25 9.75 6.58579 9.75 7V15C9.75 16.3807 10.8693 17.5 12.25 17.5C13.6307 17.5 14.75 16.3807 14.75 15V7C14.75 4.65279 12.8472 2.75 10.5 2.75C8.15279 2.75 6.25 4.65279 6.25 7V15.25C6.25 18.5637 8.93629 21.25 12.25 21.25C15.5637 21.25 18.25 18.5637 18.25 15.25V3.5C18.25 3.08579 17.9142 2.75 17.5 2.75C17.0858 2.75 16.75 3.08579 16.75 3.5V15.25C16.75 17.7353 14.7353 19.75 12.25 19.75C9.76472 19.75 7.75 17.7353 7.75 15.25V7Z" fill="#121212"/>
</svg>
