<svg width="708" height="708" viewBox="0 0 708 708" fill="none" xmlns="http://www.w3.org/2000/svg">
<path d="M442.5 327.586H265.5V177H212.4V327.586V380.686V531H265.5V380.686H442.5V531H495.601V380.686V327.586V177H442.5V327.586Z" fill="#FAFAFA"/>
<path d="M354 0C158.483 0 0 158.483 0 354C0 549.517 158.483 708 354 708C549.517 708 708 549.517 708 354C708 158.483 549.517 0 354 0ZM354 657.896C186.531 657.896 50.1046 521.469 50.1046 354C50.1046 186.531 186.531 50.1046 354 50.1046C521.469 50.1046 657.896 186.531 657.896 354C657.896 521.469 521.469 657.896 354 657.896Z" fill="#FAFAFA"/>
</svg>
