<svg width="24" height="24" viewBox="0 0 24 24" fill="none" xmlns="http://www.w3.org/2000/svg">
<path fill-rule="evenodd" clip-rule="evenodd" d="M14.4266 2.72311C15.158 2.41038 15.9428 2.24908 16.7359 2.24908C17.529 2.24908 18.3138 2.41038 19.0451 2.72311C19.7765 3.03581 20.4393 3.49348 20.9965 4.06878C21.5539 4.64371 21.9948 5.32503 22.2952 6.07326C22.5956 6.82155 22.75 7.62283 22.75 8.4315C22.75 9.24018 22.5956 10.0415 22.2952 10.7897C21.9947 11.5381 21.5537 12.2195 20.9963 12.7945L15.3741 18.5964C14.7303 19.2608 14.1943 19.814 13.7105 20.1941C13.2005 20.5948 12.659 20.8769 11.9997 20.8769C11.3405 20.8769 10.799 20.5948 10.2889 20.1941C9.80522 19.814 9.26921 19.2609 8.62545 18.5965L3.00307 12.7943C1.87802 11.6333 1.25 10.0636 1.25 8.4315C1.25 6.79945 1.87802 5.22967 3.00307 4.06866C4.12889 2.90684 5.66095 2.24961 7.26361 2.24961C8.86627 2.24961 10.3983 2.90684 11.5241 4.06865C11.7844 4.33718 12.2151 4.33718 12.4753 4.06865C13.0325 3.49342 13.6954 3.03579 14.4266 2.72311ZM16.7359 3.74908C16.1465 3.74908 15.5622 3.86889 15.0164 4.10231C14.4704 4.33575 13.9728 4.67857 13.5527 5.11237C12.7031 5.98911 11.2965 5.98923 10.4469 5.1125C9.59852 4.23696 8.45294 3.74961 7.26361 3.74961C6.07428 3.74961 4.9287 4.23696 4.08028 5.1125C3.23109 5.98884 2.75 7.18231 2.75 8.4315C2.75 9.6807 3.23109 10.8742 4.08028 11.7505L9.66578 17.5146C10.356 18.2269 10.8216 18.705 11.2156 19.0145C11.5925 19.3106 11.8121 19.3769 11.9997 19.3769C12.1874 19.3769 12.407 19.3106 12.7839 19.0145C13.1779 18.705 13.6435 18.2269 14.3337 17.5146L19.9192 11.7505C20.3396 11.3169 20.6744 10.8006 20.9032 10.2308C21.132 9.66107 21.25 9.04957 21.25 8.4315C21.25 7.81343 21.132 7.20194 20.9032 6.63216C20.6744 6.06241 20.3397 5.54627 19.9193 5.11262C19.4992 4.67882 19.0013 4.33575 18.4554 4.10231C17.9095 3.86889 17.3253 3.74908 16.7359 3.74908Z" fill="#121212"/>
</svg>
