<svg width="24" height="24" viewBox="0 0 24 24" fill="none" xmlns="http://www.w3.org/2000/svg">
<path fill-rule="evenodd" clip-rule="evenodd" d="M1.24997 15.052V8.948C1.24994 8.04952 1.24992 7.3003 1.32988 6.70552C1.41429 6.07772 1.59996 5.51092 2.05543 5.05545C2.5109 4.59998 3.0777 4.41431 3.70549 4.32991C4.30027 4.24994 5.0495 4.24997 5.94798 4.25H18.0515C18.95 4.24997 19.6992 4.24994 20.294 4.32991C20.9218 4.41431 21.4886 4.59998 21.944 5.05545C22.3995 5.51092 22.5852 6.07772 22.6696 6.70552C22.7495 7.3003 22.7495 8.04952 22.7495 8.948V15.052C22.7495 15.9505 22.7495 16.6997 22.6696 17.2945C22.5852 17.9223 22.3995 18.4891 21.944 18.9445C21.4886 19.4 20.9218 19.5857 20.294 19.6701C19.6992 19.7501 18.95 19.75 18.0515 19.75H5.94797C5.04949 19.75 4.30027 19.7501 3.70549 19.6701C3.0777 19.5857 2.5109 19.4 2.05543 18.9445C1.59996 18.4891 1.41429 17.9223 1.32988 17.2945C1.24992 16.6997 1.24994 15.9505 1.24997 15.052ZM2.81651 17.0946C2.87855 17.5561 2.98577 17.7536 3.11609 17.8839C3.2464 18.0142 3.4439 18.1214 3.90536 18.1835C4.3884 18.2484 5.03596 18.25 5.99997 18.25H17.9995C18.9635 18.25 19.6111 18.2484 20.0941 18.1835C20.5556 18.1214 20.7531 18.0142 20.8834 17.8839C21.0137 17.7536 21.1209 17.5561 21.183 17.0946C21.2479 16.6116 21.2495 15.964 21.2495 15V9C21.2495 8.03599 21.2479 7.38843 21.183 6.90539C21.1209 6.44393 21.0137 6.24643 20.8834 6.11611C20.7531 5.9858 20.5556 5.87858 20.0941 5.81653C19.6111 5.75159 18.9635 5.75 17.9995 5.75H5.99997C5.03596 5.75 4.3884 5.75159 3.90536 5.81653C3.4439 5.87858 3.2464 5.9858 3.11609 6.11611C2.98577 6.24643 2.87855 6.44393 2.81651 6.90539C2.75156 7.38843 2.74997 8.03599 2.74997 9V15C2.74997 15.964 2.75156 16.6116 2.81651 17.0946Z" fill="#121212"/>
<path fill-rule="evenodd" clip-rule="evenodd" d="M2.55001 18.6C2.88138 18.8485 3.35149 18.7814 3.60001 18.45L7.96065 12.6358C8.34982 12.1169 8.593 11.7959 8.79562 11.5946C8.89052 11.5004 8.94773 11.4626 8.97522 11.4482C8.97847 11.4466 8.98112 11.4453 8.98322 11.4443C8.9853 11.4453 8.98792 11.4467 8.99113 11.4484C9.01827 11.4634 9.0746 11.5025 9.16727 11.5989C9.36517 11.8048 9.60082 12.1315 9.97782 12.6593L12.0547 15.5669C12.0637 15.5795 12.0727 15.5922 12.0817 15.6047C12.359 15.993 12.6095 16.3437 12.8486 16.5984C13.108 16.8746 13.4398 17.1333 13.9014 17.1935C13.9558 17.2006 14.0106 17.2051 14.0655 17.2071C14.5307 17.2236 14.9005 17.0229 15.2018 16.7931C15.4795 16.5813 15.7842 16.2765 16.1216 15.9391L16.1545 15.9062C16.4833 15.5773 16.6805 15.3822 16.8399 15.2588C16.913 15.2022 16.956 15.1789 16.9773 15.1694C16.9813 15.1676 16.9844 15.1664 16.9866 15.1656C16.987 15.1655 16.9874 15.1653 16.9878 15.1652L16.9904 15.1644C16.9968 15.1641 17.0032 15.1641 17.0096 15.1644L17.0122 15.1652C17.0144 15.1659 17.0178 15.1672 17.0228 15.1694C17.0441 15.1789 17.087 15.2022 17.1601 15.2588C17.3195 15.3822 17.5167 15.5773 17.8455 15.9062L20.4697 18.5303C20.7626 18.8232 21.2374 18.8232 21.5303 18.5303C21.8232 18.2374 21.8232 17.7625 21.5303 17.4697L18.8764 14.8157C18.5874 14.5266 18.3224 14.2615 18.0782 14.0725C17.8102 13.8652 17.4865 13.6834 17.0745 13.6658C17.0249 13.6637 16.9751 13.6637 16.9255 13.6658C16.5135 13.6834 16.1898 13.8652 15.9219 14.0725C15.6777 14.2615 15.4126 14.5266 15.1236 14.8157L15.0938 14.8455C14.7129 15.2265 14.4798 15.4573 14.2921 15.6004C14.2051 15.6668 14.1542 15.6931 14.1291 15.7033C14.1227 15.706 14.1185 15.7073 14.1163 15.7079C14.1101 15.7076 14.1039 15.7071 14.0978 15.7064C14.0957 15.7054 14.0918 15.7034 14.0858 15.6997C14.0628 15.6856 14.0169 15.6512 13.942 15.5714C13.7804 15.3994 13.5884 15.1334 13.2753 14.695L11.1674 11.744C10.8312 11.2731 10.532 10.8542 10.2488 10.5595C9.94436 10.2428 9.54691 9.94937 9.00068 9.94302C8.45445 9.93666 8.05028 10.2208 7.73857 10.5304C7.44857 10.8184 7.13976 11.2302 6.79262 11.6932C6.782 11.7073 6.77134 11.7215 6.76065 11.7358L2.40001 17.55C2.15149 17.8814 2.21864 18.3515 2.55001 18.6Z" fill="#121212"/>
<path fill-rule="evenodd" clip-rule="evenodd" d="M16 8.75C15.3096 8.75 14.75 9.30964 14.75 10C14.75 10.6904 15.3096 11.25 16 11.25C16.6904 11.25 17.25 10.6904 17.25 10C17.25 9.30964 16.6904 8.75 16 8.75ZM13.25 10C13.25 8.48122 14.4812 7.25 16 7.25C17.5188 7.25 18.75 8.48122 18.75 10C18.75 11.5188 17.5188 12.75 16 12.75C14.4812 12.75 13.25 11.5188 13.25 10Z" fill="#121212"/>
</svg>
