<svg width="24" height="24" viewBox="0 0 24 24" fill="none" xmlns="http://www.w3.org/2000/svg">
<path fill-rule="evenodd" clip-rule="evenodd" d="M11.9553 14.25C11.9701 14.25 11.985 14.25 12 14.25C12.015 14.25 12.0299 14.25 12.0448 14.25C12.4776 14.25 12.8744 14.2499 13.1972 14.2933C13.5527 14.3411 13.9284 14.4535 14.2374 14.7626C14.5465 15.0716 14.6589 15.4473 14.7067 15.8028C14.7501 16.1256 14.7501 16.5224 14.75 16.9553C14.75 16.9701 14.75 16.9851 14.75 17V21C14.75 21.4142 14.4142 21.75 14 21.75C13.5858 21.75 13.25 21.4142 13.25 21V17C13.25 16.5074 13.2484 16.2134 13.2201 16.0027C13.2071 15.9061 13.1918 15.8578 13.1828 15.836C13.1808 15.8309 13.1792 15.8276 13.1781 15.8257L13.1768 15.8232L13.1743 15.8219C13.1724 15.8209 13.1691 15.8192 13.164 15.8172C13.1423 15.8082 13.0939 15.7929 12.9973 15.7799C12.7866 15.7516 12.4926 15.75 12 15.75C11.5074 15.75 11.2134 15.7516 11.0027 15.7799C10.9061 15.7929 10.8578 15.8082 10.836 15.8172C10.8309 15.8192 10.8276 15.8209 10.8257 15.8219L10.8232 15.8232L10.8219 15.8257C10.8209 15.8276 10.8192 15.8309 10.8172 15.836C10.8082 15.8578 10.7929 15.9061 10.7799 16.0027C10.7516 16.2134 10.75 16.5074 10.75 17V21C10.75 21.4142 10.4142 21.75 10 21.75C9.58579 21.75 9.25001 21.4142 9.25001 21V17C9.25001 16.985 9.25001 16.9701 9.25 16.9553C9.24995 16.5224 9.24991 16.1256 9.29331 15.8028C9.3411 15.4473 9.45355 15.0716 9.76257 14.7626C10.0716 14.4535 10.4473 14.3411 10.8028 14.2933C11.1256 14.2499 11.5224 14.25 11.9553 14.25Z" fill="#121212"/>
<path fill-rule="evenodd" clip-rule="evenodd" d="M7.25 6C7.25 5.58579 7.58579 5.25 8 5.25H9C9.41421 5.25 9.75 5.58579 9.75 6C9.75 6.41421 9.41421 6.75 9 6.75H8C7.58579 6.75 7.25 6.41421 7.25 6Z" fill="#121212"/>
<path fill-rule="evenodd" clip-rule="evenodd" d="M10.75 6C10.75 5.58579 11.0858 5.25 11.5 5.25H12.5C12.9142 5.25 13.25 5.58579 13.25 6C13.25 6.41421 12.9142 6.75 12.5 6.75H11.5C11.0858 6.75 10.75 6.41421 10.75 6Z" fill="#121212"/>
<path fill-rule="evenodd" clip-rule="evenodd" d="M14.25 6C14.25 5.58579 14.5858 5.25 15 5.25H16C16.4142 5.25 16.75 5.58579 16.75 6C16.75 6.41421 16.4142 6.75 16 6.75H15C14.5858 6.75 14.25 6.41421 14.25 6Z" fill="#121212"/>
<path fill-rule="evenodd" clip-rule="evenodd" d="M7.25 9C7.25 8.58579 7.58579 8.25 8 8.25H9C9.41421 8.25 9.75 8.58579 9.75 9C9.75 9.41421 9.41421 9.75 9 9.75H8C7.58579 9.75 7.25 9.41421 7.25 9Z" fill="#121212"/>
<path fill-rule="evenodd" clip-rule="evenodd" d="M10.75 9C10.75 8.58579 11.0858 8.25 11.5 8.25H12.5C12.9142 8.25 13.25 8.58579 13.25 9C13.25 9.41421 12.9142 9.75 12.5 9.75H11.5C11.0858 9.75 10.75 9.41421 10.75 9Z" fill="#121212"/>
<path fill-rule="evenodd" clip-rule="evenodd" d="M14.25 9C14.25 8.58579 14.5858 8.25 15 8.25H16C16.4142 8.25 16.75 8.58579 16.75 9C16.75 9.41421 16.4142 9.75 16 9.75H15C14.5858 9.75 14.25 9.41421 14.25 9Z" fill="#121212"/>
<path fill-rule="evenodd" clip-rule="evenodd" d="M7.25 12C7.25 11.5858 7.58579 11.25 8 11.25H9C9.41421 11.25 9.75 11.5858 9.75 12C9.75 12.4142 9.41421 12.75 9 12.75H8C7.58579 12.75 7.25 12.4142 7.25 12Z" fill="#121212"/>
<path fill-rule="evenodd" clip-rule="evenodd" d="M10.75 12C10.75 11.5858 11.0858 11.25 11.5 11.25H12.5C12.9142 11.25 13.25 11.5858 13.25 12C13.25 12.4142 12.9142 12.75 12.5 12.75H11.5C11.0858 12.75 10.75 12.4142 10.75 12Z" fill="#121212"/>
<path fill-rule="evenodd" clip-rule="evenodd" d="M14.25 12C14.25 11.5858 14.5858 11.25 15 11.25H16C16.4142 11.25 16.75 11.5858 16.75 12C16.75 12.4142 16.4142 12.75 16 12.75H15C14.5858 12.75 14.25 12.4142 14.25 12Z" fill="#121212"/>
<path fill-rule="evenodd" clip-rule="evenodd" d="M4.25 17.052L4.25 5.94799C4.24997 5.04951 4.24995 4.30029 4.32991 3.70551C4.41432 3.07772 4.59999 2.51092 5.05546 2.05545C5.51093 1.59998 6.07773 1.41431 6.70552 1.3299C7.30031 1.24994 8.04953 1.24996 8.94801 1.24999L15.052 1.24999C15.9505 1.24996 16.6997 1.24994 17.2945 1.3299C17.9223 1.41431 18.4891 1.59998 18.9445 2.05545C19.4 2.51092 19.5857 3.07772 19.6701 3.70551C19.7501 4.30029 19.75 5.04951 19.75 5.948L19.75 17.052C19.75 17.9505 19.7501 18.6997 19.6701 19.2945C19.5857 19.9223 19.4 20.4891 18.9445 20.9445C18.4891 21.4 17.9223 21.5857 17.2945 21.6701C16.6997 21.7501 15.9505 21.75 15.052 21.75L8.948 21.75C8.04952 21.75 7.3003 21.7501 6.70552 21.6701C6.07773 21.5857 5.51093 21.4 5.05546 20.9445C4.59999 20.4891 4.41432 19.9223 4.32991 19.2945C4.24995 18.6997 4.24997 17.9505 4.25 17.052ZM5.81654 19.0946C5.87858 19.5561 5.9858 19.7536 6.11612 19.8839C6.24644 20.0142 6.44393 20.1214 6.90539 20.1835C7.38843 20.2484 8.03599 20.25 9 20.25L15 20.25C15.964 20.25 16.6116 20.2484 17.0946 20.1835C17.5561 20.1214 17.7536 20.0142 17.8839 19.8839C18.0142 19.7536 18.1214 19.5561 18.1835 19.0946C18.2484 18.6116 18.25 17.964 18.25 17L18.25 5.99999C18.25 5.03598 18.2484 4.38842 18.1835 3.90538C18.1214 3.44392 18.0142 3.24642 17.8839 3.11611C17.7536 2.98579 17.5561 2.87857 17.0946 2.81653C16.6116 2.75158 15.964 2.74999 15 2.74999L9 2.74999C8.03599 2.74999 7.38843 2.75158 6.90539 2.81653C6.44393 2.87857 6.24644 2.98579 6.11612 3.11611C5.9858 3.24642 5.87858 3.44392 5.81654 3.90538C5.7516 4.38842 5.75 5.03598 5.75 5.99999L5.75 17C5.75 17.964 5.7516 18.6116 5.81654 19.0946Z" fill="#121212"/>
</svg>
