<svg width="24" height="24" viewBox="0 0 24 24" fill="none" xmlns="http://www.w3.org/2000/svg">
<path fill-rule="evenodd" clip-rule="evenodd" d="M11.1154 6.59793C11.5629 5.59104 11.8122 4.5237 11.8517 3.45767L13.3506 3.51321C13.3039 4.77525 13.0092 6.03016 12.4861 7.20714C12.0688 8.14605 11.5122 9.02179 10.838 9.80369L12 10.9657L17.8336 5.13203L18.8943 6.19269L13.0607 12.0263L14.2172 13.1829C14.9991 12.5087 15.8749 11.9521 16.8138 11.5348C17.9908 11.0117 19.2457 10.7171 20.5077 10.6703L20.5632 12.1693C19.4972 12.2088 18.4299 12.458 17.423 12.9055C16.6532 13.2477 15.9312 13.7002 15.2813 14.2469L18.8943 17.8599L17.8336 18.9206L14.2165 15.3034C13.6489 15.9675 13.1806 16.7083 12.8289 17.4997C12.3814 18.5066 12.1321 19.5739 12.0926 20.6399L10.5936 20.5844C10.6404 19.3224 10.935 18.0674 11.4581 16.8905C11.8851 15.9299 12.4578 15.0355 13.153 14.24L12 13.087L6.16637 18.9206L5.10571 17.8599L10.9393 12.0263L9.78094 10.8679C8.98545 11.5631 8.09101 12.1359 7.13045 12.5628C5.95347 13.0859 4.69856 13.3806 3.43652 13.4273L3.38098 11.9283C4.447 11.8888 5.51435 11.6396 6.52124 11.1921C7.31265 10.8403 8.05346 10.372 8.71749 9.80446L5.10571 6.19269L6.16637 5.13203L9.774 8.73965C10.3208 8.08969 10.7732 7.36775 11.1154 6.59793Z" fill="#121212"/>
<path fill-rule="evenodd" clip-rule="evenodd" d="M12 3.75C7.44365 3.75 3.75 7.44365 3.75 12C3.75 16.5563 7.44365 20.25 12 20.25C16.5563 20.25 20.25 16.5563 20.25 12C20.25 7.44365 16.5563 3.75 12 3.75ZM2.25 12C2.25 6.61522 6.61522 2.25 12 2.25C17.3848 2.25 21.75 6.61522 21.75 12C21.75 17.3848 17.3848 21.75 12 21.75C6.61522 21.75 2.25 17.3848 2.25 12Z" fill="#121212"/>
</svg>
