<svg width="24" height="24" viewBox="0 0 24 24" fill="none" xmlns="http://www.w3.org/2000/svg">
<path fill-rule="evenodd" clip-rule="evenodd" d="M7.25 7C7.25 6.58579 7.58579 6.25 8 6.25L16 6.25C16.4142 6.25 16.75 6.58579 16.75 7C16.75 7.41421 16.4142 7.75 16 7.75L8 7.75C7.58579 7.75 7.25 7.41421 7.25 7Z" fill="#121212"/>
<path fill-rule="evenodd" clip-rule="evenodd" d="M7.25 10C7.25 9.58579 7.58579 9.25 8 9.25L16 9.25C16.4142 9.25 16.75 9.58579 16.75 10C16.75 10.4142 16.4142 10.75 16 10.75L8 10.75C7.58579 10.75 7.25 10.4142 7.25 10Z" fill="#121212"/>
<path fill-rule="evenodd" clip-rule="evenodd" d="M7.25 13C7.25 12.5858 7.58579 12.25 8 12.25H16C16.4142 12.25 16.75 12.5858 16.75 13C16.75 13.4142 16.4142 13.75 16 13.75H8C7.58579 13.75 7.25 13.4142 7.25 13Z" fill="#121212"/>
<path fill-rule="evenodd" clip-rule="evenodd" d="M7.25 16C7.25 15.5858 7.58579 15.25 8 15.25H13C13.4142 15.25 13.75 15.5858 13.75 16C13.75 16.4142 13.4142 16.75 13 16.75H8C7.58579 16.75 7.25 16.4142 7.25 16Z" fill="#121212"/>
<path fill-rule="evenodd" clip-rule="evenodd" d="M4.25 17.052L4.25 5.94799C4.24997 5.04951 4.24995 4.30029 4.32991 3.70551C4.41432 3.07772 4.59999 2.51092 5.05546 2.05545C5.51093 1.59998 6.07773 1.41431 6.70552 1.3299C7.30031 1.24994 8.04953 1.24996 8.94801 1.24999L15.052 1.24999C15.9505 1.24996 16.6997 1.24994 17.2945 1.3299C17.9223 1.41431 18.4891 1.59998 18.9445 2.05545C19.4 2.51092 19.5857 3.07772 19.6701 3.70551C19.7501 4.30029 19.75 5.04951 19.75 5.948L19.75 17.052C19.75 17.9505 19.7501 18.6997 19.6701 19.2945C19.5857 19.9223 19.4 20.4891 18.9445 20.9445C18.4891 21.4 17.9223 21.5857 17.2945 21.6701C16.6997 21.7501 15.9505 21.75 15.052 21.75L8.948 21.75C8.04952 21.75 7.3003 21.7501 6.70552 21.6701C6.07773 21.5857 5.51093 21.4 5.05546 20.9445C4.59999 20.4891 4.41432 19.9223 4.32991 19.2945C4.24995 18.6997 4.24997 17.9505 4.25 17.052ZM5.81654 19.0946C5.87858 19.5561 5.9858 19.7536 6.11612 19.8839C6.24644 20.0142 6.44393 20.1214 6.90539 20.1835C7.38843 20.2484 8.03599 20.25 9 20.25L15 20.25C15.964 20.25 16.6116 20.2484 17.0946 20.1835C17.5561 20.1214 17.7536 20.0142 17.8839 19.8839C18.0142 19.7536 18.1214 19.5561 18.1835 19.0946C18.2484 18.6116 18.25 17.964 18.25 17L18.25 5.99999C18.25 5.03598 18.2484 4.38842 18.1835 3.90538C18.1214 3.44392 18.0142 3.24642 17.8839 3.11611C17.7536 2.98579 17.5561 2.87857 17.0946 2.81653C16.6116 2.75158 15.964 2.74999 15 2.74999L9 2.74999C8.03599 2.74999 7.38843 2.75158 6.90539 2.81653C6.44393 2.87857 6.24644 2.98579 6.11612 3.11611C5.9858 3.24642 5.87858 3.44392 5.81654 3.90538C5.7516 4.38842 5.75 5.03598 5.75 5.99999L5.75 17C5.75 17.964 5.7516 18.6116 5.81654 19.0946Z" fill="#121212"/>
</svg>
