<svg width="24" height="24" viewBox="0 0 24 24" fill="none" xmlns="http://www.w3.org/2000/svg">
<mask id="path-1-inside-1_3056_12299" fill="white">
<path d="M0 8C0 6.11438 0 5.17157 0.585786 4.58579C1.17157 4 2.11438 4 4 4H20C21.8856 4 22.8284 4 23.4142 4.58579C24 5.17157 24 6.11438 24 8V16C24 17.8856 24 18.8284 23.4142 19.4142C22.8284 20 21.8856 20 20 20H4C2.11438 20 1.17157 20 0.585786 19.4142C0 18.8284 0 17.8856 0 16V8Z"/>
</mask>
<path d="M0 8C0 6.11438 0 5.17157 0.585786 4.58579C1.17157 4 2.11438 4 4 4H20C21.8856 4 22.8284 4 23.4142 4.58579C24 5.17157 24 6.11438 24 8V16C24 17.8856 24 18.8284 23.4142 19.4142C22.8284 20 21.8856 20 20 20H4C2.11438 20 1.17157 20 0.585786 19.4142C0 18.8284 0 17.8856 0 16V8Z" fill="#FAFAFA"/>
<path d="M-0.5 6C-0.5 4.61929 0.619288 3.5 2 3.5H22C23.3807 3.5 24.5 4.61929 24.5 6H23.5C23.5 5.17157 22.8284 4.5 22 4.5H2C1.17157 4.5 0.5 5.17157 0.5 6H-0.5ZM24.5 18C24.5 19.3807 23.3807 20.5 22 20.5H2C0.619288 20.5 -0.5 19.3807 -0.5 18H0.5C0.5 18.8284 1.17157 19.5 2 19.5H22C22.8284 19.5 23.5 18.8284 23.5 18H24.5ZM2 20.5C0.619288 20.5 -0.5 19.3807 -0.5 18V6C-0.5 4.61929 0.619288 3.5 2 3.5V4.5C1.17157 4.5 0.5 5.17157 0.5 6V18C0.5 18.8284 1.17157 19.5 2 19.5V20.5ZM22 3.5C23.3807 3.5 24.5 4.61929 24.5 6V18C24.5 19.3807 23.3807 20.5 22 20.5V19.5C22.8284 19.5 23.5 18.8284 23.5 18V6C23.5 5.17157 22.8284 4.5 22 4.5V3.5Z" fill="#121212" fill-opacity="0.07" mask="url(#path-1-inside-1_3056_12299)"/>
<mask id="path-3-inside-2_3056_12299" fill="white">
<path d="M0 6C0 4.89543 0.895431 4 2 4H8V20H2C0.895431 20 0 19.1046 0 18V6Z"/>
</mask>
<path d="M0 6C0 4.89543 0.895431 4 2 4H8V20H2C0.895431 20 0 19.1046 0 18V6Z" fill="#30577E"/>
<path d="M-0.5 6C-0.5 4.61929 0.619288 3.5 2 3.5H8V4.5H2C1.17157 4.5 0.5 5.17157 0.5 6H-0.5ZM8 20.5H2C0.619288 20.5 -0.5 19.3807 -0.5 18H0.5C0.5 18.8284 1.17157 19.5 2 19.5H8V20.5ZM2 20.5C0.619288 20.5 -0.5 19.3807 -0.5 18V6C-0.5 4.61929 0.619288 3.5 2 3.5V4.5C1.17157 4.5 0.5 5.17157 0.5 6V18C0.5 18.8284 1.17157 19.5 2 19.5V20.5ZM8 4V20V4Z" fill="#121212" fill-opacity="0.07" mask="url(#path-3-inside-2_3056_12299)"/>
<mask id="path-5-inside-3_3056_12299" fill="white">
<path d="M16 4H22C23.1046 4 24 4.89543 24 6V18C24 19.1046 23.1046 20 22 20H16V4Z"/>
</mask>
<path d="M16 4H22C23.1046 4 24 4.89543 24 6V18C24 19.1046 23.1046 20 22 20H16V4Z" fill="#FF513A"/>
<path d="M16 3.5H22C23.3807 3.5 24.5 4.61929 24.5 6H23.5C23.5 5.17157 22.8284 4.5 22 4.5H16V3.5ZM24.5 18C24.5 19.3807 23.3807 20.5 22 20.5H16V19.5H22C22.8284 19.5 23.5 18.8284 23.5 18H24.5ZM16 20V4V20ZM22 3.5C23.3807 3.5 24.5 4.61929 24.5 6V18C24.5 19.3807 23.3807 20.5 22 20.5V19.5C22.8284 19.5 23.5 18.8284 23.5 18V6C23.5 5.17157 22.8284 4.5 22 4.5V3.5Z" fill="#121212" fill-opacity="0.07" mask="url(#path-5-inside-3_3056_12299)"/>
</svg>
