<svg width="24" height="24" viewBox="0 0 24 24" fill="none" xmlns="http://www.w3.org/2000/svg">
<path fill-rule="evenodd" clip-rule="evenodd" d="M10.2874 2.73554C11.3624 2.18361 12.6376 2.18361 13.7127 2.73554C14.2807 3.02716 14.7227 3.53204 15.1544 4.16176C15.5846 4.78932 16.0665 5.63732 16.6769 6.71125L20.4715 13.3881C21.0692 14.4398 21.5417 15.2711 21.855 15.9496C22.1699 16.6314 22.3744 17.2595 22.3382 17.8895C22.2697 19.0839 21.6355 20.1739 20.6309 20.8236C20.101 21.1663 19.4539 21.2989 18.7056 21.362C17.9609 21.4248 17.0047 21.4248 15.7949 21.4248H8.20508C6.9953 21.4248 6.03911 21.4248 5.29438 21.362C4.54607 21.2989 3.89897 21.1663 3.36911 20.8236C2.36455 20.1739 1.73028 19.0839 1.66178 17.8895C1.62565 17.2595 1.83007 16.6313 2.14497 15.9496C2.45837 15.2711 2.93083 14.4398 3.52859 13.388L7.32321 6.71121C7.93354 5.6373 8.41547 4.7893 8.84565 4.16175C9.27732 3.53203 9.71933 3.02716 10.2874 2.73554ZM13.0276 4.06996C12.3826 3.73881 11.6175 3.7388 10.9724 4.06996C10.7445 4.18698 10.4757 4.43676 10.0829 5.00986C9.69274 5.57899 9.24159 6.37152 8.60936 7.48396L4.85056 14.0977C4.231 15.1879 3.79043 15.9644 3.50672 16.5786C3.22141 17.1963 3.14474 17.5494 3.15932 17.8036C3.20042 18.5202 3.58098 19.1742 4.18372 19.5641C4.39748 19.7023 4.74239 19.8101 5.42038 19.8673C6.09455 19.9241 6.98733 19.9248 8.24123 19.9248H15.7588C17.0127 19.9248 17.9055 19.9241 18.5796 19.8673C19.2576 19.8101 19.6025 19.7023 19.8163 19.5641C20.419 19.1742 20.7996 18.5202 20.8407 17.8036C20.8553 17.5494 20.7786 17.1963 20.4933 16.5786C20.2096 15.9644 19.769 15.1879 19.1495 14.0978L15.3907 7.48397C14.7585 6.37153 14.3073 5.579 13.9172 5.00987C13.5243 4.43676 13.2556 4.18698 13.0276 4.06996Z" fill="#121212"/>
<path d="M11 16.9401C11 16.3878 11.4477 15.9401 12 15.9401C12.5523 15.9401 13 16.3878 13 16.9401C13 17.4924 12.5523 17.9401 12 17.9401C11.4477 17.9401 11 17.4924 11 16.9401Z" fill="#121212"/>
<path fill-rule="evenodd" clip-rule="evenodd" d="M11.9745 14.353C11.5603 14.353 11.2245 14.0172 11.2245 13.603L11.2245 8.47467C11.2245 8.06045 11.5603 7.72467 11.9745 7.72467C12.3887 7.72467 12.7245 8.06045 12.7245 8.47467L12.7245 13.603C12.7245 14.0172 12.3887 14.353 11.9745 14.353Z" fill="#121212"/>
</svg>
