<svg width="24" height="22" viewBox="0 0 24 22" fill="none" xmlns="http://www.w3.org/2000/svg">
<path fill-rule="evenodd" clip-rule="evenodd" d="M6.70814 6.30679C8.42683 3.09027 9.28617 1.48201 10.4299 0.954657C11.4263 0.495256 12.5739 0.495257 13.5702 0.954662C14.714 1.48201 15.5733 3.09028 17.292 6.3068L20.9337 13.1222C22.4893 16.0336 23.2671 17.4892 23.1145 18.6775C22.9813 19.7146 22.4211 20.649 21.5692 21.2552C20.5931 21.9498 18.9426 21.9498 15.6417 21.9498H8.35838C5.05748 21.9498 3.40704 21.9498 2.4309 21.2552C1.57896 20.649 1.01882 19.7146 0.885627 18.6775C0.733022 17.4892 1.51083 16.0336 3.06646 13.1222L6.70814 6.30679ZM10.5 17.4615C10.5 16.6331 11.1716 15.9615 12 15.9615C12.8284 15.9615 13.5 16.6331 13.5 17.4615C13.5 18.29 12.8284 18.9615 12 18.9615C11.1716 18.9615 10.5 18.29 10.5 17.4615ZM10.8452 13.4206C10.8452 14.0419 11.3489 14.5456 11.9702 14.5456C12.5916 14.5456 13.0952 14.0419 13.0952 13.4206V7.43754C13.0952 6.81622 12.5916 6.31254 11.9702 6.31254C11.3489 6.31254 10.8452 6.81622 10.8452 7.43754V13.4206Z" fill="#FFBF00"/>
</svg>
