<svg width="20" height="20" viewBox="0 0 20 20" fill="none" xmlns="http://www.w3.org/2000/svg">
<path fill-rule="evenodd" clip-rule="evenodd" d="M10 18C14.4183 18 18 14.4183 18 10C18 5.58172 14.4183 2 10 2C5.58172 2 2 5.58172 2 10C2 14.4183 5.58172 18 10 18ZM13.5995 8.61358C13.8924 8.32069 13.8924 7.84582 13.5995 7.55292C13.3066 7.26003 12.8318 7.26003 12.5389 7.55292L9.03181 11.06C8.93418 11.1576 8.77589 11.1576 8.67826 11.06L7.33038 9.71207C7.03749 9.41918 6.56261 9.41918 6.26972 9.71207C5.97683 10.005 5.97683 10.4798 6.26972 10.7727L7.6176 12.1206C8.30101 12.804 9.40905 12.804 10.0925 12.1206L13.5995 8.61358Z" fill="#121212"/>
</svg>
