<svg width="24" height="24" viewBox="0 0 24 24" fill="none" xmlns="http://www.w3.org/2000/svg">
<path fill-rule="evenodd" clip-rule="evenodd" d="M7.29269 21.4939C7.01993 21.1821 7.05152 20.7083 7.36325 20.4356L14.2086 14.4459C15.0267 13.7301 15.5792 13.2443 15.9372 12.8296C16.2812 12.4311 16.3557 12.1983 16.3557 12C16.3557 11.8017 16.2812 11.5688 15.9372 11.1703C15.5792 10.7557 15.0267 10.2699 14.2086 9.55412L7.36325 3.56442C7.05152 3.29166 7.01993 2.81784 7.29269 2.50611C7.56546 2.19438 8.03928 2.1628 8.35101 2.43556L15.2385 8.46212C16.0037 9.1316 16.6374 9.68612 17.0726 10.1901C17.5295 10.7194 17.8557 11.2907 17.8557 12C17.8557 12.7092 17.5295 13.2806 17.0726 13.8099C16.6375 14.3139 16.0037 14.8684 15.2385 15.5378L8.35101 21.5644C8.03928 21.8372 7.56546 21.8056 7.29269 21.4939Z" fill="#121212"/>
</svg>
