<svg width="16" height="16" viewBox="0 0 16 16" fill="none" xmlns="http://www.w3.org/2000/svg">
<path fill-rule="evenodd" clip-rule="evenodd" d="M3.95413 0.524717C3.68137 0.836444 3.71296 1.31027 4.02469 1.58303L8.58434 5.57272C9.40241 6.28853 9.95491 6.77431 10.3129 7.18894C10.657 7.58746 10.7314 7.82031 10.7314 8.0186C10.7314 8.21688 10.657 8.44974 10.3129 8.84825C9.95491 9.26288 9.40241 9.74866 8.58434 10.4645L4.02469 14.4542C3.71296 14.7269 3.68137 15.2007 3.95413 15.5125C4.22689 15.8242 4.70072 15.8558 5.01244 15.583L9.61426 11.5564C10.3794 10.887 11.0132 10.3325 11.4483 9.82852C11.9053 9.29922 12.2314 8.72785 12.2314 8.0186C12.2314 7.30934 11.9053 6.73797 11.4483 6.20868C11.0132 5.70473 10.3794 5.15021 9.61424 4.48074L5.01244 0.454163C4.70072 0.181401 4.22689 0.21299 3.95413 0.524717Z" fill="#707070"/>
</svg>
