<svg width="24" height="24" viewBox="0 0 24 24" fill="none" xmlns="http://www.w3.org/2000/svg">
<path fill-rule="evenodd" clip-rule="evenodd" d="M21.75 8C21.75 6.48122 20.5188 5.25 19 5.25H5C3.48122 5.25 2.25 6.48122 2.25 8V16C2.25 17.5188 3.48122 18.75 5 18.75L19 18.75C20.5188 18.75 21.75 17.5188 21.75 16V8ZM19 6.75C19.6904 6.75 20.25 7.30964 20.25 8V9H3.75V8C3.75 7.30964 4.30964 6.75 5 6.75L19 6.75ZM3.75 12L3.75 16C3.75 16.6904 4.30964 17.25 5 17.25L19 17.25C19.6904 17.25 20.25 16.6904 20.25 16V12H3.75Z" fill="#121212"/>
</svg>
