<svg width="20" height="14" viewBox="0 0 20 14" fill="none" xmlns="http://www.w3.org/2000/svg">
<path fill-rule="evenodd" clip-rule="evenodd" d="M19.75 3C19.75 1.48122 18.5188 0.25 17 0.25H3C1.48122 0.25 0.25 1.48122 0.25 3V11C0.25 12.5188 1.48122 13.75 3 13.75L17 13.75C18.5188 13.75 19.75 12.5188 19.75 11V3ZM17 1.75C17.6904 1.75 18.25 2.30964 18.25 3V4H1.75V3C1.75 2.30964 2.30964 1.75 3 1.75L17 1.75ZM1.75 7L1.75 11C1.75 11.6904 2.30964 12.25 3 12.25L17 12.25C17.6904 12.25 18.25 11.6904 18.25 11V7H1.75Z" fill="#121212"/>
</svg>
