<svg width="49" height="48" viewBox="0 0 49 48" fill="none" xmlns="http://www.w3.org/2000/svg">
<g clip-path="url(#clip0_3528_23840)">
<path d="M15.8981 25.0664L17.8661 12.6824H15.7651C14.783 12.6824 13.5165 12.1322 13.1473 11.1205C13.0254 10.7771 12.7448 9.5993 14.3657 8.45468C14.9454 8.05222 15.3184 7.60545 15.3922 7.26207C15.4697 6.90761 15.3774 6.59376 15.1264 6.35745C14.7682 6.01407 14.0704 5.81837 13.1768 5.81837C11.6741 5.81837 10.6144 6.68237 10.511 7.31007C10.4371 7.77161 10.7953 8.14084 11.1054 8.38084C12.0433 9.07868 12.2685 10.0904 11.6888 11.0467C11.0907 12.0288 9.79836 12.6676 8.41374 12.6824H6.26851C6.09128 13.8898 3.17067 32.3771 2.94913 33.8356H14.5762C14.6796 33.1784 15.215 29.6818 15.9461 25.0664H15.8981Z" fill="black" fill-opacity="0.927"/>
<path d="M31.4689 1.8457H19.6314L18.0547 11.8629H20.0634C21.1674 11.8629 22.2086 11.3571 22.6554 10.6297C22.8031 10.3897 22.8621 10.1829 22.8621 9.98724C22.8621 9.57001 22.5815 9.25986 22.2972 9.0494C21.5218 8.4697 21.3594 7.86047 21.3594 7.42847C21.3594 7.33986 21.3594 7.26232 21.3741 7.18847C21.5366 6.13247 22.9655 4.98786 24.856 4.98786C25.9895 4.98786 26.8535 5.2537 27.3741 5.74478C27.8357 6.17678 28.0129 6.78601 27.88 7.42847C27.7175 8.1854 26.9569 8.81309 26.5249 9.12324C25.3803 9.92816 25.528 10.6297 25.6018 10.8365C25.8418 11.4605 26.7501 11.8629 27.448 11.8629H30.4978V11.8777C34.6664 11.9072 36.9003 13.8272 36.2024 18.2949C35.5452 22.4488 32.3588 24.2322 28.5631 24.2654L27.0603 33.8506H29.2794C38.6431 33.8506 46.2935 27.8359 47.7963 18.3392C49.6572 6.5497 42.184 1.8457 31.4689 1.8457Z" fill="black" fill-opacity="0.927"/>
<path d="M2.3231 38.1093H7.07141C9.0948 38.1093 9.58587 39.1358 9.43818 40.0736C9.32003 40.8342 8.79572 41.3992 7.90587 41.7721C9.03572 42.2041 9.48249 42.8724 9.32003 43.9284C9.10956 45.2539 7.96495 46.2361 6.45849 46.2361H1.05664L2.3231 38.1093ZM5.46156 41.473C6.38464 41.473 6.81664 40.9819 6.90526 40.4022C6.99756 39.7745 6.71326 39.3462 5.79018 39.3462H4.97049L4.64556 41.473H5.46156ZM4.95572 44.9881C5.90833 44.9881 6.45849 44.6004 6.5951 43.8102C6.69849 43.1272 6.31079 42.7247 5.38772 42.7247H4.44987L4.09172 45.0029H4.95572V44.9881Z" fill="black" fill-opacity="0.927"/>
<path d="M15.9753 46.2957C14.7384 46.3843 14.1439 46.2513 13.8448 45.716C13.1913 46.1184 12.4602 46.3252 11.6885 46.3252C10.2892 46.3252 9.79808 45.5978 9.931 44.7929C9.99008 44.4052 10.2116 44.0323 10.5698 43.7221C11.3452 43.0501 13.2504 42.9615 13.9925 42.4557C14.0553 41.8907 13.8301 41.684 13.1322 41.684C12.3125 41.684 11.6258 41.9498 10.4516 42.7547L10.7359 40.9086C11.7476 40.1775 12.7298 39.8378 13.8596 39.8378C15.3033 39.8378 16.5845 40.4323 16.3445 42.0089L16.0639 43.796C15.9605 44.42 15.9901 44.6157 16.6879 44.6304L15.9753 46.2957ZM13.8301 43.4969C13.1765 43.9141 11.9544 43.8403 11.8215 44.7043C11.7624 45.1067 12.0135 45.4021 12.4159 45.4021C12.8036 45.4021 13.2799 45.2397 13.6676 44.9701C13.6381 44.8224 13.6528 44.6747 13.6972 44.3904L13.8301 43.4969Z" fill="black" fill-opacity="0.927"/>
<path d="M18.2816 39.9412H20.7518L20.6152 40.7609C21.4053 40.0889 21.9998 39.8378 22.7752 39.8378C24.1598 39.8378 24.7985 40.6833 24.577 42.068L23.9382 46.2218H21.4644L21.9998 42.7843C22.1069 42.1603 21.9112 41.8612 21.4349 41.8612C21.0472 41.8612 20.6927 42.068 20.3493 42.5295L19.7844 46.207H17.3105L18.2816 39.9412Z" fill="black" fill-opacity="0.927"/>
<path d="M26.4988 38.1093H28.9689L28.3449 42.097L30.7117 39.9407H33.7615L30.7265 42.6176L33.1671 46.2213H30.0581L28.1825 43.3192H28.1492L27.7061 46.2213H25.2323L26.4988 38.1093Z" fill="black" fill-opacity="0.927"/>
<path d="M35.2498 38.1093H38.0929L36.8412 46.2213H33.9981L35.2498 38.1093Z" fill="black" fill-opacity="0.927"/>
<path d="M39.4775 38.1093H43.539C46.6812 38.1093 47.5895 40.3875 47.2904 42.2779C47.0061 44.1241 45.5476 46.2213 42.7968 46.2213H38.211L39.4775 38.1093ZM42.1101 44.2865C43.4947 44.2865 44.2553 43.6035 44.4768 42.1598C44.6393 41.0853 44.3144 40.0293 42.7821 40.0293H42.0215L41.3679 44.2865H42.1101Z" fill="black" fill-opacity="0.927"/>
</g>
<defs>
<clipPath id="clip0_3528_23840">
<rect width="48" height="48" fill="white" transform="translate(0.5)"/>
</clipPath>
</defs>
</svg>
