<svg width="24" height="24" viewBox="0 0 24 24" fill="none" xmlns="http://www.w3.org/2000/svg">
<path fill-rule="evenodd" clip-rule="evenodd" d="M18.8061 7.33569C16.8822 4.53283 13.3356 3.10756 9.86698 4.03697C5.46588 5.21624 2.85408 9.74002 4.03335 14.1411C5.21262 18.5422 9.7364 21.154 14.1375 19.9747C17.6483 19.034 20.0222 15.964 20.2384 12.5245C20.2643 12.1111 20.6205 11.797 21.0339 11.823C21.4473 11.849 21.7614 12.2052 21.7354 12.6186C21.4801 16.6815 18.6773 20.3112 14.5257 21.4236C9.32443 22.8173 3.97814 19.7306 2.58446 14.5293C1.19078 9.32804 4.27746 3.98176 9.47875 2.58808C13.5716 1.49141 17.7523 3.16898 20.028 6.46532C20.054 6.34296 20.0745 6.20099 20.0889 6.03459C20.1433 5.4035 20.1006 4.55987 20.0359 3.33026C20.0141 2.91662 20.3318 2.56364 20.7454 2.54187C21.1591 2.5201 21.512 2.83778 21.5338 3.25142L21.5368 3.30779C21.5978 4.46715 21.6478 5.41585 21.5833 6.16345C21.516 6.94456 21.3156 7.63329 20.772 8.17694C20.2283 8.72059 19.5396 8.92094 18.7585 8.98829C18.0109 9.05275 17.0621 9.00279 15.9028 8.94175L15.8465 8.93878C15.4328 8.91701 15.1151 8.56404 15.1369 8.1504C15.1587 7.73676 15.5117 7.41908 15.9253 7.44085C17.1549 7.50557 17.9985 7.54825 18.6296 7.49383C18.7254 7.48558 18.813 7.47529 18.8935 7.46308L18.8061 7.33569Z" fill="#121212"/>
</svg>
