<svg width="24" height="24" viewBox="0 0 24 24" fill="none" xmlns="http://www.w3.org/2000/svg">
<path fill-rule="evenodd" clip-rule="evenodd" d="M12 7.25C9.92893 7.25 8.25 8.92893 8.25 11C8.25 13.0711 9.92893 14.75 12 14.75C14.0711 14.75 15.75 13.0711 15.75 11C15.75 8.92893 14.0711 7.25 12 7.25ZM6.75 11C6.75 8.10051 9.10051 5.75 12 5.75C14.8995 5.75 17.25 8.10051 17.25 11C17.25 13.8995 14.8995 16.25 12 16.25C9.10051 16.25 6.75 13.8995 6.75 11Z" fill="#121212"/>
<path fill-rule="evenodd" clip-rule="evenodd" d="M12 8.75C12.4142 8.75 12.75 9.08579 12.75 9.5V10.75H14C14.4142 10.75 14.75 11.0858 14.75 11.5C14.75 11.9142 14.4142 12.25 14 12.25H12C11.5858 12.25 11.25 11.9142 11.25 11.5V9.5C11.25 9.08579 11.5858 8.75 12 8.75Z" fill="#121212"/>
<path fill-rule="evenodd" clip-rule="evenodd" d="M8.25 18.0253L8.25 14H9.75L9.75 18C9.75 18.4762 9.75041 18.7958 9.76729 19.0433C9.78372 19.284 9.81319 19.4012 9.84515 19.4784C9.97202 19.7846 10.2154 20.028 10.5216 20.1548C10.5988 20.1868 10.716 20.2163 10.9567 20.2327C11.2042 20.2496 11.5238 20.25 12 20.25C12.4762 20.25 12.7958 20.2496 13.0433 20.2327C13.284 20.2163 13.4012 20.1868 13.4784 20.1548C13.7846 20.028 14.028 19.7846 14.1549 19.4784C14.1868 19.4012 14.2163 19.284 14.2327 19.0433C14.2496 18.7958 14.25 18.4762 14.25 18V14H15.75V18.0253C15.75 18.4697 15.75 18.8408 15.7292 19.1454C15.7076 19.4625 15.661 19.762 15.5407 20.0524C15.2616 20.7262 14.7262 21.2616 14.0524 21.5407C13.762 21.661 13.4625 21.7076 13.1454 21.7292C12.8408 21.75 12.4697 21.75 12.0253 21.75H11.9747C11.5303 21.75 11.1592 21.75 10.8546 21.7292C10.5375 21.7076 10.238 21.661 9.94762 21.5407C9.27379 21.2616 8.73844 20.7262 8.45933 20.0524C8.33905 19.762 8.29241 19.4625 8.27077 19.1454C8.24999 18.8408 8.24999 18.4697 8.25 18.0253ZM9.76729 3.95674C9.75041 4.20421 9.75 4.5238 9.75 5V8H8.25L8.25 4.97475C8.24999 4.53029 8.24999 4.15925 8.27077 3.85464C8.29241 3.53753 8.33905 3.23801 8.45933 2.94762C8.73844 2.27379 9.27379 1.73844 9.94762 1.45933C10.238 1.33905 10.5375 1.29241 10.8546 1.27077C11.1592 1.24999 11.5303 1.24999 11.9747 1.25H12.0253C12.4697 1.24999 12.8408 1.24999 13.1454 1.27077C13.4625 1.29241 13.762 1.33905 14.0524 1.45933C14.7262 1.73844 15.2616 2.27379 15.5407 2.94762C15.661 3.23801 15.7076 3.53753 15.7292 3.85464C15.75 4.15925 15.75 4.53028 15.75 4.97474V8H14.25V5C14.25 4.5238 14.2496 4.20421 14.2327 3.95674C14.2163 3.71601 14.1868 3.5988 14.1549 3.52165C14.028 3.21536 13.7846 2.97202 13.4784 2.84515C13.4012 2.81319 13.284 2.78371 13.0433 2.76729C12.7958 2.75041 12.4762 2.75 12 2.75C11.5238 2.75 11.2042 2.75041 10.9567 2.76729C10.716 2.78371 10.5988 2.81319 10.5216 2.84515C10.2154 2.97202 9.97202 3.21536 9.84515 3.52165C9.81319 3.5988 9.78372 3.71601 9.76729 3.95674Z" fill="#121212"/>
</svg>
