<svg width="24" height="24" viewBox="0 0 24 24" fill="none" xmlns="http://www.w3.org/2000/svg">
<path fill-rule="evenodd" clip-rule="evenodd" d="M13.2971 21.2518C12.4977 21.7543 11.5023 21.7543 10.7029 21.2518C8.43779 19.8282 4 16.4689 4 12.0001V7.0791C4 5.82857 4.77572 4.70921 5.94663 4.27011L10.9466 2.39511C11.6258 2.14043 12.3742 2.14043 13.0534 2.39511L18.0534 4.27011C19.2243 4.70921 20 5.82857 20 7.0791V12.0001C20 16.4689 15.5622 19.8282 13.2971 21.2518ZM15.6781 10.5325C15.9722 10.2408 15.9742 9.76597 15.6825 9.47187C15.3908 9.17776 14.9159 9.1758 14.6218 9.46748L11.2928 12.7691C11.1953 12.8658 11.0382 12.8658 10.9407 12.7691L9.67816 11.5169C9.38406 11.2252 8.90919 11.2272 8.61751 11.5213C8.32583 11.8154 8.32779 12.2903 8.62189 12.582L9.88445 13.8341C10.5667 14.5107 11.6668 14.5107 12.3491 13.8341L15.6781 10.5325Z" fill="#121212"/>
<path d="M22.7552 7.2552C21.0955 8.91493 18.4045 8.91493 16.7448 7.2552C15.0851 5.59547 15.0851 2.90452 16.7448 1.2448C18.4045 -0.414932 21.0955 -0.414932 22.7552 1.2448C24.4149 2.90452 24.4149 5.59547 22.7552 7.2552Z" fill="#FF513A"/>
</svg>
