<svg width="40" height="40" viewBox="0 0 40 40" fill="none" xmlns="http://www.w3.org/2000/svg">
<circle cx="20" cy="20" r="16" fill="#51BFFB"/>
<path d="M28.5 20C28.5 24.6944 24.6944 28.5 20 28.5C18.7812 28.5 17.6223 28.2435 16.5744 27.7815C16.3318 27.6745 16.0585 27.6522 15.8069 27.7359L12.394 28.8704C11.6127 29.1301 10.8699 28.3872 11.1296 27.606L12.2641 24.1931C12.3478 23.9415 12.3255 23.6682 12.2185 23.4256C11.7565 22.3777 11.5 21.2188 11.5 20C11.5 15.3056 15.3056 11.5 20 11.5C24.6944 11.5 28.5 15.3056 28.5 20Z" fill="#FAFAFA"/>
<circle cx="31" cy="9" r="5" fill="#FF513A"/>
</svg>
