<svg width="32" height="32" viewBox="0 0 32 32" fill="none" xmlns="http://www.w3.org/2000/svg">
<path d="M32 16C32 24.8366 24.8366 32 16 32C7.16344 32 0 24.8366 0 16C0 7.16344 7.16344 0 16 0C24.8366 0 32 7.16344 32 16Z" fill="#59BFFA"/>
<path d="M16 23.9927C20.4183 23.9927 24 20.4126 24 15.9963C24 11.5801 20.4183 8 16 8C11.5817 8 8 11.5801 8 15.9963C8 16.3329 8.02081 16.6647 8.06121 16.9904C8.13942 17.6553 8.30274 18.3078 8.54736 18.9316C8.69636 19.3116 8.77086 19.5016 8.77488 19.6569C8.7789 19.8121 8.72432 19.9758 8.61515 20.3031L8.19295 21.5692C7.70459 23.0336 7.46041 23.7658 7.84709 24.1523C8.23377 24.5388 8.96631 24.2947 10.4314 23.8066L11.698 23.3846C12.0255 23.2755 12.1893 23.2209 12.3446 23.2249C12.4999 23.229 12.69 23.3034 13.0701 23.4523C13.9592 23.8006 14.9065 23.9841 15.8651 23.9915C15.91 23.9923 15.9549 23.9927 16 23.9927Z" fill="#FAFAFA"/>
<circle cx="26.5" cy="5.5" r="5.5" fill="#FF513A"/>
</svg>
