<svg width="16" height="16" viewBox="0 0 16 16" fill="none" xmlns="http://www.w3.org/2000/svg">
<path d="M10.6008 0C10.6381 0 10.6753 0 10.7147 0C10.806 1.12835 10.3753 1.97146 9.85189 2.582C9.3383 3.18834 8.63501 3.7764 7.49753 3.68717C7.42165 2.57498 7.85303 1.79441 8.37576 1.18526C8.86054 0.617573 9.74932 0.112414 10.6008 0Z" fill="#121212"/>
<path d="M14.0442 11.7444C14.0442 11.7557 14.0442 11.7655 14.0442 11.7761C13.7245 12.7442 13.2686 13.574 12.7121 14.344C12.2041 15.0431 11.5817 15.9838 10.4702 15.9838C9.50973 15.9838 8.87178 15.3663 7.88745 15.3494C6.84622 15.3326 6.27361 15.8658 5.32161 16C5.21271 16 5.10381 16 4.99701 16C4.29794 15.8988 3.73376 15.3452 3.32275 14.8464C2.11079 13.3723 1.17424 11.4683 1 9.03176C1 8.79288 1 8.5547 1 8.31582C1.07377 6.572 1.92109 5.15418 3.04734 4.46705C3.64172 4.10171 4.45883 3.79046 5.36868 3.92958C5.75862 3.99 6.15698 4.12349 6.50617 4.25558C6.83709 4.38274 7.25091 4.60827 7.64295 4.59633C7.90853 4.5886 8.1727 4.45019 8.44039 4.35253C9.22448 4.06939 9.99311 3.7448 11.0062 3.89726C12.2238 4.08133 13.088 4.62233 13.622 5.457C12.592 6.11251 11.7777 7.10035 11.9168 8.78726C12.0404 10.3196 12.9313 11.2161 14.0442 11.7444Z" fill="#121212"/>
</svg>
