<svg width="24" height="24" viewBox="0 0 24 24" fill="none" xmlns="http://www.w3.org/2000/svg">
<path d="M9.50756 3.72951C10.4066 1.44987 13.6329 1.44986 14.532 3.72951L15.7359 6.78219C16.0104 7.47818 16.5614 8.02911 17.2574 8.3036L20.31 9.50756C22.5897 10.4066 22.5897 13.6329 20.31 14.532L17.2574 15.7359C16.5614 16.0104 16.0104 16.5614 15.7359 17.2574L14.532 20.31C13.6329 22.5897 10.4066 22.5897 9.50756 20.31L8.3036 17.2574C8.02911 16.5614 7.47818 16.0104 6.78219 15.7359L3.72951 14.532C1.44987 13.6329 1.44986 10.4066 3.72951 9.50756L6.78219 8.3036C7.47818 8.02911 8.02911 7.47818 8.3036 6.78219L9.50756 3.72951Z" fill="#121212"/>
</svg>
