<svg width="16" height="16" viewBox="0 0 16 16" fill="none" xmlns="http://www.w3.org/2000/svg">
<path fill-rule="evenodd" clip-rule="evenodd" d="M8.00851 15C2.70302 15 1 13.512 1 8C1 2.48801 2.70302 1 8.00851 1C13.314 1 15 2.39985 15 8C15 13.6002 13.314 15 8.00851 15ZM11.8265 6.5682C12.1092 6.26539 12.0928 5.7908 11.79 5.50817C11.4872 5.22555 11.0126 5.24191 10.7299 5.54473L7.12223 9.41014C7.0234 9.51603 6.85554 9.51603 6.7567 9.41014L5.31837 7.86907C5.03575 7.56626 4.56115 7.54989 4.25834 7.83252C3.95553 8.11514 3.93916 8.58974 4.22179 8.89255L5.66012 10.4336C6.35196 11.1749 7.52697 11.1749 8.21881 10.4336L11.8265 6.5682Z" fill="#121212"/>
</svg>
