<svg width="24" height="24" viewBox="0 0 24 24" fill="none" xmlns="http://www.w3.org/2000/svg">
<path fill-rule="evenodd" clip-rule="evenodd" d="M13.7127 2.73737C12.6376 2.18544 11.3624 2.18544 10.2874 2.73737C9.71933 3.02899 9.27733 3.53386 8.84566 4.16358C8.41547 4.79113 7.93354 5.63912 7.32321 6.71303L7.32321 6.71304L3.52859 13.3899C2.93083 14.4416 2.45837 15.2729 2.14497 15.9514C1.83007 16.6332 1.62565 17.2613 1.66178 17.8913C1.73028 19.0857 2.36455 20.1757 3.36911 20.8254C3.89897 21.1681 4.54607 21.3007 5.29438 21.3638C6.03909 21.4266 6.99527 21.4266 8.20501 21.4266H8.20508H15.7949H15.795C17.0048 21.4266 17.9609 21.4266 18.7056 21.3638C19.4539 21.3007 20.101 21.1681 20.6309 20.8254C21.6355 20.1757 22.2697 19.0857 22.3382 17.8913C22.3744 17.2613 22.1699 16.6332 21.855 15.9514C21.5417 15.273 21.0692 14.4417 20.4715 13.39L20.4715 13.3899L16.6769 6.71308C16.0665 5.63915 15.5846 4.79115 15.1544 4.16359C14.7227 3.53387 14.2807 3.02899 13.7127 2.73737ZM11 16.9419C11 16.3896 11.4477 15.9419 12 15.9419C12.5523 15.9419 13 16.3896 13 16.9419C13 17.4942 12.5523 17.9419 12 17.9419C11.4477 17.9419 11 17.4942 11 16.9419ZM11.2245 13.6048C11.2245 14.019 11.5603 14.3548 11.9745 14.3548C12.3887 14.3548 12.7245 14.019 12.7245 13.6048V8.47651C12.7245 8.0623 12.3887 7.72651 11.9745 7.72651C11.5603 7.72651 11.2245 8.0623 11.2245 8.47651V13.6048Z" fill="#121212"/>
</svg>
