<svg width="24" height="24" viewBox="0 0 24 24" fill="none" xmlns="http://www.w3.org/2000/svg">
<g clip-path="url(#clip0_3673_26635)">
<path fill-rule="evenodd" clip-rule="evenodd" d="M18.6302 7.33206C16.7063 4.5292 13.1596 3.10393 9.69107 4.03333C6.56109 4.87201 4.33472 7.40253 3.73525 10.3805C3.65351 10.7866 3.25806 11.0495 2.852 10.9678C2.44593 10.886 2.18301 10.4906 2.26475 10.0845C2.97233 6.5694 5.60146 3.57623 9.30284 2.58445C13.4045 1.4854 17.5945 3.17265 19.8669 6.48318L19.8978 6.52821C19.918 6.42058 19.9342 6.29873 19.9462 6.15987C20.0006 5.52877 19.9579 4.68514 19.8932 3.45553C19.8714 3.04189 20.1891 2.68892 20.6028 2.66715C21.0164 2.64538 21.3694 2.96305 21.3911 3.37669L21.3941 3.43306C21.4552 4.59242 21.5051 5.54112 21.4406 6.28872C21.3733 7.06983 21.173 7.75856 20.6293 8.30221C20.0857 8.84586 19.3969 9.04621 18.6158 9.11356C17.8682 9.17802 16.9195 9.12807 15.7601 9.06702L15.7038 9.06405C15.2901 9.04228 14.9725 8.68931 14.9942 8.27567C15.016 7.86203 15.369 7.54436 15.7826 7.56613C17.0122 7.63084 17.8559 7.67352 18.4869 7.6191C18.6028 7.60911 18.7068 7.59615 18.8007 7.58041L18.6302 7.33206Z" fill="#121212"/>
<path fill-rule="evenodd" clip-rule="evenodd" d="M20.9849 13.0322C21.3909 13.114 21.6538 13.5094 21.5721 13.9155C20.8645 17.4306 18.2354 20.4238 14.534 21.4155C10.4323 22.5146 6.24234 20.8273 3.96997 17.5168L3.93907 17.4718C3.91888 17.5794 3.90264 17.7013 3.89067 17.8401C3.83626 18.4712 3.87893 19.3149 3.94365 20.5445C3.96542 20.9581 3.64775 21.3111 3.2341 21.3328C2.82046 21.3546 2.46749 21.0369 2.44572 20.6233L2.44276 20.567C2.38171 19.4076 2.33176 18.4589 2.39622 17.7113C2.46357 16.9302 2.66391 16.2414 3.20756 15.6978C3.75121 15.1541 4.43995 14.9538 5.22106 14.8864C5.96867 14.822 6.91739 14.8719 8.07678 14.933L8.13308 14.9359C8.54672 14.9577 8.8644 15.3107 8.84263 15.7243C8.82086 16.138 8.46789 16.4556 8.05425 16.4339C6.82464 16.3691 5.98101 16.3265 5.34991 16.3809C5.23404 16.3909 5.13001 16.4038 5.0362 16.4196L5.20667 16.6679C7.13056 19.4708 10.6772 20.8961 14.1458 19.9667C17.2758 19.128 19.5021 16.5975 20.1016 13.6195C20.1833 13.2134 20.5788 12.9505 20.9849 13.0322Z" fill="#121212"/>
</g>
<defs>
<clipPath id="clip0_3673_26635">
<rect width="24" height="24" fill="white"/>
</clipPath>
</defs>
</svg>
