<svg width="20" height="20" viewBox="0 0 20 20" fill="none" xmlns="http://www.w3.org/2000/svg">
<path fill-rule="evenodd" clip-rule="evenodd" d="M18 10C18 14.4183 14.4183 18 10 18C5.58172 18 2 14.4183 2 10C2 5.58172 5.58172 2 10 2C14.4183 2 18 5.58172 18 10ZM10 11C9.58579 11 9.25 10.6642 9.25 10.25V6.25C9.25 5.83579 9.58579 5.5 10 5.5C10.4142 5.5 10.75 5.83579 10.75 6.25V10.25C10.75 10.6642 10.4142 11 10 11ZM10 12.25C9.44772 12.25 9 12.6977 9 13.25C9 13.8023 9.44772 14.25 10 14.25C10.5523 14.25 11 13.8023 11 13.25C11 12.6977 10.5523 12.25 10 12.25Z" fill="#121212"/>
</svg>
