<svg width="18" height="14" viewBox="0 0 18 14" fill="none" xmlns="http://www.w3.org/2000/svg">
<path fill-rule="evenodd" clip-rule="evenodd" d="M2.5 0.5C1.39543 0.5 0.5 1.39543 0.5 2.5V11.5C0.5 12.6046 1.39543 13.5 2.5 13.5H15.5C16.6046 13.5 17.5 12.6046 17.5 11.5V2.5C17.5 1.39543 16.6046 0.5 15.5 0.5H2.5ZM9.55046 8.13706C9.21651 8.35724 8.78349 8.35724 8.44954 8.13706L2.82169 4.42639C2.62086 4.29397 2.5 4.06952 2.5 3.82896C2.5 3.25907 3.13372 2.91784 3.6095 3.23154L8.44954 6.42277C8.78349 6.64296 9.21651 6.64296 9.55046 6.42277L14.3905 3.23154C14.8663 2.91784 15.5 3.25907 15.5 3.82896C15.5 4.06952 15.3791 4.29397 15.1783 4.42639L9.55046 8.13706Z" fill="#FAFAFA"/>
</svg>
