<svg width="9" height="13" viewBox="0 0 9 13" fill="none" xmlns="http://www.w3.org/2000/svg">
<path d="M4.5 5.5C5.05228 5.5 5.5 5.05228 5.5 4.5C5.5 3.94772 5.05228 3.5 4.5 3.5C3.94772 3.5 3.5 3.94772 3.5 4.5C3.5 5.05228 3.94772 5.5 4.5 5.5Z" fill="#777777"/>
<path fill-rule="evenodd" clip-rule="evenodd" d="M8.5 4.5C8.5 6.53981 6.97316 8.223 5 8.46905V12.5H4L4 8.46905C2.02684 8.223 0.5 6.53981 0.5 4.5C0.5 2.29086 2.29086 0.5 4.5 0.5C6.70914 0.5 8.5 2.29086 8.5 4.5ZM4.5 7.5C6.15685 7.5 7.5 6.15685 7.5 4.5C7.5 2.84315 6.15685 1.5 4.5 1.5C2.84315 1.5 1.5 2.84315 1.5 4.5C1.5 6.15685 2.84315 7.5 4.5 7.5Z" fill="#777777"/>
</svg>
