<svg width="25" height="24" viewBox="0 0 25 24" fill="none" xmlns="http://www.w3.org/2000/svg">
<path fill-rule="evenodd" clip-rule="evenodd" d="M5.27002 5C5.27002 3.48122 6.50124 2.25 8.02002 2.25H17.02C18.5388 2.25 19.77 3.48122 19.77 5V18.8484C19.77 20.8642 17.673 22.195 15.8491 21.3367L15.2785 21.0682C14.9499 20.9136 14.5704 20.9095 14.2386 21.0569L13.6369 21.3243C12.9258 21.6404 12.1142 21.6404 11.4031 21.3243L10.8015 21.0569C10.4696 20.9095 10.0901 20.9136 9.76155 21.0682L9.19096 21.3367C7.36703 22.195 5.27002 20.8642 5.27002 18.8484V5ZM8.02002 3.75C7.32966 3.75 6.77002 4.30964 6.77002 5V18.8484C6.77002 19.7647 7.72321 20.3696 8.55227 19.9795L9.12285 19.7109C9.84567 19.3708 10.6807 19.3618 11.4107 19.6862L12.0123 19.9536C12.3356 20.0973 12.7045 20.0973 13.0277 19.9536L13.6294 19.6862C14.3594 19.3618 15.1944 19.3708 15.9172 19.7109L16.4878 19.9795C17.3168 20.3696 18.27 19.7647 18.27 18.8484V5C18.27 4.30964 17.7104 3.75 17.02 3.75H8.02002ZM8.77002 8.25C8.77002 7.83579 9.10581 7.5 9.52002 7.5H15.52C15.9342 7.5 16.27 7.83579 16.27 8.25C16.27 8.66421 15.9342 9 15.52 9H9.52002C9.10581 9 8.77002 8.66421 8.77002 8.25ZM8.77002 10.75C8.77002 10.3358 9.10581 10 9.52002 10H13.52C13.9342 10 14.27 10.3358 14.27 10.75C14.27 11.1642 13.9342 11.5 13.52 11.5H9.52002C9.10581 11.5 8.77002 11.1642 8.77002 10.75ZM8.77002 13.25C8.77002 12.8358 9.10581 12.5 9.52002 12.5H15.52C15.9342 12.5 16.27 12.8358 16.27 13.25C16.27 13.6642 15.9342 14 15.52 14H9.52002C9.10581 14 8.77002 13.6642 8.77002 13.25ZM8.77002 15.75C8.77002 15.3358 9.10581 15 9.52002 15H13.52C13.9342 15 14.27 15.3358 14.27 15.75C14.27 16.1642 13.9342 16.5 13.52 16.5H9.52002C9.10581 16.5 8.77002 16.1642 8.77002 15.75Z" fill="#121212" fill-opacity="0.595"/>
</svg>
