<svg width="24" height="24" viewBox="0 0 24 24" fill="none" xmlns="http://www.w3.org/2000/svg">
<path d="M6 11.6508C6 12.7553 5.10457 13.6508 4 13.6508C2.89543 13.6508 2 12.7553 2 11.6508C2 10.5462 2.89543 9.65076 4 9.65076C5.10457 9.65076 6 10.5462 6 11.6508Z" fill="#121212"/>
<path d="M14 11.6508C14 12.7553 13.1046 13.6508 12 13.6508C10.8954 13.6508 10 12.7553 10 11.6508C10 10.5462 10.8954 9.65076 12 9.65076C13.1046 9.65076 14 10.5462 14 11.6508Z" fill="#121212"/>
<path d="M22 11.6508C22 12.7553 21.1046 13.6508 20 13.6508C18.8954 13.6508 18 12.7553 18 11.6508C18 10.5462 18.8954 9.65076 20 9.65076C21.1046 9.65076 22 10.5462 22 11.6508Z" fill="#121212"/>
</svg>
