<svg width="24" height="24" viewBox="0 0 24 24" fill="none" xmlns="http://www.w3.org/2000/svg">
<path fill-rule="evenodd" clip-rule="evenodd" d="M6.01918 1.02004C6.09063 0.978787 6.182 1.00327 6.22325 1.07472L7.34802 3.02298C8.32148 2.1453 9.63563 1.5552 11.1057 1.41342H12.4819C13.9513 1.55518 15.2648 2.14478 16.2381 3.02171L17.3622 1.07472C17.4035 1.00327 17.4949 0.978787 17.5663 1.02004C17.6378 1.06129 17.6622 1.15266 17.621 1.22411L16.4609 3.23341C17.3852 4.16002 17.9504 5.36469 17.9688 6.68396H5.6188C5.63717 5.36529 6.20186 4.16117 7.1253 3.23477L5.96449 1.22411C5.92324 1.15265 5.94773 1.06129 6.01918 1.02004ZM5.57812 7.26862C5.5736 7.32054 5.56966 7.37304 5.56966 7.42612V16.3261C5.56966 17.2832 6.32727 18.0543 7.26778 18.0543H7.3329V21.5743C7.3329 22.3305 7.946 22.9435 8.70217 22.9435C9.45845 22.9435 10.0715 22.3305 10.0715 21.5743V18.0543H13.5127V21.5746C13.5127 22.3308 14.1258 22.9438 14.882 22.9438C15.6383 22.9438 16.2514 22.3308 16.2514 21.5746V18.0543H16.3184C17.259 18.0543 18.0167 17.2831 18.0167 16.3261V7.42612C18.0167 7.37304 18.0147 7.32035 18.0103 7.26862H5.57812ZM4.73864 9.42999C4.73864 8.67371 4.12554 8.06062 3.36937 8.06062C2.613 8.06062 1.9999 8.67381 2 9.43008V15.3043C2 16.0605 2.61309 16.6736 3.36937 16.6736C4.12554 16.6736 4.73864 16.0605 4.73864 15.3042V9.42999ZM20.2169 8.06062C20.9731 8.06062 21.5861 8.67371 21.5861 9.42999V15.3042C21.5861 16.0605 20.9731 16.6736 20.2169 16.6736C19.4606 16.6736 18.8475 16.0605 18.8475 15.3043V9.43008C18.8475 8.67381 19.4606 8.06062 20.2169 8.06062ZM9.9528 4.23441C9.95395 4.61653 9.63769 4.92722 9.24634 4.92827C8.85517 4.92924 8.53708 4.62038 8.53593 4.23825V4.23441C8.53487 3.85219 8.85113 3.5416 9.24239 3.54054C9.63356 3.53948 9.95164 3.84824 9.9528 4.23056V4.23441ZM15.241 4.23441C15.2422 4.61653 14.9259 4.92722 14.5346 4.92827C14.1434 4.92924 13.8253 4.62038 13.8242 4.23825V4.23441C13.8231 3.85219 14.1394 3.5416 14.5306 3.54054C14.9218 3.53948 15.2399 3.84824 15.241 4.23056V4.23441Z" fill="#121212"/>
</svg>
