<svg width="24" height="24" viewBox="0 0 24 24" fill="none" xmlns="http://www.w3.org/2000/svg">
<path fill-rule="evenodd" clip-rule="evenodd" d="M19.7267 16.3103L13.8368 5.59646C13.0331 4.13451 10.9669 4.13451 10.1632 5.59646L4.27331 16.3103C3.47505 17.7624 4.5289 19.5 6.11015 19.5H17.8899C19.4711 19.5 20.5249 17.7624 19.7267 16.3103ZM15.1513 4.87384C13.7778 2.37538 10.2222 2.37539 8.8487 4.87385L2.95884 15.5877C1.62394 18.0159 3.36142 21 6.11015 21H17.8899C20.6386 21 22.3761 18.0159 21.0412 15.5877L15.1513 4.87384ZM12 7.75C12.4142 7.75 12.75 8.08579 12.75 8.5V13.5C12.75 13.9142 12.4142 14.25 12 14.25C11.5858 14.25 11.25 13.9142 11.25 13.5V8.5C11.25 8.08579 11.5858 7.75 12 7.75ZM12 17.5C12.5523 17.5 13 17.0523 13 16.5C13 15.9477 12.5523 15.5 12 15.5C11.4477 15.5 11 15.9477 11 16.5C11 17.0523 11.4477 17.5 12 17.5Z" fill="#121212"/>
</svg>
