<svg width="40" height="40" viewBox="0 0 40 40" fill="none" xmlns="http://www.w3.org/2000/svg">
<path d="M20 4C28.8366 4 36 11.1634 36 20C36 28.8366 28.8366 36 20 36C11.1634 36 4 28.8366 4 20C4 11.1634 11.1634 4 20 4Z" fill="#FDEAB4"/>
<path d="M18.5695 12.356C19.2081 11.2147 20.7919 11.2147 21.4305 12.356L23.0223 15.2011C23.2562 15.6192 23.6482 15.9157 24.1025 16.0181L27.1936 16.7149C28.4336 16.9945 28.923 18.5626 28.0777 19.5476L25.9703 22.0028C25.6607 22.3636 25.5109 22.8433 25.5578 23.3247L25.8764 26.6004C26.0042 27.9146 24.7228 28.8837 23.5618 28.3511L20.6676 27.0234C20.2423 26.8283 19.7577 26.8283 19.3324 27.0234L16.4382 28.3511C15.2772 28.8837 13.9958 27.9146 14.1236 26.6004L14.4422 23.3247C14.4891 22.8433 14.3393 22.3636 14.0297 22.0028L11.9223 19.5476C11.077 18.5626 11.5664 16.9945 12.8064 16.7149L15.8975 16.0181C16.3518 15.9157 16.7438 15.6192 16.9777 15.2011L18.5695 12.356Z" fill="#FFBB00"/>
<circle cx="31" cy="9" r="5" fill="#FF513A"/>
</svg>
