<svg width="16" height="16" viewBox="0 0 16 16" fill="none" xmlns="http://www.w3.org/2000/svg">
<path fill-rule="evenodd" clip-rule="evenodd" d="M3.95413 0.524687C3.68137 0.836414 3.71296 1.31024 4.02469 1.583L8.58434 5.57269C9.40241 6.2885 9.95491 6.77428 10.3129 7.18891C10.657 7.58743 10.7314 7.82028 10.7314 8.01857C10.7314 8.21685 10.657 8.44971 10.3129 8.84822C9.95491 9.26285 9.40241 9.74863 8.58434 10.4644L4.02469 14.4541C3.71296 14.7269 3.68137 15.2007 3.95413 15.5124C4.22689 15.8242 4.70072 15.8558 5.01244 15.583L9.61426 11.5564C10.3794 10.8869 11.0132 10.3324 11.4483 9.82849C11.9053 9.29919 12.2314 8.72782 12.2314 8.01857C12.2314 7.30931 11.9053 6.73794 11.4483 6.20864C11.0132 5.7047 10.3794 5.15018 9.61424 4.48071L5.01244 0.454132C4.70072 0.181371 4.22689 0.212959 3.95413 0.524687Z" fill="#FAFAFA"/>
</svg>
