<svg width="24" height="24" viewBox="0 0 24 24" fill="none" xmlns="http://www.w3.org/2000/svg">
<path fill-rule="evenodd" clip-rule="evenodd" d="M11 2.25C10.0335 2.25 9.25 3.0335 9.25 4V5.25L4 5.25C3.58579 5.25 3.25 5.58579 3.25 6C3.25 6.41421 3.58579 6.75 4 6.75H4.75V19C4.75 20.5188 5.98122 21.75 7.5 21.75H16.5C18.0188 21.75 19.25 20.5188 19.25 19V6.75H20C20.4142 6.75 20.75 6.41422 20.75 6C20.75 5.58579 20.4142 5.25 20 5.25L14.75 5.25V4C14.75 3.0335 13.9665 2.25 13 2.25H11ZM13.25 5.25V4C13.25 3.86193 13.1381 3.75 13 3.75H11C10.8619 3.75 10.75 3.86193 10.75 4V5.25H13.25ZM6.25 6.75L17.75 6.75V19C17.75 19.6904 17.1904 20.25 16.5 20.25H7.5C6.80964 20.25 6.25 19.6904 6.25 19V6.75ZM11.25 9C11.25 8.58579 11.5858 8.25 12 8.25C12.4142 8.25 12.75 8.58579 12.75 9V18C12.75 18.4142 12.4142 18.75 12 18.75C11.5858 18.75 11.25 18.4142 11.25 18V9ZM9 8.25C8.58579 8.25 8.25 8.58579 8.25 9L8.25 18C8.25 18.4142 8.58579 18.75 9 18.75C9.41421 18.75 9.75 18.4142 9.75 18L9.75 9C9.75 8.58579 9.41421 8.25 9 8.25ZM14.25 9C14.25 8.58579 14.5858 8.25 15 8.25C15.4142 8.25 15.75 8.58579 15.75 9V18C15.75 18.4142 15.4142 18.75 15 18.75C14.5858 18.75 14.25 18.4142 14.25 18V9Z" fill="#121212"/>
</svg>
