<svg width="24" height="24" viewBox="0 0 24 24" fill="none" xmlns="http://www.w3.org/2000/svg">
<path fill-rule="evenodd" clip-rule="evenodd" d="M1.24998 15.052V8.948C1.24995 8.04952 1.24993 7.3003 1.32989 6.70552C1.4143 6.07772 1.59997 5.51092 2.05544 5.05545C2.51091 4.59998 3.07771 4.41431 3.7055 4.32991C4.30029 4.24994 5.04951 4.24997 5.94799 4.25H18.0515C18.95 4.24997 19.6992 4.24994 20.294 4.32991C20.9218 4.41431 21.4886 4.59998 21.944 5.05545C22.3995 5.51092 22.5852 6.07772 22.6696 6.70552C22.7496 7.3003 22.7495 8.04952 22.7495 8.948V15.052C22.7495 15.9505 22.7496 16.6997 22.6696 17.2945C22.5852 17.9223 22.3995 18.4891 21.944 18.9445C21.4886 19.4 20.9218 19.5857 20.294 19.6701C19.6992 19.7501 18.95 19.75 18.0515 19.75H5.94798C5.0495 19.75 4.30029 19.7501 3.7055 19.6701C3.07771 19.5857 2.51091 19.4 2.05544 18.9445C1.59997 18.4891 1.4143 17.9223 1.32989 17.2945C1.24993 16.6997 1.24995 15.9505 1.24998 15.052ZM2.81652 17.0946C2.87856 17.5561 2.98578 17.7536 3.1161 17.8839C3.24642 18.0142 3.44391 18.1214 3.90538 18.1835C4.38841 18.2484 5.03597 18.25 5.99998 18.25H17.9995C18.9635 18.25 19.6111 18.2484 20.0941 18.1835C20.5556 18.1214 20.7531 18.0142 20.8834 17.8839C21.0137 17.7536 21.1209 17.5561 21.183 17.0946C21.2479 16.6116 21.2495 15.964 21.2495 15V9C21.2495 8.03599 21.2479 7.38843 21.183 6.90539C21.1209 6.44393 21.0137 6.24643 20.8834 6.11611C20.7531 5.9858 20.5556 5.87858 20.0941 5.81653C19.6111 5.75159 18.9635 5.75 17.9995 5.75H5.99998C5.03597 5.75 4.38841 5.75159 3.90538 5.81653C3.44391 5.87858 3.24642 5.9858 3.1161 6.11611C2.98578 6.24643 2.87856 6.44393 2.81652 6.90539C2.75158 7.38843 2.74998 8.03599 2.74998 9V15C2.74998 15.964 2.75158 16.6116 2.81652 17.0946Z" fill="#121212"/>
<path fill-rule="evenodd" clip-rule="evenodd" d="M21.4939 5.43558C21.1822 5.16282 20.7083 5.1944 20.4356 5.50613L14.4459 12.3515C13.7301 13.1696 13.2443 13.7221 12.8297 14.0801C12.4311 14.4241 12.1983 14.4985 12 14.4985C11.8017 14.4985 11.5689 14.4241 11.1703 14.0801C10.7557 13.7221 10.2699 13.1696 9.55412 12.3515L3.56443 5.50613C3.29167 5.1944 2.81785 5.16282 2.50612 5.43558C2.19439 5.70834 2.16281 6.18216 2.43557 6.49389L8.46213 13.3814C9.13161 14.1466 9.68613 14.7803 10.1901 15.2154C10.7194 15.6724 11.2907 15.9985 12 15.9985C12.7093 15.9985 13.2806 15.6724 13.8099 15.2154C14.3139 14.7803 14.8684 14.1466 15.5379 13.3814L21.5644 6.49389C21.8372 6.18216 21.8056 5.70834 21.4939 5.43558Z" fill="#121212"/>
<path fill-rule="evenodd" clip-rule="evenodd" d="M2.50612 18.5644C2.81785 18.8372 3.29167 18.8056 3.56443 18.4939L8.62693 12.7082C8.89969 12.3964 8.8681 11.9226 8.55638 11.6498C8.24465 11.3771 7.77083 11.4087 7.49807 11.7204L2.43557 17.5061C2.1628 17.8178 2.19439 18.2917 2.50612 18.5644ZM21.4939 18.5644C21.8056 18.2917 21.8372 17.8178 21.5644 17.5061L16.5019 11.7204C16.2292 11.4087 15.7553 11.3771 15.4436 11.6498C15.1319 11.9226 15.1003 12.3964 15.3731 12.7082L20.4356 18.4939C20.7083 18.8056 21.1821 18.8372 21.4939 18.5644Z" fill="#121212"/>
</svg>
