<svg width="24" height="24" viewBox="0 0 24 24" fill="none" xmlns="http://www.w3.org/2000/svg">
<path fill-rule="evenodd" clip-rule="evenodd" d="M4.25 17.052L4.25 8.948C4.24997 8.04952 4.24995 7.3003 4.32991 6.70552C4.41432 6.07772 4.59999 5.51093 5.05546 5.05545C5.51093 4.59999 6.07773 4.41431 6.70552 4.32991C7.30031 4.24994 8.04953 4.24997 8.94801 4.25H12.052C12.9505 4.24997 13.6997 4.24994 14.2945 4.32991C14.9223 4.41431 15.4891 4.59999 15.9445 5.05545C16.4 5.51093 16.5857 6.07772 16.6701 6.70552C16.7501 7.3003 16.75 8.04952 16.75 8.948V17.052C16.75 17.9505 16.7501 18.6997 16.6701 19.2945C16.5857 19.9223 16.4 20.4891 15.9445 20.9445C15.4891 21.4 14.9223 21.5857 14.2945 21.6701C13.6997 21.7501 12.9505 21.75 12.052 21.75H8.948C8.04952 21.75 7.3003 21.7501 6.70552 21.6701C6.07773 21.5857 5.51093 21.4 5.05546 20.9445C4.59999 20.4891 4.41432 19.9223 4.32991 19.2945C4.24995 18.6997 4.24997 17.9505 4.25 17.052ZM5.81654 19.0946C5.87858 19.5561 5.9858 19.7536 6.11612 19.8839C6.24644 20.0142 6.44393 20.1214 6.90539 20.1835C7.38843 20.2484 8.03599 20.25 9 20.25H12C12.964 20.25 13.6116 20.2484 14.0946 20.1835C14.5561 20.1214 14.7536 20.0142 14.8839 19.8839C15.0142 19.7536 15.1214 19.5561 15.1835 19.0946C15.2484 18.6116 15.25 17.964 15.25 17L15.25 9C15.25 8.03599 15.2484 7.38843 15.1835 6.90539C15.1214 6.44393 15.0142 6.24643 14.8839 6.11611C14.7536 5.9858 14.5561 5.87858 14.0946 5.81653C13.6116 5.75159 12.964 5.75 12 5.75H9C8.03599 5.75 7.38843 5.75159 6.90539 5.81653C6.44393 5.87858 6.24644 5.9858 6.11612 6.11611C5.9858 6.24643 5.87858 6.44393 5.81654 6.90539C5.7516 7.38843 5.75 8.03599 5.75 9L5.75 17C5.75 17.964 5.7516 18.6116 5.81654 19.0946Z" fill="#121212"/>
<path fill-rule="evenodd" clip-rule="evenodd" d="M8.76729 3.95676C8.75041 4.20422 8.75 4.52381 8.75 5.00002H7.25L7.25 4.97477C7.24999 4.5303 7.24999 4.15926 7.27077 3.85465C7.29241 3.53755 7.33905 3.23803 7.45933 2.94764C7.73844 2.27381 8.27379 1.73846 8.94762 1.45935C9.23801 1.33907 9.53754 1.29242 9.85464 1.27079C10.1592 1.25 10.5303 1.25001 10.9747 1.25002H15.052C15.9505 1.24999 16.6997 1.24996 17.2945 1.32993C17.9223 1.41433 18.4891 1.6 18.9445 2.05547C19.4 2.51094 19.5857 3.07774 19.6701 3.70554C19.7501 4.30032 19.75 5.04954 19.75 5.94802L19.75 15.25C19.75 15.2872 19.75 15.3238 19.7501 15.36C19.7505 15.9494 19.7508 16.4052 19.6316 16.7983C19.365 17.6772 18.6772 18.365 17.7983 18.6316C17.4052 18.7508 16.9494 18.7505 16.3599 18.7501C16.3238 18.75 16.2872 18.75 16.25 18.75V17.25C17.0023 17.25 17.2123 17.2419 17.3629 17.1962C17.7624 17.075 18.075 16.7624 18.1962 16.3629C18.2419 16.2123 18.25 16.0024 18.25 15.25V6.00002C18.25 5.03601 18.2484 4.38844 18.1835 3.90541C18.1214 3.44395 18.0142 3.24645 17.8839 3.11613C17.7536 2.98582 17.5561 2.87859 17.0946 2.81655C16.6116 2.75161 15.964 2.75002 15 2.75002H11C10.5238 2.75002 10.2042 2.75042 9.95674 2.76731C9.71602 2.78373 9.5988 2.81321 9.52165 2.84517C9.21536 2.97203 8.97202 3.21538 8.84515 3.52166C8.81319 3.59881 8.78372 3.71603 8.76729 3.95676Z" fill="#121212"/>
</svg>
