<svg width="16" height="16" viewBox="0 0 16 16" fill="none" xmlns="http://www.w3.org/2000/svg">
<path fill-rule="evenodd" clip-rule="evenodd" d="M4.47207 4.87117C5.61786 2.72682 6.19075 1.65465 6.95325 1.30308C7.6175 0.996812 8.38255 0.996813 9.0468 1.30308C9.8093 1.65465 10.3822 2.72683 11.528 4.87118L13.9557 9.41479C14.9928 11.3557 15.5114 12.3261 15.4096 13.1183C15.3208 13.8097 14.9474 14.4327 14.3794 14.8368C13.7287 15.2999 12.6284 15.2999 10.4278 15.2999H5.57222C3.37163 15.2999 2.27133 15.2999 1.62058 14.8368C1.05261 14.4326 0.679185 13.8097 0.590391 13.1183C0.488655 12.3261 1.0072 11.3557 2.04428 9.41478L4.47207 4.87117ZM6.99997 12.3077C6.99997 11.7554 7.44769 11.3077 7.99997 11.3077C8.55226 11.3077 8.99997 11.7554 8.99997 12.3077C8.99997 12.8599 8.55226 13.3077 7.99997 13.3077C7.44769 13.3077 6.99997 12.8599 6.99997 12.3077ZM7.23014 9.61368C7.23014 10.0279 7.56592 10.3637 7.98014 10.3637C8.39435 10.3637 8.73014 10.0279 8.73014 9.61368V5.625C8.73014 5.21079 8.39435 4.875 7.98014 4.875C7.56592 4.875 7.23014 5.21079 7.23014 5.625V9.61368Z" fill="#121212"/>
</svg>
