<svg width="40" height="40" viewBox="0 0 40 40" fill="none" xmlns="http://www.w3.org/2000/svg">
<circle cx="20" cy="20" r="16" fill="#D4F5BC"/>
<path d="M17.8646 12.9533C18.6288 11.0156 21.3712 11.0156 22.1354 12.9533L23.1587 15.5481C23.3921 16.1396 23.8604 16.6079 24.4519 16.8413L27.0467 17.8646C28.9844 18.6288 28.9844 21.3712 27.0467 22.1354L24.4519 23.1587C23.8604 23.3921 23.3921 23.8604 23.1587 24.4519L22.1354 27.0467C21.3712 28.9844 18.6288 28.9844 17.8646 27.0467L16.8413 24.4519C16.6079 23.8604 16.1396 23.3921 15.5481 23.1587L12.9533 22.1354C11.0156 21.3712 11.0156 18.6288 12.9533 17.8646L15.5481 16.8413C16.1396 16.6079 16.6079 16.1396 16.8413 15.5481L17.8646 12.9533Z" fill="#24CC5C"/>
</svg>
