<svg width="32" height="32" viewBox="0 0 32 32" fill="none" xmlns="http://www.w3.org/2000/svg">
<path d="M32 16C32 24.8366 24.8366 32 16 32C7.16344 32 0 24.8366 0 16C0 7.16344 7.16344 0 16 0C24.8366 0 32 7.16344 32 16Z" fill="#E2F6C6"/>
<path d="M13.6067 12.1573C14.2899 10.425 14.6315 9.55885 15.093 9.26456C15.6462 8.91181 16.3538 8.91181 16.907 9.26456C17.3685 9.55885 17.7101 10.425 18.3933 12.1573V12.1573C18.532 12.5088 18.6013 12.6846 18.7028 12.8359C18.8251 13.0182 18.9818 13.1749 19.1641 13.2972C19.3154 13.3987 19.4912 13.468 19.8427 13.6067V13.6067C21.575 14.2899 22.4411 14.6315 22.7354 15.093C23.0882 15.6462 23.0882 16.3538 22.7354 16.907C22.4411 17.3685 21.575 17.7101 19.8427 18.3933V18.3933C19.4912 18.532 19.3154 18.6013 19.1641 18.7028C18.9818 18.8251 18.8251 18.9818 18.7028 19.1641C18.6013 19.3154 18.532 19.4912 18.3933 19.8427V19.8427C17.7101 21.575 17.3685 22.4411 16.907 22.7354C16.3538 23.0882 15.6462 23.0882 15.093 22.7354C14.6315 22.4411 14.2899 21.575 13.6067 19.8427V19.8427C13.468 19.4912 13.3987 19.3154 13.2972 19.1641C13.1749 18.9818 13.0182 18.8251 12.8359 18.7028C12.6846 18.6013 12.5088 18.532 12.1573 18.3933V18.3933C10.425 17.7101 9.55885 17.3685 9.26456 16.907C8.91181 16.3538 8.91181 15.6462 9.26456 15.093C9.55885 14.6315 10.425 14.2899 12.1573 13.6067V13.6067C12.5088 13.468 12.6846 13.3987 12.8359 13.2972C13.0182 13.1749 13.1749 13.0182 13.2972 12.8359C13.3987 12.6846 13.468 12.5088 13.6067 12.1573V12.1573Z" fill="#24CC5C"/>
</svg>
