<svg width="16" height="16" viewBox="0 0 16 16" fill="none" xmlns="http://www.w3.org/2000/svg">
<g clip-path="url(#clip0_252_3900)">
<path d="M5.13265 8.35546L5.78865 4.22746H5.08835C4.76096 4.22746 4.33881 4.04407 4.21573 3.70684C4.17511 3.59238 4.08158 3.19977 4.62188 2.81823C4.81511 2.68407 4.93942 2.53515 4.96404 2.42069C4.98988 2.30254 4.95912 2.19792 4.87542 2.11915C4.75604 2.00469 4.52342 1.93946 4.22558 1.93946C3.72465 1.93946 3.37142 2.22746 3.33696 2.43669C3.31235 2.59054 3.43173 2.71361 3.53512 2.79361C3.84773 3.02623 3.92281 3.36346 3.72958 3.68223C3.53019 4.00961 3.09942 4.22254 2.63788 4.22746H1.92281C1.86373 4.62992 0.890191 10.7924 0.816345 11.2785H4.69204C4.7265 11.0595 4.90496 9.89392 5.14865 8.35546H5.13265Z" fill="#121212"/>
<path d="M10.3229 0.615234H6.37709L5.85155 3.95431H6.52109C6.88909 3.95431 7.23617 3.7857 7.38509 3.54323C7.43432 3.46323 7.45401 3.39431 7.45401 3.32908C7.45401 3.19 7.36048 3.08662 7.26571 3.01647C7.00724 2.82323 6.95309 2.62016 6.95309 2.47616C6.95309 2.44662 6.95309 2.42077 6.95801 2.39616C7.01217 2.04416 7.48848 1.66262 8.11863 1.66262C8.49648 1.66262 8.78448 1.75123 8.95801 1.91493C9.11186 2.05893 9.17094 2.262 9.12663 2.47616C9.07248 2.72847 8.81894 2.9377 8.67494 3.04108C8.2934 3.30939 8.34263 3.54323 8.36724 3.61216C8.44724 3.82016 8.75001 3.95431 8.98263 3.95431H9.99924V3.95923C11.3888 3.96908 12.1334 4.60908 11.9008 6.09831C11.6817 7.48293 10.6196 8.07739 9.35432 8.08847L8.8534 11.2835H9.59309C12.7143 11.2835 15.2645 9.27862 15.7654 6.11308C16.3857 2.18323 13.8946 0.615234 10.3229 0.615234Z" fill="#121212"/>
<path d="M0.60767 12.7031H2.19044C2.8649 12.7031 3.02859 13.0453 2.97936 13.3579C2.93998 13.6114 2.76521 13.7997 2.46859 13.924C2.84521 14.068 2.99413 14.2908 2.93998 14.6428C2.86982 15.0846 2.48829 15.412 1.98613 15.412H0.185516L0.60767 12.7031ZM1.65382 13.8243C1.96152 13.8243 2.10552 13.6606 2.13505 13.4674C2.16582 13.2582 2.07105 13.1154 1.76336 13.1154H1.49013L1.38182 13.8243H1.65382ZM1.48521 14.996C1.80275 14.996 1.98613 14.8668 2.03167 14.6034C2.06613 14.3757 1.9369 14.2416 1.62921 14.2416H1.31659L1.19721 15.001H1.48521V14.996Z" fill="#121212"/>
<path d="M5.15841 15.4319C4.7461 15.4614 4.54794 15.4171 4.44825 15.2387C4.23041 15.3728 3.98671 15.4417 3.72948 15.4417C3.26302 15.4417 3.09933 15.1993 3.14364 14.931C3.16333 14.8017 3.23717 14.6774 3.35656 14.574C3.61502 14.35 4.2501 14.3205 4.49748 14.1519C4.51841 13.9636 4.44333 13.8947 4.21071 13.8947C3.93748 13.8947 3.70856 13.9833 3.31717 14.2516L3.41194 13.6362C3.74917 13.3925 4.07656 13.2793 4.45318 13.2793C4.93441 13.2793 5.36148 13.4774 5.28148 14.003L5.18794 14.5987C5.15348 14.8067 5.16333 14.8719 5.39594 14.8768L5.15841 15.4319ZM4.44333 14.499C4.22548 14.638 3.8181 14.6134 3.77379 14.9014C3.7541 15.0356 3.83779 15.134 3.97194 15.134C4.10117 15.134 4.25994 15.0799 4.38917 14.99C4.37933 14.9408 4.38425 14.8916 4.39902 14.7968L4.44333 14.499Z" fill="#121212"/>
<path d="M5.92718 13.3137H6.75056L6.70502 13.587C6.96841 13.363 7.16656 13.2793 7.42502 13.2793C7.88656 13.2793 8.09949 13.5611 8.02564 14.0227L7.81272 15.4073H6.9881L7.16656 14.2614C7.20225 14.0534 7.13702 13.9537 6.97825 13.9537C6.84902 13.9537 6.73087 14.0227 6.61641 14.1765L6.4281 15.4023H5.60349L5.92718 13.3137Z" fill="#121212"/>
<path d="M8.66622 12.7031H9.48961L9.28161 14.0323L10.0705 13.3136H11.0871L10.0755 14.2059L10.889 15.4071H9.85268L9.22745 14.4397H9.21638L9.06868 15.4071H8.24407L8.66622 12.7031Z" fill="#121212"/>
<path d="M11.5832 12.7031H12.5309L12.1137 15.4071H11.166L11.5832 12.7031Z" fill="#121212"/>
<path d="M12.9925 12.7031H14.3463C15.3937 12.7031 15.6965 13.4625 15.5968 14.0926C15.502 14.708 15.0158 15.4071 14.0989 15.4071H12.5703L12.9925 12.7031ZM13.87 14.7622C14.3315 14.7622 14.5851 14.5345 14.6589 14.0533C14.7131 13.6951 14.6048 13.3431 14.094 13.3431H13.8405L13.6226 14.7622H13.87Z" fill="#121212"/>
</g>
<defs>
<clipPath id="clip0_252_3900">
<rect width="16" height="16" fill="white"/>
</clipPath>
</defs>
</svg>
