<svg width="40" height="40" viewBox="0 0 40 40" fill="none" xmlns="http://www.w3.org/2000/svg">
<path fill-rule="evenodd" clip-rule="evenodd" d="M20 36C28.8366 36 36 28.8366 36 20C36 11.1634 28.8366 4 20 4C11.1635 4 4.00001 11.1634 4.00001 20C4.00001 28.8366 11.1635 36 20 36ZM27.1223 17.1839C27.6105 16.6958 27.6105 15.9043 27.1223 15.4162C26.6342 14.928 25.8427 14.928 25.3545 15.4162L17.8101 22.9606L14.584 19.7345C14.0959 19.2463 13.3044 19.2463 12.8162 19.7345C12.3281 20.2226 12.3281 21.0141 12.8162 21.5022L16.2191 24.9051C17.0978 25.7838 18.5224 25.7838 19.4011 24.9051L27.1223 17.1839Z" fill="#24CC5C"/>
</svg>
