<svg width="24" height="24" viewBox="0 0 24 24" fill="none" xmlns="http://www.w3.org/2000/svg">
<path fill-rule="evenodd" clip-rule="evenodd" d="M16.7073 21.4939C16.9801 21.1821 16.9485 20.7083 16.6368 20.4356L9.79139 14.4459C8.97332 13.7301 8.42081 13.2443 8.06282 12.8296C7.71875 12.4311 7.64434 12.1983 7.64434 12C7.64434 11.8017 7.71875 11.5688 8.06282 11.1703C8.42081 10.7557 8.97332 10.2699 9.79139 9.55412L16.6368 3.56442C16.9485 3.29166 16.9801 2.81784 16.7073 2.50611C16.4345 2.19438 15.9607 2.1628 15.649 2.43556L8.76149 8.46212C7.99632 9.1316 7.36255 9.68612 6.92745 10.1901C6.47046 10.7194 6.14434 11.2907 6.14434 12C6.14434 12.7092 6.47046 13.2806 6.92745 13.8099C7.36255 14.3139 7.99632 14.8684 8.76148 15.5378L15.649 21.5644C15.9607 21.8372 16.4345 21.8056 16.7073 21.4939Z" fill="#121212"/>
</svg>
