<svg width="24" height="24" viewBox="0 0 24 24" fill="none" xmlns="http://www.w3.org/2000/svg">
<path fill-rule="evenodd" clip-rule="evenodd" d="M2.49828 16.5575C2.80617 16.8346 3.28038 16.8096 3.55748 16.5017L9.5843 9.80525C10.2934 9.01737 10.7738 8.48617 11.1828 8.14207C11.5754 7.81182 11.8046 7.73969 12 7.73969C12.1954 7.73969 12.4246 7.81182 12.8172 8.14207C13.2262 8.48617 13.7066 9.01737 14.4157 9.80525L20.4425 16.5017C20.7196 16.8096 21.1938 16.8346 21.5017 16.5575C21.8096 16.2804 21.8346 15.8062 21.5575 15.4983L15.4937 8.76078C14.8311 8.02444 14.2814 7.41364 13.7828 6.99422C13.2586 6.55319 12.6953 6.23969 12 6.23969C11.3047 6.23969 10.7415 6.55319 10.2172 6.99422C9.71863 7.41364 9.16895 8.02443 8.50628 8.76077L2.44254 15.4983C2.16544 15.8062 2.1904 16.2804 2.49828 16.5575Z" fill="#121212"/>
</svg>
