<svg width="24" height="24" viewBox="0 0 24 24" fill="none" xmlns="http://www.w3.org/2000/svg">
<path fill-rule="evenodd" clip-rule="evenodd" d="M5.25 19C5.25 15.7021 8.40592 13.25 12 13.25C15.5941 13.25 18.75 15.7021 18.75 19C18.75 20.0887 17.7431 20.75 16.8 20.75H7.2C6.25689 20.75 5.25 20.0887 5.25 19ZM12 14.75C8.96666 14.75 6.75 16.775 6.75 19C6.75 19.0198 6.7577 19.0693 6.83161 19.1309C6.90712 19.1939 7.03494 19.25 7.2 19.25H16.8C16.9651 19.25 17.0929 19.1939 17.1684 19.1309C17.2423 19.0693 17.25 19.0198 17.25 19C17.25 16.775 15.0333 14.75 12 14.75Z" fill="#121212" fill-opacity="0.595"/>
<path fill-rule="evenodd" clip-rule="evenodd" d="M12 5.25C10.4812 5.25 9.25 6.48122 9.25 8C9.25 9.51878 10.4812 10.75 12 10.75C13.5188 10.75 14.75 9.51878 14.75 8C14.75 6.48122 13.5188 5.25 12 5.25ZM7.75 8C7.75 5.65279 9.65279 3.75 12 3.75C14.3472 3.75 16.25 5.65279 16.25 8C16.25 10.3472 14.3472 12.25 12 12.25C9.65279 12.25 7.75 10.3472 7.75 8Z" fill="#121212" fill-opacity="0.595"/>
</svg>
