<svg width="24" height="24" viewBox="0 0 24 24" fill="none" xmlns="http://www.w3.org/2000/svg">
<path fill-rule="evenodd" clip-rule="evenodd" d="M9.75 3V4H8.25V3C8.25 2.0335 9.0335 1.25 10 1.25L14 1.25C14.9665 1.25 15.75 2.0335 15.75 3V4L14.25 4V3C14.25 2.86193 14.1381 2.75 14 2.75L10 2.75C9.86193 2.75 9.75 2.86193 9.75 3Z" fill="#121212"/>
<path fill-rule="evenodd" clip-rule="evenodd" d="M4.25 17.052L4.25 8.69799C4.24997 7.79951 4.24995 7.05029 4.32991 6.45551C4.41432 5.82772 4.59999 5.26092 5.05546 4.80545C5.51093 4.34998 6.07773 4.16431 6.70552 4.0799C7.30031 3.99994 8.04953 3.99996 8.94801 3.99999L15.052 3.99999C15.9505 3.99996 16.6997 3.99994 17.2945 4.0799C17.9223 4.16431 18.4891 4.34998 18.9445 4.80545C19.4 5.26092 19.5857 5.82772 19.6701 6.45551C19.7501 7.05029 19.75 7.79951 19.75 8.698L19.75 17.052C19.75 17.9505 19.7501 18.6997 19.6701 19.2945C19.5857 19.9223 19.4 20.4891 18.9445 20.9445C18.4891 21.4 17.9223 21.5857 17.2945 21.6701C16.6997 21.7501 15.9505 21.75 15.052 21.75L8.948 21.75C8.04952 21.75 7.3003 21.7501 6.70552 21.6701C6.07773 21.5857 5.51093 21.4 5.05546 20.9445C4.59999 20.4891 4.41432 19.9223 4.32991 19.2945C4.24995 18.6997 4.24997 17.9505 4.25 17.052ZM5.81654 19.0946C5.87858 19.5561 5.9858 19.7536 6.11612 19.8839C6.24644 20.0142 6.44393 20.1214 6.90539 20.1835C7.38843 20.2484 8.03599 20.25 9 20.25L15 20.25C15.964 20.25 16.6116 20.2484 17.0946 20.1835C17.5561 20.1214 17.7536 20.0142 17.8839 19.8839C18.0142 19.7536 18.1214 19.5561 18.1835 19.0946C18.2484 18.6116 18.25 17.964 18.25 17L18.25 8.74999C18.25 7.78598 18.2484 7.13842 18.1835 6.65538C18.1214 6.19392 18.0142 5.99642 17.8839 5.86611C17.7536 5.73579 17.5561 5.62857 17.0946 5.56652C16.6116 5.50158 15.964 5.49999 15 5.49999L9 5.49999C8.03599 5.49999 7.38843 5.50158 6.90539 5.56652C6.44393 5.62857 6.24644 5.73579 6.11612 5.86611C5.9858 5.99642 5.87858 6.19392 5.81654 6.65538C5.7516 7.13842 5.75 7.78598 5.75 8.74999L5.75 17C5.75 17.964 5.7516 18.6116 5.81654 19.0946Z" fill="#121212"/>
<path fill-rule="evenodd" clip-rule="evenodd" d="M10.1256 13.9359C10.1345 13.9269 10.1436 13.9179 10.1526 13.9089L11.7332 12.3283C11.7422 12.3193 11.7512 12.3102 11.7602 12.3013C12.0233 12.0381 12.2647 11.7967 12.4864 11.6213C12.7283 11.4299 13.0196 11.2562 13.3923 11.2159C13.5175 11.2023 13.6438 11.2023 13.769 11.2159C14.1417 11.2562 14.433 11.4299 14.6749 11.6213C14.8966 11.7967 15.138 12.0381 15.4011 12.3013C15.4101 12.3102 15.4191 12.3193 15.4281 12.3283C15.4372 12.3373 15.4462 12.3464 15.4552 12.3553C15.7183 12.6184 15.9597 12.8598 16.1351 13.0815C16.3266 13.3235 16.5002 13.6147 16.5406 13.9875C16.5541 14.1126 16.5541 14.2389 16.5406 14.3641C16.5002 14.7368 16.3266 15.0281 16.1351 15.2701C15.9597 15.4917 15.7183 15.7331 15.4552 15.9962C15.4462 16.0052 15.4372 16.0142 15.4281 16.0232L13.8475 17.6038C13.8385 17.6129 13.8295 17.6219 13.8205 17.6309C13.5574 17.894 13.316 18.1354 13.0944 18.3108C12.8524 18.5023 12.5611 18.6759 12.1884 18.7163C12.0632 18.7298 11.9369 18.7298 11.8118 18.7163C11.439 18.6759 11.1478 18.5023 10.9058 18.3108C10.6841 18.1354 10.4427 17.894 10.1796 17.6309C10.1706 17.6219 10.1616 17.6129 10.1526 17.6038C10.1436 17.5948 10.1345 17.5858 10.1256 17.5768C9.86242 17.3137 9.62099 17.0723 9.4456 16.8506C9.25416 16.6087 9.0805 16.3174 9.04016 15.9447C9.02661 15.8195 9.02661 15.6932 9.04016 15.568C9.0805 15.1953 9.25416 14.904 9.4456 14.6621C9.62099 14.4404 9.86242 14.199 10.1256 13.9359ZM10.5299 15.7365C10.5297 15.7366 10.53 15.7351 10.5311 15.7318C10.5307 15.7348 10.5301 15.7364 10.5299 15.7365ZM10.5312 15.7315C10.536 15.7182 10.5556 15.6767 10.622 15.5927C10.7365 15.448 10.9141 15.2687 11.2133 14.9695L12.7938 13.389C13.093 13.0898 13.2723 12.9122 13.417 12.7977C13.501 12.7313 13.5425 12.7117 13.5558 12.7069C13.5723 12.7053 13.589 12.7053 13.6055 12.7069C13.6188 12.7117 13.6603 12.7313 13.7442 12.7977C13.889 12.9122 14.0683 13.0898 14.3675 13.389C14.6667 13.6882 14.8442 13.8674 14.9588 14.0122C15.0251 14.0961 15.0447 14.1376 15.0495 14.151C15.0511 14.1675 15.0511 14.1841 15.0495 14.2006C15.0447 14.2139 15.0251 14.2555 14.9588 14.3394C14.8442 14.4841 14.6667 14.6634 14.3675 14.9626L12.7869 16.5432C12.4877 16.8424 12.3084 17.0199 12.1637 17.1345C12.0798 17.2008 12.0382 17.2204 12.0249 17.2252C12.0084 17.2268 11.9918 17.2268 11.9753 17.2252C11.9619 17.2204 11.9204 17.2008 11.8365 17.1345C11.6917 17.0199 11.5125 16.8424 11.2133 16.5432C10.9141 16.244 10.7365 16.0647 10.622 15.92C10.5556 15.836 10.536 15.7945 10.5312 15.7812C10.5296 15.7647 10.5296 15.748 10.5312 15.7315ZM10.5299 15.7762C10.5301 15.7763 10.5307 15.7779 10.5311 15.7809C10.53 15.7776 10.5297 15.7761 10.5299 15.7762ZM11.9802 17.2265C11.9803 17.2267 11.9788 17.2264 11.9755 17.2253C11.9785 17.2258 11.9801 17.2263 11.9802 17.2265ZM12.0199 17.2265C12.02 17.2263 12.0216 17.2258 12.0246 17.2253C12.0213 17.2264 12.0198 17.2267 12.0199 17.2265ZM15.0508 14.1956C15.051 14.1955 15.0507 14.197 15.0496 14.2003C15.0501 14.1973 15.0506 14.1957 15.0508 14.1956ZM15.0508 14.1559C15.0506 14.1558 15.0501 14.1542 15.0496 14.1512C15.0507 14.1545 15.051 14.156 15.0508 14.1559ZM13.6005 12.7056C13.6004 12.7054 13.6019 12.7057 13.6052 12.7068C13.6022 12.7064 13.6006 12.7058 13.6005 12.7056ZM13.5608 12.7056C13.5607 12.7058 13.5591 12.7064 13.5561 12.7068C13.5594 12.7057 13.5609 12.7054 13.5608 12.7056Z" fill="#121212"/>
</svg>
