<svg width="24" height="24" viewBox="0 0 24 24" fill="none" xmlns="http://www.w3.org/2000/svg">
<path fill-rule="evenodd" clip-rule="evenodd" d="M9.25 4C9.25 3.0335 10.0335 2.25 11 2.25H13C13.9665 2.25 14.75 3.0335 14.75 4V5.25H16.5C18.0188 5.25 19.25 6.48122 19.25 8V18C19.25 19.5188 18.0188 20.75 16.5 20.75H16C16 21.3023 15.5523 21.75 15 21.75C14.4477 21.75 14 21.3023 14 20.75H10C10 21.3023 9.55229 21.75 9 21.75C8.44771 21.75 8 21.3023 8 20.75H7.5C5.98122 20.75 4.75 19.5188 4.75 18V8C4.75 6.48122 5.98122 5.25 7.5 5.25H9.25V4ZM13.25 4V5.25H10.75V4C10.75 3.86193 10.8619 3.75 11 3.75H13C13.1381 3.75 13.25 3.86193 13.25 4ZM7.5 6.75C6.80964 6.75 6.25 7.30964 6.25 8V18C6.25 18.6904 6.80964 19.25 7.5 19.25H16.5C17.1904 19.25 17.75 18.6904 17.75 18V8C17.75 7.30964 17.1904 6.75 16.5 6.75H7.5ZM11.25 9C11.25 8.58579 11.5858 8.25 12 8.25C12.4142 8.25 12.75 8.58579 12.75 9V17C12.75 17.4142 12.4142 17.75 12 17.75C11.5858 17.75 11.25 17.4142 11.25 17V9ZM9 8.25C8.58579 8.25 8.25 8.58579 8.25 9V17C8.25 17.4142 8.58579 17.75 9 17.75C9.41421 17.75 9.75 17.4142 9.75 17V9C9.75 8.58579 9.41421 8.25 9 8.25ZM14.25 9C14.25 8.58579 14.5858 8.25 15 8.25C15.4142 8.25 15.75 8.58579 15.75 9V17C15.75 17.4142 15.4142 17.75 15 17.75C14.5858 17.75 14.25 17.4142 14.25 17V9Z" fill="#121212"/>
</svg>
