<svg width="20" height="20" viewBox="0 0 20 20" fill="none" xmlns="http://www.w3.org/2000/svg">
<path fill-rule="evenodd" clip-rule="evenodd" d="M9.99992 11.0607L13.4696 14.5304C13.7625 14.8233 14.2374 14.8233 14.5303 14.5304C14.8232 14.2375 14.8232 13.7626 14.5303 13.4697L11.0606 10L14.5302 6.53051C14.8231 6.23762 14.8231 5.76274 14.5302 5.46985C14.2373 5.17695 13.7625 5.17694 13.4696 5.46984L9.99992 8.93938L6.53019 5.46967C6.23729 5.17678 5.76242 5.17678 5.46953 5.46967C5.17663 5.76257 5.17664 6.23744 5.46953 6.53033L8.93925 10L5.46946 13.4697C5.17656 13.7626 5.17656 14.2375 5.46945 14.5304C5.76234 14.8233 6.23721 14.8233 6.53011 14.5304L9.99992 11.0607Z" fill="#121212"/>
</svg>
