<svg width="80" height="26" viewBox="0 0 80 26" fill="none" xmlns="http://www.w3.org/2000/svg">
<path d="M63.087 0.643402C62.1741 0.643402 61.4623 1.33973 61.4623 2.25269C61.4623 3.16564 62.1741 3.87744 63.087 3.86197C63.9845 3.86197 64.6963 3.15017 64.6963 2.25269C64.6963 1.3552 63.9845 0.643402 63.087 0.643402Z" fill="#121212"/>
<path d="M11.6673 11.0573H2.7853V18.9799H0V0.860026H2.7853V8.78265H11.6673V0.860026H14.4526V18.9645H11.6673V11.0573Z" fill="#121212"/>
<path fill-rule="evenodd" clip-rule="evenodd" d="M22.9323 19.1966C19.0638 19.1966 16.2012 16.4577 16.2012 12.2179C16.2012 7.97801 18.94 5.27008 22.9323 5.27008C26.7698 5.27008 29.4932 7.93159 29.4932 11.9084C29.4932 12.3726 29.4623 12.8213 29.4004 13.2856H19.0948C19.2959 15.5138 20.8743 16.86 22.9323 16.86C24.6499 16.86 25.5938 16.0244 26.1199 14.9722H29.1373C28.3636 17.3088 26.2282 19.1966 22.9323 19.1966ZM19.1103 11.0109H26.5687C26.5223 8.93739 24.882 7.60664 22.793 7.60664C20.9207 7.62211 19.4043 8.89097 19.1103 11.0109Z" fill="#121212"/>
<path fill-rule="evenodd" clip-rule="evenodd" d="M42.12 7.37453C41.0987 6.10567 39.2419 5.27008 37.4778 5.27008C33.9034 5.27008 31.0871 8.00896 31.0871 12.156C31.0871 16.3184 33.9034 19.1811 37.4469 19.1811C39.6442 19.1811 41.2689 18.1598 42.12 16.9374V18.9645H44.9363V0.860026H42.12V7.37453ZM33.9498 12.156C33.9498 9.24687 35.9614 7.68401 38.0349 7.68401C40.1394 7.68401 42.1355 9.32424 42.12 12.2024C42.12 15.1115 40.1394 16.7517 38.0349 16.7517C35.9614 16.7517 33.9498 15.065 33.9498 12.156Z" fill="#121212"/>
<path d="M49.3772 5.48669L53.1993 16.4731L57.0213 5.48669H59.9768L54.8395 18.9644H51.5126L46.4062 5.48669H49.3772Z" fill="#121212"/>
<path fill-rule="evenodd" clip-rule="evenodd" d="M77.1684 7.46739C76.3328 6.30685 74.6925 5.28557 72.4953 5.28557C68.9517 5.28557 66.1355 8.02445 66.151 12.2024C66.151 16.3649 68.9672 19.2275 72.5107 19.2275C74.708 19.2275 76.3328 18.1289 77.1838 16.9838V19.2275C77.1838 21.92 75.5591 23.2353 73.4082 23.2353C71.474 23.2353 69.9885 22.2759 69.5707 20.8832H66.8009C67.1413 23.8697 69.8183 25.6492 73.4082 25.6492C77.6171 25.6492 79.9846 22.8794 79.9846 19.2121V5.5022H77.1684V7.46739ZM68.9982 12.1714C68.9982 9.26236 71.0098 7.69949 73.0833 7.69949C75.1877 7.69949 77.1838 9.33973 77.1684 12.2179C77.1684 15.127 75.1877 16.7672 73.0833 16.7672C71.0098 16.7672 68.9982 15.0805 68.9982 12.1714Z" fill="#121212"/>
<path d="M61.6789 5.48669H64.4642V18.9644H61.6789V5.48669Z" fill="#121212"/>
</svg>
