<svg width="24" height="24" viewBox="0 0 24 24" fill="none" xmlns="http://www.w3.org/2000/svg">
<path fill-rule="evenodd" clip-rule="evenodd" d="M7.25 7C7.25 6.58579 7.58579 6.25 8 6.25L16 6.25C16.4142 6.25 16.75 6.58579 16.75 7C16.75 7.41421 16.4142 7.75 16 7.75L8 7.75C7.58579 7.75 7.25 7.41421 7.25 7Z" fill="#121212"/>
<path fill-rule="evenodd" clip-rule="evenodd" d="M7.25 10C7.25 9.58579 7.58579 9.25 8 9.25H13C13.4142 9.25 13.75 9.58579 13.75 10C13.75 10.4142 13.4142 10.75 13 10.75H8C7.58579 10.75 7.25 10.4142 7.25 10Z" fill="#121212"/>
<path fill-rule="evenodd" clip-rule="evenodd" d="M7.25 13C7.25 12.5858 7.58579 12.25 8 12.25H16C16.4142 12.25 16.75 12.5858 16.75 13C16.75 13.4142 16.4142 13.75 16 13.75H8C7.58579 13.75 7.25 13.4142 7.25 13Z" fill="#121212"/>
<path fill-rule="evenodd" clip-rule="evenodd" d="M7.25 16C7.25 15.5858 7.58579 15.25 8 15.25H13C13.4142 15.25 13.75 15.5858 13.75 16C13.75 16.4142 13.4142 16.75 13 16.75H8C7.58579 16.75 7.25 16.4142 7.25 16Z" fill="#121212"/>
<path fill-rule="evenodd" clip-rule="evenodd" d="M6.96148 20.3806C6.28967 21.6986 4.25 21.2395 4.25 19.7161L4.25 2.10159C4.25 0.502699 6.44091 0.100641 7.03108 1.53983L7.23588 1.30577C7.9051 0.540947 9.0949 0.540945 9.76412 1.30577L9.93943 1.50612C10.1038 1.69403 10.3962 1.69403 10.5606 1.50612C11.3226 0.635233 12.6774 0.635233 13.4394 1.50612C13.6038 1.69403 13.8962 1.69403 14.0606 1.50613L14.2359 1.30577C14.9051 0.540947 16.0949 0.540945 16.7641 1.30577L16.9689 1.53983C17.5591 0.100649 19.75 0.502689 19.75 2.10159L19.75 19.7161C19.75 21.2395 17.7103 21.6986 17.0385 20.3806L16.8002 20.653C16.1119 21.4396 14.8881 21.4396 14.1998 20.653L14.0606 20.4939C13.8962 20.306 13.6038 20.306 13.4394 20.4939C12.6774 21.3648 11.3226 21.3648 10.5606 20.4939C10.3962 20.306 10.1038 20.306 9.93943 20.4939L9.80023 20.653C9.11189 21.4396 7.88811 21.4396 7.19977 20.653L6.96148 20.3806ZM5.75 19.4683C6.25827 18.7001 7.39058 18.5932 8.02701 19.3205L8.32864 19.6652C8.41936 19.7689 8.58065 19.7689 8.67136 19.6652L8.81057 19.5061C9.5726 18.6352 10.9274 18.6352 11.6894 19.5061C11.8538 19.694 12.1462 19.694 12.3106 19.5061C13.0726 18.6352 14.4274 18.6352 15.1894 19.5061L15.3286 19.6652C15.4194 19.7689 15.5806 19.7689 15.6714 19.6652L15.973 19.3205C16.6094 18.5932 17.7417 18.7001 18.25 19.4683L18.25 2.34929C17.7788 3.19974 16.5712 3.36322 15.8981 2.59394L15.6353 2.29353C15.5637 2.21169 15.4363 2.21169 15.3647 2.29353L15.1894 2.49388C14.4274 3.36477 13.0726 3.36477 12.3106 2.49388C12.1462 2.30598 11.8538 2.30598 11.6894 2.49388C10.9274 3.36477 9.5726 3.36477 8.81057 2.49388L8.63526 2.29353C8.56365 2.21169 8.43635 2.21169 8.36474 2.29353L8.10189 2.59394C7.42876 3.36323 6.22122 3.19974 5.75 2.34929L5.75 19.4683Z" fill="#121212"/>
</svg>
