<svg width="24" height="24" viewBox="0 0 24 24" fill="none" xmlns="http://www.w3.org/2000/svg">
<path fill-rule="evenodd" clip-rule="evenodd" d="M12 21.5C17.2467 21.5 21.5 17.2467 21.5 12C21.5 6.75329 17.2467 2.5 12 2.5C6.75329 2.5 2.5 6.75329 2.5 12C2.5 17.2467 6.75329 21.5 12 21.5ZM16.3441 10.2303C16.637 9.93739 16.637 9.46252 16.3442 9.16962C16.0513 8.87673 15.5764 8.87673 15.2835 9.16962L10.9336 13.5195C10.836 13.6171 10.6777 13.6171 10.58 13.5195L8.82117 11.7606C8.52828 11.4677 8.0534 11.4677 7.76051 11.7606C7.46762 12.0535 7.46762 12.5284 7.76051 12.8213L9.51938 14.5801C10.2028 15.2636 11.3108 15.2636 11.9943 14.5801L16.3441 10.2303Z" fill="#121212"/>
</svg>
