<svg width="24" height="24" viewBox="0 0 24 24" fill="none" xmlns="http://www.w3.org/2000/svg">
<path fill-rule="evenodd" clip-rule="evenodd" d="M1.24999 15.052V8.94792C1.24996 8.04949 1.24993 7.30032 1.32989 6.70557C1.41429 6.07781 1.59993 5.51103 2.05536 5.05557C2.51082 4.60015 3.07777 4.41433 3.70553 4.32993C4.30027 4.24997 5.04945 4.25 5.94788 4.25003L6.74989 4.25003C7.01166 4.25003 7.08251 4.24885 7.14438 4.24164C7.43518 4.20779 7.70487 4.07294 7.90643 3.86061C7.94931 3.81544 7.99277 3.75946 8.14983 3.55004C8.15722 3.54019 8.16451 3.53046 8.17171 3.52085C8.29679 3.35397 8.39484 3.22316 8.50534 3.10674C8.94877 2.63962 9.54209 2.34295 10.1818 2.26847C10.3413 2.24991 10.5048 2.24996 10.7133 2.25002C10.7253 2.25002 10.7375 2.25003 10.7498 2.25003H13.2344C13.2467 2.25003 13.2588 2.25002 13.2708 2.25002C13.4794 2.24996 13.643 2.24991 13.8024 2.26848C14.4421 2.34296 15.0354 2.6396 15.4788 3.10666C15.5893 3.22309 15.6874 3.35392 15.8125 3.52083C15.8197 3.53044 15.827 3.54017 15.8344 3.55003C15.9915 3.75948 16.0349 3.81547 16.0778 3.86065C16.2794 4.07295 16.549 4.20779 16.8398 4.24164C16.9017 4.24885 16.9726 4.25003 17.2344 4.25003L18.0515 4.25003C18.95 4.25 19.6992 4.24997 20.294 4.32994C20.9218 4.41434 21.4886 4.60001 21.944 5.05548C22.3995 5.51095 22.5852 6.07775 22.6696 6.70555C22.7496 7.30033 22.7495 8.04955 22.7495 8.94803V15.052C22.7495 15.9505 22.7496 16.6997 22.6696 17.2945C22.5852 17.9223 22.3995 18.4891 21.944 18.9446C21.4886 19.4 20.9218 19.5857 20.294 19.6701C19.6992 19.7501 18.95 19.7501 18.0515 19.75H5.94799C5.04951 19.7501 4.30029 19.7501 3.70551 19.6701C3.07771 19.5857 2.51091 19.4 2.05544 18.9446C1.59997 18.4891 1.4143 17.9223 1.3299 17.2945C1.24993 16.6997 1.24996 15.9505 1.24999 15.052ZM2.81652 17.0946C2.87856 17.5561 2.98579 17.7536 3.1161 17.8839C3.24642 18.0142 3.44392 18.1215 3.90538 18.1835C4.38842 18.2484 5.03598 18.25 5.99999 18.25H17.9995C18.9635 18.25 19.6111 18.2484 20.0941 18.1835C20.5556 18.1215 20.7531 18.0142 20.8834 17.8839C21.0137 17.7536 21.1209 17.5561 21.183 17.0946C21.2479 16.6116 21.2495 15.964 21.2495 15V9.00003C21.2495 8.03602 21.2479 7.38846 21.183 6.90542C21.1209 6.44396 21.0137 6.24646 20.8834 6.11615C20.7531 5.98583 20.5556 5.87861 20.0941 5.81656C19.6111 5.75162 18.9635 5.75003 17.9995 5.75003H17.2344C17.2221 5.75003 17.2099 5.75003 17.1979 5.75004C16.9893 5.7501 16.8258 5.75014 16.6663 5.73158C16.0266 5.65709 15.4334 5.36046 14.99 4.89339C14.8794 4.77696 14.7814 4.64613 14.6563 4.47923C14.6491 4.46962 14.6418 4.45988 14.6344 4.45003C14.4773 4.24057 14.4338 4.18459 14.3909 4.13941C14.1894 3.9271 13.9197 3.79227 13.6289 3.75842C13.5671 3.75121 13.4962 3.75003 13.2344 3.75003H10.7498C10.488 3.75003 10.4172 3.75121 10.3553 3.75841C10.0645 3.79227 9.7948 3.92711 9.59325 4.13944C9.55036 4.18462 9.50691 4.24059 9.34984 4.45002C9.34245 4.45987 9.33516 4.4696 9.32796 4.47921C9.20288 4.64609 9.10484 4.7769 8.99433 4.89331C8.5509 5.36044 7.95759 5.65711 7.31783 5.73158C7.15839 5.75014 6.99492 5.7501 6.78635 5.75004C6.77435 5.75003 6.7622 5.75003 6.74989 5.75003H5.99987C5.03592 5.75003 4.3884 5.75162 3.90539 5.81656C3.44395 5.87859 3.24646 5.9858 3.11614 6.11611C2.98584 6.24642 2.87855 6.44399 2.81652 6.90543C2.75158 7.38844 2.74999 8.03596 2.74999 8.99992V15C2.74999 15.964 2.75158 16.6116 2.81652 17.0946Z" fill="#121212"/>
<path fill-rule="evenodd" clip-rule="evenodd" d="M12 9.75C10.7574 9.75 9.75 10.7574 9.75 12C9.75 13.2426 10.7574 14.25 12 14.25C13.2426 14.25 14.25 13.2426 14.25 12C14.25 10.7574 13.2426 9.75 12 9.75ZM8.25 12C8.25 9.92893 9.92893 8.25 12 8.25C14.0711 8.25 15.75 9.92893 15.75 12C15.75 14.0711 14.0711 15.75 12 15.75C9.92893 15.75 8.25 14.0711 8.25 12Z" fill="#121212"/>
</svg>
