<svg width="36" height="40" viewBox="0 0 36 40" fill="none" xmlns="http://www.w3.org/2000/svg">
<path fill-rule="evenodd" clip-rule="evenodd" d="M8 0C4.22876 0 2.34315 0 1.17157 1.17157C0 2.34315 0 4.22876 0 8V32C0 35.7712 0 37.6569 1.17157 38.8284C2.34315 40 4.22876 40 8 40H28C31.7712 40 33.6569 40 34.8284 38.8284C35.9826 37.6742 35.9997 35.827 36 32.1665C36 32.1114 36 32.0559 36 32V11.7963C36 11.7716 36 11.7472 36 11.7232C35.9999 10.8872 35.9951 10.4588 35.8245 10.0788C35.649 9.68796 35.3185 9.39419 34.6575 8.80663L31.5 6L25.0957 0.876525C24.5531 0.442499 24.2819 0.225487 23.9605 0.112743C23.639 0 23.2917 0 22.5969 0H8ZM9.48482 23.7H7.99982V16H11.4648C12.9498 16 13.9398 16.88 13.9398 18.42C13.9398 19.96 12.9498 20.851 11.4648 20.851H9.48482V23.7ZM11.2998 17.32H9.48482V19.531H11.2998C12.0698 19.531 12.4548 19.08 12.4548 18.42C12.4548 17.76 12.0698 17.32 11.2998 17.32ZM18.3106 23.7H15.6156V16H18.2556C20.5656 16 22.1606 17.32 22.1606 19.85C22.1606 22.38 20.6206 23.7 18.3106 23.7ZM18.1456 17.32H17.1006V22.38H18.1456C19.6306 22.38 20.6756 21.775 20.6756 19.85C20.6756 17.925 19.6306 17.32 18.1456 17.32ZM23.8688 23.7H25.3538V20.62H28.9288V19.3H25.3538V17.32H29.4788V16H23.8688V23.7Z" fill="#707070"/>
</svg>
