<svg width="24" height="24" viewBox="0 0 24 24" fill="none" xmlns="http://www.w3.org/2000/svg">
<path fill-rule="evenodd" clip-rule="evenodd" d="M14.2478 8.6456C16.0784 6.7848 19.0515 6.7848 20.8821 8.6456C22.706 10.4996 22.706 13.5004 20.8821 15.3544C19.0515 17.2152 16.0784 17.2152 14.2478 15.3544L8.68286 9.69754C7.43999 8.43415 5.43007 8.43415 4.1872 9.69754C2.9376 10.9678 2.9376 13.0322 4.1872 14.3025C5.43007 15.5658 7.43999 15.5658 8.68286 14.3025L9.37848 13.5953C9.66897 13.3001 10.1438 13.2962 10.4391 13.5867C10.7344 13.8772 10.7383 14.352 10.4478 14.6473L9.75217 15.3544C7.92159 17.2152 4.94847 17.2152 3.11789 15.3544C1.29404 13.5004 1.29404 10.4996 3.11789 8.6456C4.94847 6.7848 7.92159 6.7848 9.75217 8.6456L15.3171 14.3025C16.56 15.5658 18.5699 15.5658 19.8128 14.3025C21.0624 13.0322 21.0624 10.9678 19.8128 9.69754C18.5699 8.43415 16.56 8.43415 15.3171 9.69754L14.6215 10.4046C14.331 10.6999 13.8562 10.7038 13.5609 10.4133C13.2656 10.1228 13.2617 9.64799 13.5522 9.35271L14.2478 8.6456Z" fill="#121212"/>
</svg>
