<svg width="24" height="24" viewBox="0 0 24 24" fill="none" xmlns="http://www.w3.org/2000/svg">
<path fill-rule="evenodd" clip-rule="evenodd" d="M9.75 5C9.75 4.30964 10.3096 3.75 11 3.75H13C13.6904 3.75 14.25 4.30964 14.25 5V11C14.25 11.2126 14.3402 11.4152 14.4983 11.5575L16.712 13.5498C16.7362 13.5716 16.75 13.6026 16.75 13.6352C16.75 13.6986 16.6986 13.75 16.6352 13.75H7.36483C7.30141 13.75 7.25 13.6986 7.25 13.6352C7.25 13.6026 7.26382 13.5716 7.28801 13.5498L9.50172 11.5575C9.65976 11.4152 9.75 11.2126 9.75 11V5ZM11 2.25C9.48122 2.25 8.25 3.48122 8.25 5V10.666L6.28457 12.4349C5.9443 12.7411 5.75 13.1774 5.75 13.6352C5.75 14.527 6.47299 15.25 7.36483 15.25H11.25L11.25 21C11.25 21.4142 11.5858 21.75 12 21.75C12.4142 21.75 12.75 21.4142 12.75 21L12.75 15.25H16.6352C17.527 15.25 18.25 14.527 18.25 13.6352C18.25 13.1774 18.0557 12.7411 17.7154 12.4349L15.75 10.666V5C15.75 3.48122 14.5188 2.25 13 2.25H11Z" fill="#121212"/>
</svg>
