<svg width="24" height="24" viewBox="0 0 24 24" fill="none" xmlns="http://www.w3.org/2000/svg">
<g clip-path="url(#clip0_3673_26652)">
<path d="M22 5.5C22 7.433 20.433 9 18.5 9C16.567 9 15 7.433 15 5.5C15 3.567 16.567 2 18.5 2C20.433 2 22 3.567 22 5.5Z" fill="#FF513A"/>
<path fill-rule="evenodd" clip-rule="evenodd" d="M9.63244 1.88994C10.8449 0.370019 13.1551 0.370019 14.3676 1.88994C14.6259 2.21375 14.5728 2.68565 14.249 2.94395C13.9252 3.20226 13.4533 3.14916 13.195 2.82535C12.583 2.05822 11.417 2.05822 10.805 2.82535C10.7569 2.88572 10.6886 2.99273 10.4803 3.32731L10.4668 3.34892C10.3853 3.47994 10.3246 3.57752 10.2607 3.66542C9.59126 4.58694 8.46141 5.05494 7.33643 4.87669C7.22913 4.85969 7.11719 4.83364 6.96688 4.79866C6.95872 4.79677 6.95045 4.79484 6.94207 4.79289C6.55817 4.70362 6.43424 4.67622 6.3575 4.66758C5.38234 4.55785 4.55785 5.38234 4.66758 6.3575C4.67622 6.43424 4.70362 6.55817 4.79289 6.94207C4.79484 6.95046 4.79677 6.95873 4.79867 6.9669C4.83364 7.1172 4.85969 7.22914 4.87669 7.33643C5.05494 8.46141 4.58694 9.59126 3.66542 10.2607C3.57752 10.3245 3.47995 10.3853 3.34894 10.4668L3.32731 10.4803C2.99273 10.6886 2.88572 10.7569 2.82535 10.805C2.05822 11.417 2.05822 12.583 2.82535 13.195C2.88572 13.2431 2.99273 13.3114 3.32731 13.5197L3.34887 13.5331C3.47992 13.6147 3.57751 13.6754 3.66542 13.7393C4.58694 14.4087 5.05494 15.5386 4.87669 16.6636C4.85969 16.7709 4.83364 16.8828 4.79867 17.0331L4.79289 17.0579C4.70362 17.4418 4.67622 17.5658 4.66758 17.6425C4.55785 18.6177 5.38234 19.4421 6.3575 19.3324C6.43424 19.3238 6.55817 19.2964 6.94207 19.2071L6.96693 19.2013C7.11721 19.1664 7.22914 19.1403 7.33643 19.1233C8.46141 18.9451 9.59127 19.4131 10.2607 20.3346C10.3245 20.4225 10.3853 20.5201 10.4668 20.6511L10.4803 20.6727C10.6886 21.0073 10.7569 21.1143 10.805 21.1746C11.417 21.9418 12.583 21.9418 13.195 21.1746C13.2431 21.1143 13.3114 21.0073 13.5197 20.6727L13.5331 20.6511C13.6147 20.5201 13.6754 20.4225 13.7393 20.3346C14.4087 19.4131 15.5386 18.9451 16.6636 19.1233C16.7708 19.1403 16.8828 19.1664 17.033 19.2013L17.0579 19.2071C17.4418 19.2964 17.5658 19.3238 17.6425 19.3324C18.6177 19.4421 19.4421 18.6177 19.3324 17.6425C19.3238 17.5658 19.2964 17.4418 19.2071 17.0579L19.2013 17.033C19.1664 16.8828 19.1403 16.7708 19.1233 16.6636C18.9451 15.5386 19.4131 14.4087 20.3346 13.7393C20.4225 13.6754 20.5201 13.6147 20.6511 13.5331L20.6727 13.5197C21.0073 13.3114 21.1143 13.2431 21.1746 13.195C21.9418 12.583 21.9418 11.417 21.1746 10.805C20.8508 10.5467 20.7977 10.0748 21.056 9.75104C21.3144 9.42723 21.7862 9.37413 22.1101 9.63244C23.63 10.8449 23.63 13.1551 22.1101 14.3676C21.9712 14.4783 21.7801 14.5973 21.5144 14.7626C21.4984 14.7726 21.4821 14.7827 21.4656 14.793C21.3036 14.8939 21.2551 14.9246 21.2162 14.9529C20.7511 15.2908 20.5149 15.861 20.6048 16.4288C20.6123 16.4763 20.6249 16.5324 20.6681 16.7182C20.6725 16.7372 20.6769 16.7559 20.6812 16.7742C20.7521 17.079 20.8031 17.2982 20.823 17.4748C21.0404 19.4069 19.4069 21.0404 17.4748 20.823C17.2982 20.8031 17.079 20.7521 16.7742 20.6812C16.7559 20.6769 16.7372 20.6725 16.7182 20.6681C16.5324 20.6249 16.4763 20.6123 16.4288 20.6048C15.861 20.5149 15.2908 20.7511 14.9529 21.2162C14.9246 21.2551 14.8939 21.3036 14.793 21.4656C14.7827 21.4821 14.7726 21.4984 14.7626 21.5144C14.5973 21.7801 14.4783 21.9712 14.3676 22.1101C13.1551 23.63 10.8449 23.63 9.63244 22.1101C9.52166 21.9712 9.40274 21.7801 9.23741 21.5144C9.22743 21.4984 9.21729 21.4821 9.20697 21.4656C9.10614 21.3036 9.07536 21.2551 9.04711 21.2162C8.70924 20.7511 8.13898 20.5149 7.57118 20.6048C7.52371 20.6123 7.46762 20.6249 7.28181 20.6681C7.26281 20.6725 7.24413 20.6769 7.22577 20.6812C6.92098 20.7521 6.70177 20.8031 6.52523 20.823C4.59314 21.0404 2.95958 19.4069 3.17699 17.4748C3.19686 17.2982 3.24788 17.079 3.31883 16.7743C3.3231 16.7559 3.32745 16.7372 3.33187 16.7182C3.37508 16.5324 3.38765 16.4763 3.39517 16.4288C3.48514 15.861 3.24893 15.2908 2.78382 14.9529C2.74494 14.9246 2.69638 14.8939 2.53444 14.793C2.51788 14.7827 2.50159 14.7726 2.48558 14.7626C2.2199 14.5973 2.02882 14.4783 1.88994 14.3676C0.370019 13.1551 0.370019 10.8449 1.88994 9.63244C2.02882 9.52165 2.2199 9.40273 2.48559 9.23738C2.5016 9.22742 2.51788 9.21728 2.53444 9.20697C2.69638 9.10614 2.74494 9.07536 2.78382 9.04711C3.24893 8.70924 3.48514 8.13898 3.39517 7.57118C3.38765 7.52371 3.37508 7.46761 3.33187 7.28181C3.32745 7.2628 3.32311 7.24412 3.31883 7.22575C3.24788 6.92097 3.19686 6.70176 3.17699 6.52523C2.95958 4.59314 4.59314 2.95958 6.52523 3.17699C6.70176 3.19686 6.92097 3.24788 7.22575 3.31883C7.24412 3.32311 7.2628 3.32745 7.28181 3.33187C7.46761 3.37508 7.52371 3.38765 7.57118 3.39517C8.13898 3.48514 8.70924 3.24893 9.04711 2.78382C9.07536 2.74494 9.10614 2.69638 9.20697 2.53444C9.21729 2.51788 9.22742 2.5016 9.23738 2.48559C9.40273 2.2199 9.52166 2.02882 9.63244 1.88994Z" fill="#121212"/>
<path fill-rule="evenodd" clip-rule="evenodd" d="M12 9.75C10.7574 9.75 9.75 10.7574 9.75 12C9.75 13.2426 10.7574 14.25 12 14.25C13.2426 14.25 14.25 13.2426 14.25 12C14.25 10.7574 13.2426 9.75 12 9.75ZM8.25 12C8.25 9.92893 9.92893 8.25 12 8.25C14.0711 8.25 15.75 9.92893 15.75 12C15.75 14.0711 14.0711 15.75 12 15.75C9.92893 15.75 8.25 14.0711 8.25 12Z" fill="#121212"/>
</g>
<defs>
<clipPath id="clip0_3673_26652">
<rect width="24" height="24" fill="white"/>
</clipPath>
</defs>
</svg>
