<svg width="24" height="24" viewBox="0 0 24 24" fill="none" xmlns="http://www.w3.org/2000/svg">
<path d="M23.1621 4.5C23.1621 6.433 21.5951 8 19.6621 8C17.7291 8 16.1621 6.433 16.1621 4.5C16.1621 2.567 17.7291 1 19.6621 1C21.5951 1 23.1621 2.567 23.1621 4.5Z" fill="#FF513A"/>
<path fill-rule="evenodd" clip-rule="evenodd" d="M20.5 9.4302C20.2277 9.47612 19.9479 9.50003 19.6625 9.50003C16.9011 9.50003 14.6625 7.26145 14.6625 4.50003C14.6625 3.89951 14.7684 3.32372 14.9625 2.79031L13.5388 2.26675C12.9546 2.05134 12.4926 1.88098 12 1.88098C11.5074 1.88098 11.0454 2.05134 10.4612 2.26675L6.57248 3.69686C5.97167 3.91778 5.46339 4.10467 5.06403 4.30446C4.63934 4.51691 4.27199 4.77452 3.99472 5.17191C3.71745 5.5693 3.60245 6.003 3.54963 6.47491C3.49997 6.91867 3.49998 7.46018 3.5 8.10029V8.10032V8.10034V12C3.5 14.2349 4.56026 16.1602 5.85295 17.6803C7.14798 19.2031 8.72864 20.3825 9.90043 21.1433L9.98326 21.1971C10.6416 21.6254 11.1829 21.9776 12 21.9776C12.8171 21.9776 13.3584 21.6254 14.0167 21.1971L14.0996 21.1433C15.2714 20.3825 16.852 19.2031 18.1471 17.6803C19.4397 16.1602 20.5 14.2349 20.5 12V9.4302ZM15.5303 9.32685C15.8232 9.61974 15.8232 10.0946 15.5303 10.3875L12.2374 13.6804C11.554 14.3638 10.446 14.3638 9.76257 13.6804L8.46967 12.3875C8.17678 12.0946 8.17678 11.6197 8.46967 11.3268C8.76257 11.034 9.23744 11.034 9.53033 11.3268L10.8232 12.6197C10.9209 12.7174 11.0791 12.7174 11.1768 12.6197L14.4697 9.32685C14.7626 9.03395 15.2374 9.03395 15.5303 9.32685Z" fill="#121212"/>
</svg>
