<svg width="24" height="24" viewBox="0 0 24 24" fill="none" xmlns="http://www.w3.org/2000/svg">
<path fill-rule="evenodd" clip-rule="evenodd" d="M18.4573 10.6398L13.3673 5.54501L14.4275 4.48386L19.5175 9.5786L18.4573 10.6398Z" fill="#121212"/>
<path fill-rule="evenodd" clip-rule="evenodd" d="M15.2968 3.09768C16.4265 1.9673 18.2582 1.96744 19.3878 3.0981L20.903 4.61468C22.0323 5.74509 22.0323 7.57757 20.903 8.70799L9.25696 20.3638C9.23046 20.3903 9.2043 20.4166 9.17844 20.4425C8.71868 20.9035 8.35415 21.269 7.87663 21.4783C7.39935 21.6876 6.90798 21.7072 6.29301 21.7316C6.25998 21.7329 6.2266 21.7343 6.19285 21.7356C4.91435 21.7876 3.8085 21.7446 3.03181 20.9672C2.25537 20.19 2.21242 19.0837 2.26436 17.804C2.26573 17.7702 2.26706 17.7368 2.26837 17.7038C2.29281 17.0883 2.31234 16.5965 2.52181 16.1189C2.7314 15.6412 3.09729 15.2765 3.55876 14.8166C3.58472 14.7908 3.61098 14.7646 3.63753 14.7381L15.2968 3.09768C15.2969 3.09754 15.2966 3.09782 15.2968 3.09768ZM18.3267 4.15827C17.7828 3.61391 16.9013 3.61391 16.3575 4.15827L4.69733 15.7996C4.11957 16.3764 3.97714 16.5353 3.89547 16.7215C3.81314 16.9092 3.79405 17.1027 3.76312 17.8649C3.70828 19.2163 3.83725 19.651 4.09296 19.907C4.34837 20.1627 4.78204 20.2917 6.13193 20.2369C6.89339 20.2059 7.08671 20.1868 7.27429 20.1046C7.46039 20.023 7.61921 19.8807 8.19586 19.3036L19.8418 7.64783C19.8418 7.64783 19.8418 7.64782 19.8418 7.64783C20.386 7.10308 20.3861 6.21958 19.8418 5.67484L18.3267 4.15827Z" fill="#121212"/>
</svg>
