<svg width="40" height="40" viewBox="0 0 40 40" fill="none" xmlns="http://www.w3.org/2000/svg">
<path d="M12.8316 20.8886L14.4716 10.5686H12.7209C11.9024 10.5686 10.847 10.1102 10.5393 9.26711C10.4378 8.98095 10.204 7.99941 11.5547 7.04557C12.0378 6.71018 12.3486 6.33788 12.4101 6.05172C12.4747 5.75634 12.3978 5.4948 12.1886 5.29788C11.8901 5.01172 11.3086 4.84865 10.564 4.84865C9.31165 4.84865 8.42857 5.56865 8.34242 6.09172C8.28088 6.47634 8.57934 6.78403 8.8378 6.98403C9.61934 7.56557 9.80703 8.40865 9.32396 9.20557C8.82549 10.024 7.74857 10.5563 6.59472 10.5686H4.80703C4.65934 11.5748 2.22549 26.9809 2.04088 28.1963H11.7301C11.8163 27.6486 12.2624 24.7348 12.8716 20.8886H12.8316Z" fill="#121212"/>
<path d="M25.8074 1.53809H15.9427L14.6289 9.88578H16.3027C17.2227 9.88578 18.0904 9.46424 18.4627 8.85809C18.5858 8.65809 18.635 8.48578 18.635 8.3227C18.635 7.97501 18.4012 7.71655 18.1643 7.54116C17.5181 7.05809 17.3827 6.55039 17.3827 6.19039C17.3827 6.11655 17.3827 6.05193 17.395 5.99039C17.5304 5.11039 18.7212 4.15655 20.2966 4.15655C21.2412 4.15655 21.9612 4.37809 22.3951 4.78732C22.7797 5.14732 22.9274 5.65501 22.8166 6.19039C22.6812 6.82116 22.0474 7.34424 21.6874 7.6027C20.7335 8.27347 20.8566 8.85809 20.9181 9.03039C21.1181 9.55039 21.875 9.88578 22.4566 9.88578H24.9981V9.89809C28.472 9.9227 30.3335 11.5227 29.752 15.2458C29.2043 18.7073 26.5489 20.1935 23.3858 20.2212L22.1335 28.2089H23.9827C31.7858 28.2089 38.1612 23.1965 39.4135 15.2827C40.9643 5.45809 34.7366 1.53809 25.8074 1.53809Z" fill="#121212"/>
<path d="M1.51919 31.7578H5.47611C7.16227 31.7578 7.5715 32.6131 7.44842 33.3947C7.34996 34.0285 6.91304 34.4993 6.1715 34.8101C7.11304 35.1701 7.48534 35.727 7.34996 36.607C7.17457 37.7116 6.22073 38.5301 4.96534 38.5301H0.463806L1.51919 31.7578ZM4.13458 34.5608C4.90381 34.5608 5.26381 34.1516 5.33765 33.6685C5.41458 33.1455 5.17765 32.7885 4.40842 32.7885H3.72534L3.45458 34.5608H4.13458ZM3.71304 37.4901C4.50688 37.4901 4.96534 37.167 5.07919 36.5085C5.16534 35.9393 4.84227 35.6039 4.07304 35.6039H3.2915L2.99304 37.5024H3.71304V37.4901Z" fill="#121212"/>
<path d="M12.896 38.5797C11.8653 38.6536 11.3699 38.5428 11.1206 38.0966C10.576 38.432 9.9668 38.6043 9.32372 38.6043C8.15757 38.6043 7.74834 37.9982 7.8591 37.3274C7.90834 37.0043 8.09295 36.6936 8.39141 36.4351C9.03757 35.8751 10.6253 35.8012 11.2437 35.3797C11.296 34.9089 11.1083 34.7366 10.5268 34.7366C9.84372 34.7366 9.27141 34.9582 8.29295 35.6289L8.52987 34.0905C9.37295 33.4812 10.1914 33.1982 11.133 33.1982C12.336 33.1982 13.4037 33.6936 13.2037 35.0074L12.9699 36.4966C12.8837 37.0166 12.9083 37.1797 13.4899 37.192L12.896 38.5797ZM11.1083 36.2474C10.5637 36.5951 9.54526 36.5336 9.43449 37.2536C9.38526 37.5889 9.59449 37.8351 9.92987 37.8351C10.253 37.8351 10.6499 37.6997 10.973 37.4751C10.9483 37.352 10.9606 37.2289 10.9976 36.992L11.1083 36.2474Z" fill="#121212"/>
<path d="M14.818 33.2843H16.8764L16.7626 33.9674C17.421 33.4074 17.9164 33.1982 18.5626 33.1982C19.7164 33.1982 20.2487 33.9028 20.0641 35.0566L19.5318 38.5182H17.4703L17.9164 35.6536C18.0057 35.1336 17.8426 34.8843 17.4457 34.8843C17.1226 34.8843 16.8272 35.0566 16.541 35.4412L16.0703 38.5059H14.0087L14.818 33.2843Z" fill="#121212"/>
<path d="M21.6656 31.7578H23.724L23.204 35.0808L25.1763 33.2839H27.7179L25.1887 35.5147L27.2225 38.5178H24.6317L23.0686 36.0993H23.041L22.6717 38.5178H20.6102L21.6656 31.7578Z" fill="#121212"/>
<path d="M28.9581 31.7578H31.3273L30.2843 38.5178H27.915L28.9581 31.7578Z" fill="#121212"/>
<path d="M32.4812 31.7578H35.8658C38.4842 31.7578 39.2411 33.6562 38.9919 35.2316C38.755 36.7701 37.5396 38.5178 35.2473 38.5178H31.4258L32.4812 31.7578ZM34.675 36.9055C35.8288 36.9055 36.4627 36.3362 36.6473 35.1331C36.7827 34.2378 36.5119 33.3578 35.235 33.3578H34.6012L34.0565 36.9055H34.675Z" fill="#121212"/>
</svg>
