<svg width="24" height="24" viewBox="0 0 24 24" fill="none" xmlns="http://www.w3.org/2000/svg">
<path fill-rule="evenodd" clip-rule="evenodd" d="M12 20C16.4183 20 20 16.4183 20 12C20 7.58172 16.4183 4 12 4C7.58172 4 4 7.58172 4 12C4 16.4183 7.58172 20 12 20ZM12 21.5C17.2467 21.5 21.5 17.2467 21.5 12C21.5 6.75329 17.2467 2.5 12 2.5C6.75329 2.5 2.5 6.75329 2.5 12C2.5 17.2467 6.75329 21.5 12 21.5ZM12 6.25C12.4142 6.25 12.75 6.58579 12.75 7V11.6894L15.5303 14.4697C15.8232 14.7626 15.8232 15.2375 15.5303 15.5304C15.2374 15.8233 14.7626 15.8233 14.4697 15.5304L11.4697 12.5304L11.4697 12.5304C11.334 12.3946 11.25 12.2071 11.25 12V7C11.25 6.58579 11.5858 6.25 12 6.25Z" fill="#121212"/>
</svg>
