<svg width="24" height="24" viewBox="0 0 24 24" fill="none" xmlns="http://www.w3.org/2000/svg">
<path fill-rule="evenodd" clip-rule="evenodd" d="M19 5.25C20.5188 5.25 21.75 6.48122 21.75 8V16C21.75 17.5188 20.5188 18.75 19 18.75L5 18.75C3.48122 18.75 2.25 17.5188 2.25 16V8C2.25 6.48122 3.48122 5.25 5 5.25H19ZM20.25 8C20.25 7.30964 19.6904 6.75 19 6.75L5 6.75C4.30964 6.75 3.75 7.30964 3.75 8L3.75 16C3.75 16.0428 3.75215 16.0852 3.75636 16.1269L8.14245 10.9433C8.85413 10.1023 10.1566 10.1202 10.8449 10.9805L13.3877 14.1591C13.4808 14.2754 13.6544 14.285 13.7597 14.1797L14.7626 13.1768C15.446 12.4934 16.5541 12.4934 17.2375 13.1768L20.2376 16.1769C20.2458 16.1191 20.25 16.0601 20.25 16V8ZM19.1769 17.2376L16.1768 14.2375C16.0792 14.1398 15.9209 14.1398 15.8233 14.2375L14.8204 15.2403C14.0829 15.9778 12.868 15.9106 12.2164 15.0961L9.67359 11.9176C9.57527 11.7947 9.3892 11.7921 9.28753 11.9122L4.78636 17.2318C4.85578 17.2438 4.92716 17.25 5 17.25L19 17.25C19.0601 17.25 19.1191 17.2458 19.1769 17.2376ZM19 9.5C19 10.3284 18.3284 11 17.5 11C16.6716 11 16 10.3284 16 9.5C16 8.67157 16.6716 8 17.5 8C18.3284 8 19 8.67157 19 9.5Z" fill="#121212"/>
</svg>
